<?xml version="1.0" encoding="utf-8" standalone="no"?>
<!DOCTYPE svg PUBLIC "-//W3C//DTD SVG 1.1//EN"
  "http://www.w3.org/Graphics/SVG/1.1/DTD/svg11.dtd">
<svg xmlns:xlink="http://www.w3.org/1999/xlink" width="712.8pt" height="424.8pt" viewBox="0 0 712.8 424.8" xmlns="http://www.w3.org/2000/svg" version="1.1">
 <metadata>
  <rdf:RDF xmlns:dc="http://purl.org/dc/elements/1.1/" xmlns:cc="http://creativecommons.org/ns#" xmlns:rdf="http://www.w3.org/1999/02/22-rdf-syntax-ns#">
   <cc:Work>
    <dc:type rdf:resource="http://purl.org/dc/dcmitype/StillImage"/>
    <dc:date>2026-03-17T00:58:45.129987</dc:date>
    <dc:format>image/svg+xml</dc:format>
    <dc:creator>
     <cc:Agent>
      <dc:title>Matplotlib v3.10.8, https://matplotlib.org/</dc:title>
     </cc:Agent>
    </dc:creator>
   </cc:Work>
  </rdf:RDF>
 </metadata>
 <defs>
  <style type="text/css">*{stroke-linejoin: round; stroke-linecap: butt}</style>
 </defs>
 <g id="figure_1">
  <g id="patch_1">
   <path d="M 0 424.8 
L 712.8 424.8 
L 712.8 0 
L 0 0 
z
" style="fill: #ffffff"/>
  </g>
  <g id="axes_1">
   <g id="patch_2">
    <path d="M 39.241875 390.138437 
L 705.6 390.138437 
L 705.6 21.935625 
L 39.241875 21.935625 
z
" style="fill: #ffffff"/>
   </g>
   <g id="matplotlib.axis_1">
    <g id="xtick_1">
     <g id="line2d_1">
      <path d="M 120.980699 390.138437 
L 120.980699 21.935625 
" clip-path="url(#pef9ef76d85)" style="fill: none; stroke-dasharray: 1.85,0.8; stroke-dashoffset: 0; stroke: #cccccc; stroke-opacity: 0.25; stroke-width: 0.5"/>
     </g>
     <g id="text_1">
      <!-- 2011-01 -->
      <g style="fill: #262626" transform="translate(106.597574 402.864687) scale(0.08 -0.08)">
       <defs>
        <path id="ArialMT-32" d="M 3222 541 
L 3222 0 
L 194 0 
Q 188 203 259 391 
Q 375 700 629 1000 
Q 884 1300 1366 1694 
Q 2113 2306 2375 2664 
Q 2638 3022 2638 3341 
Q 2638 3675 2398 3904 
Q 2159 4134 1775 4134 
Q 1369 4134 1125 3890 
Q 881 3647 878 3216 
L 300 3275 
Q 359 3922 746 4261 
Q 1134 4600 1788 4600 
Q 2447 4600 2831 4234 
Q 3216 3869 3216 3328 
Q 3216 3053 3103 2787 
Q 2991 2522 2730 2228 
Q 2469 1934 1863 1422 
Q 1356 997 1212 845 
Q 1069 694 975 541 
L 3222 541 
z
" transform="scale(0.015625)"/>
        <path id="ArialMT-30" d="M 266 2259 
Q 266 3072 433 3567 
Q 600 4063 929 4331 
Q 1259 4600 1759 4600 
Q 2128 4600 2406 4451 
Q 2684 4303 2865 4023 
Q 3047 3744 3150 3342 
Q 3253 2941 3253 2259 
Q 3253 1453 3087 958 
Q 2922 463 2592 192 
Q 2263 -78 1759 -78 
Q 1097 -78 719 397 
Q 266 969 266 2259 
z
M 844 2259 
Q 844 1131 1108 757 
Q 1372 384 1759 384 
Q 2147 384 2411 759 
Q 2675 1134 2675 2259 
Q 2675 3391 2411 3762 
Q 2147 4134 1753 4134 
Q 1366 4134 1134 3806 
Q 844 3388 844 2259 
z
" transform="scale(0.015625)"/>
        <path id="ArialMT-31" d="M 2384 0 
L 1822 0 
L 1822 3584 
Q 1619 3391 1289 3197 
Q 959 3003 697 2906 
L 697 3450 
Q 1169 3672 1522 3987 
Q 1875 4303 2022 4600 
L 2384 4600 
L 2384 0 
z
" transform="scale(0.015625)"/>
        <path id="ArialMT-2d" d="M 203 1375 
L 203 1941 
L 1931 1941 
L 1931 1375 
L 203 1375 
z
" transform="scale(0.015625)"/>
       </defs>
       <use xlink:href="#ArialMT-32"/>
       <use xlink:href="#ArialMT-30" transform="translate(55.615234 0)"/>
       <use xlink:href="#ArialMT-31" transform="translate(111.230469 0)"/>
       <use xlink:href="#ArialMT-31" transform="translate(159.470703 0)"/>
       <use xlink:href="#ArialMT-2d" transform="translate(215.085938 0)"/>
       <use xlink:href="#ArialMT-30" transform="translate(248.386719 0)"/>
       <use xlink:href="#ArialMT-31" transform="translate(304.001953 0)"/>
      </g>
     </g>
    </g>
    <g id="xtick_2">
     <g id="line2d_2">
      <path d="M 218.90132 390.138437 
L 218.90132 21.935625 
" clip-path="url(#pef9ef76d85)" style="fill: none; stroke-dasharray: 1.85,0.8; stroke-dashoffset: 0; stroke: #cccccc; stroke-opacity: 0.25; stroke-width: 0.5"/>
     </g>
     <g id="text_2">
      <!-- 2011-03 -->
      <g style="fill: #262626" transform="translate(204.518195 402.864687) scale(0.08 -0.08)">
       <defs>
        <path id="ArialMT-33" d="M 269 1209 
L 831 1284 
Q 928 806 1161 595 
Q 1394 384 1728 384 
Q 2125 384 2398 659 
Q 2672 934 2672 1341 
Q 2672 1728 2419 1979 
Q 2166 2231 1775 2231 
Q 1616 2231 1378 2169 
L 1441 2663 
Q 1497 2656 1531 2656 
Q 1891 2656 2178 2843 
Q 2466 3031 2466 3422 
Q 2466 3731 2256 3934 
Q 2047 4138 1716 4138 
Q 1388 4138 1169 3931 
Q 950 3725 888 3313 
L 325 3413 
Q 428 3978 793 4289 
Q 1159 4600 1703 4600 
Q 2078 4600 2393 4439 
Q 2709 4278 2876 4000 
Q 3044 3722 3044 3409 
Q 3044 3113 2884 2869 
Q 2725 2625 2413 2481 
Q 2819 2388 3044 2092 
Q 3269 1797 3269 1353 
Q 3269 753 2831 336 
Q 2394 -81 1725 -81 
Q 1122 -81 723 278 
Q 325 638 269 1209 
z
" transform="scale(0.015625)"/>
       </defs>
       <use xlink:href="#ArialMT-32"/>
       <use xlink:href="#ArialMT-30" transform="translate(55.615234 0)"/>
       <use xlink:href="#ArialMT-31" transform="translate(111.230469 0)"/>
       <use xlink:href="#ArialMT-31" transform="translate(159.470703 0)"/>
       <use xlink:href="#ArialMT-2d" transform="translate(215.085938 0)"/>
       <use xlink:href="#ArialMT-30" transform="translate(248.386719 0)"/>
       <use xlink:href="#ArialMT-33" transform="translate(304.001953 0)"/>
      </g>
     </g>
    </g>
    <g id="xtick_3">
     <g id="line2d_3">
      <path d="M 320.141284 390.138437 
L 320.141284 21.935625 
" clip-path="url(#pef9ef76d85)" style="fill: none; stroke-dasharray: 1.85,0.8; stroke-dashoffset: 0; stroke: #cccccc; stroke-opacity: 0.25; stroke-width: 0.5"/>
     </g>
     <g id="text_3">
      <!-- 2011-05 -->
      <g style="fill: #262626" transform="translate(305.758159 402.864687) scale(0.08 -0.08)">
       <defs>
        <path id="ArialMT-35" d="M 266 1200 
L 856 1250 
Q 922 819 1161 601 
Q 1400 384 1738 384 
Q 2144 384 2425 690 
Q 2706 997 2706 1503 
Q 2706 1984 2436 2262 
Q 2166 2541 1728 2541 
Q 1456 2541 1237 2417 
Q 1019 2294 894 2097 
L 366 2166 
L 809 4519 
L 3088 4519 
L 3088 3981 
L 1259 3981 
L 1013 2750 
Q 1425 3038 1878 3038 
Q 2478 3038 2890 2622 
Q 3303 2206 3303 1553 
Q 3303 931 2941 478 
Q 2500 -78 1738 -78 
Q 1113 -78 717 272 
Q 322 622 266 1200 
z
" transform="scale(0.015625)"/>
       </defs>
       <use xlink:href="#ArialMT-32"/>
       <use xlink:href="#ArialMT-30" transform="translate(55.615234 0)"/>
       <use xlink:href="#ArialMT-31" transform="translate(111.230469 0)"/>
       <use xlink:href="#ArialMT-31" transform="translate(159.470703 0)"/>
       <use xlink:href="#ArialMT-2d" transform="translate(215.085938 0)"/>
       <use xlink:href="#ArialMT-30" transform="translate(248.386719 0)"/>
       <use xlink:href="#ArialMT-35" transform="translate(304.001953 0)"/>
      </g>
     </g>
    </g>
    <g id="xtick_4">
     <g id="line2d_4">
      <path d="M 421.381248 390.138437 
L 421.381248 21.935625 
" clip-path="url(#pef9ef76d85)" style="fill: none; stroke-dasharray: 1.85,0.8; stroke-dashoffset: 0; stroke: #cccccc; stroke-opacity: 0.25; stroke-width: 0.5"/>
     </g>
     <g id="text_4">
      <!-- 2011-07 -->
      <g style="fill: #262626" transform="translate(406.998123 402.864687) scale(0.08 -0.08)">
       <defs>
        <path id="ArialMT-37" d="M 303 3981 
L 303 4522 
L 3269 4522 
L 3269 4084 
Q 2831 3619 2401 2847 
Q 1972 2075 1738 1259 
Q 1569 684 1522 0 
L 944 0 
Q 953 541 1156 1306 
Q 1359 2072 1739 2783 
Q 2119 3494 2547 3981 
L 303 3981 
z
" transform="scale(0.015625)"/>
       </defs>
       <use xlink:href="#ArialMT-32"/>
       <use xlink:href="#ArialMT-30" transform="translate(55.615234 0)"/>
       <use xlink:href="#ArialMT-31" transform="translate(111.230469 0)"/>
       <use xlink:href="#ArialMT-31" transform="translate(159.470703 0)"/>
       <use xlink:href="#ArialMT-2d" transform="translate(215.085938 0)"/>
       <use xlink:href="#ArialMT-30" transform="translate(248.386719 0)"/>
       <use xlink:href="#ArialMT-37" transform="translate(304.001953 0)"/>
      </g>
     </g>
    </g>
    <g id="xtick_5">
     <g id="line2d_5">
      <path d="M 524.280884 390.138437 
L 524.280884 21.935625 
" clip-path="url(#pef9ef76d85)" style="fill: none; stroke-dasharray: 1.85,0.8; stroke-dashoffset: 0; stroke: #cccccc; stroke-opacity: 0.25; stroke-width: 0.5"/>
     </g>
     <g id="text_5">
      <!-- 2011-09 -->
      <g style="fill: #262626" transform="translate(509.897759 402.864687) scale(0.08 -0.08)">
       <defs>
        <path id="ArialMT-39" d="M 350 1059 
L 891 1109 
Q 959 728 1153 556 
Q 1347 384 1650 384 
Q 1909 384 2104 503 
Q 2300 622 2425 820 
Q 2550 1019 2634 1356 
Q 2719 1694 2719 2044 
Q 2719 2081 2716 2156 
Q 2547 1888 2255 1720 
Q 1963 1553 1622 1553 
Q 1053 1553 659 1965 
Q 266 2378 266 3053 
Q 266 3750 677 4175 
Q 1088 4600 1706 4600 
Q 2153 4600 2523 4359 
Q 2894 4119 3086 3673 
Q 3278 3228 3278 2384 
Q 3278 1506 3087 986 
Q 2897 466 2520 194 
Q 2144 -78 1638 -78 
Q 1100 -78 759 220 
Q 419 519 350 1059 
z
M 2653 3081 
Q 2653 3566 2395 3850 
Q 2138 4134 1775 4134 
Q 1400 4134 1122 3828 
Q 844 3522 844 3034 
Q 844 2597 1108 2323 
Q 1372 2050 1759 2050 
Q 2150 2050 2401 2323 
Q 2653 2597 2653 3081 
z
" transform="scale(0.015625)"/>
       </defs>
       <use xlink:href="#ArialMT-32"/>
       <use xlink:href="#ArialMT-30" transform="translate(55.615234 0)"/>
       <use xlink:href="#ArialMT-31" transform="translate(111.230469 0)"/>
       <use xlink:href="#ArialMT-31" transform="translate(159.470703 0)"/>
       <use xlink:href="#ArialMT-2d" transform="translate(215.085938 0)"/>
       <use xlink:href="#ArialMT-30" transform="translate(248.386719 0)"/>
       <use xlink:href="#ArialMT-39" transform="translate(304.001953 0)"/>
      </g>
     </g>
    </g>
    <g id="xtick_6">
     <g id="line2d_6">
      <path d="M 625.520848 390.138437 
L 625.520848 21.935625 
" clip-path="url(#pef9ef76d85)" style="fill: none; stroke-dasharray: 1.85,0.8; stroke-dashoffset: 0; stroke: #cccccc; stroke-opacity: 0.25; stroke-width: 0.5"/>
     </g>
     <g id="text_6">
      <!-- 2011-11 -->
      <g style="fill: #262626" transform="translate(611.432723 402.864687) scale(0.08 -0.08)">
       <use xlink:href="#ArialMT-32"/>
       <use xlink:href="#ArialMT-30" transform="translate(55.615234 0)"/>
       <use xlink:href="#ArialMT-31" transform="translate(111.230469 0)"/>
       <use xlink:href="#ArialMT-31" transform="translate(159.470703 0)"/>
       <use xlink:href="#ArialMT-2d" transform="translate(215.085938 0)"/>
       <use xlink:href="#ArialMT-31" transform="translate(248.386719 0)"/>
       <use xlink:href="#ArialMT-31" transform="translate(296.626953 0)"/>
      </g>
     </g>
    </g>
    <g id="text_7">
     <!-- Month -->
     <g style="fill: #262626" transform="translate(358.525625 415.6125) scale(0.1 -0.1)">
      <defs>
       <path id="ArialMT-4d" d="M 475 0 
L 475 4581 
L 1388 4581 
L 2472 1338 
Q 2622 884 2691 659 
Q 2769 909 2934 1394 
L 4031 4581 
L 4847 4581 
L 4847 0 
L 4263 0 
L 4263 3834 
L 2931 0 
L 2384 0 
L 1059 3900 
L 1059 0 
L 475 0 
z
" transform="scale(0.015625)"/>
       <path id="ArialMT-6f" d="M 213 1659 
Q 213 2581 725 3025 
Q 1153 3394 1769 3394 
Q 2453 3394 2887 2945 
Q 3322 2497 3322 1706 
Q 3322 1066 3130 698 
Q 2938 331 2570 128 
Q 2203 -75 1769 -75 
Q 1072 -75 642 372 
Q 213 819 213 1659 
z
M 791 1659 
Q 791 1022 1069 705 
Q 1347 388 1769 388 
Q 2188 388 2466 706 
Q 2744 1025 2744 1678 
Q 2744 2294 2464 2611 
Q 2184 2928 1769 2928 
Q 1347 2928 1069 2612 
Q 791 2297 791 1659 
z
" transform="scale(0.015625)"/>
       <path id="ArialMT-6e" d="M 422 0 
L 422 3319 
L 928 3319 
L 928 2847 
Q 1294 3394 1984 3394 
Q 2284 3394 2536 3286 
Q 2788 3178 2913 3003 
Q 3038 2828 3088 2588 
Q 3119 2431 3119 2041 
L 3119 0 
L 2556 0 
L 2556 2019 
Q 2556 2363 2490 2533 
Q 2425 2703 2258 2804 
Q 2091 2906 1866 2906 
Q 1506 2906 1245 2678 
Q 984 2450 984 1813 
L 984 0 
L 422 0 
z
" transform="scale(0.015625)"/>
       <path id="ArialMT-74" d="M 1650 503 
L 1731 6 
Q 1494 -44 1306 -44 
Q 1000 -44 831 53 
Q 663 150 594 308 
Q 525 466 525 972 
L 525 2881 
L 113 2881 
L 113 3319 
L 525 3319 
L 525 4141 
L 1084 4478 
L 1084 3319 
L 1650 3319 
L 1650 2881 
L 1084 2881 
L 1084 941 
Q 1084 700 1114 631 
Q 1144 563 1211 522 
Q 1278 481 1403 481 
Q 1497 481 1650 503 
z
" transform="scale(0.015625)"/>
       <path id="ArialMT-68" d="M 422 0 
L 422 4581 
L 984 4581 
L 984 2938 
Q 1378 3394 1978 3394 
Q 2347 3394 2619 3248 
Q 2891 3103 3008 2847 
Q 3125 2591 3125 2103 
L 3125 0 
L 2563 0 
L 2563 2103 
Q 2563 2525 2380 2717 
Q 2197 2909 1863 2909 
Q 1613 2909 1392 2779 
Q 1172 2650 1078 2428 
Q 984 2206 984 1816 
L 984 0 
L 422 0 
z
" transform="scale(0.015625)"/>
      </defs>
      <use xlink:href="#ArialMT-4d"/>
      <use xlink:href="#ArialMT-6f" transform="translate(83.300781 0)"/>
      <use xlink:href="#ArialMT-6e" transform="translate(138.916016 0)"/>
      <use xlink:href="#ArialMT-74" transform="translate(194.53125 0)"/>
      <use xlink:href="#ArialMT-68" transform="translate(222.314453 0)"/>
     </g>
    </g>
   </g>
   <g id="matplotlib.axis_2">
    <g id="ytick_1">
     <g id="line2d_7">
      <path d="M 39.241875 373.401946 
L 705.6 373.401946 
" clip-path="url(#pef9ef76d85)" style="fill: none; stroke-dasharray: 1.85,0.8; stroke-dashoffset: 0; stroke: #cccccc; stroke-opacity: 0.25; stroke-width: 0.5"/>
     </g>
     <g id="text_8">
      <!-- 0.0 -->
      <g style="fill: #262626" transform="translate(21.121875 376.265071) scale(0.08 -0.08)">
       <defs>
        <path id="ArialMT-2e" d="M 581 0 
L 581 641 
L 1222 641 
L 1222 0 
L 581 0 
z
" transform="scale(0.015625)"/>
       </defs>
       <use xlink:href="#ArialMT-30"/>
       <use xlink:href="#ArialMT-2e" transform="translate(55.615234 0)"/>
       <use xlink:href="#ArialMT-30" transform="translate(83.398438 0)"/>
      </g>
     </g>
    </g>
    <g id="ytick_2">
     <g id="line2d_8">
      <path d="M 39.241875 328.886058 
L 705.6 328.886058 
" clip-path="url(#pef9ef76d85)" style="fill: none; stroke-dasharray: 1.85,0.8; stroke-dashoffset: 0; stroke: #cccccc; stroke-opacity: 0.25; stroke-width: 0.5"/>
     </g>
     <g id="text_9">
      <!-- 0.2 -->
      <g style="fill: #262626" transform="translate(21.121875 331.749183) scale(0.08 -0.08)">
       <use xlink:href="#ArialMT-30"/>
       <use xlink:href="#ArialMT-2e" transform="translate(55.615234 0)"/>
       <use xlink:href="#ArialMT-32" transform="translate(83.398438 0)"/>
      </g>
     </g>
    </g>
    <g id="ytick_3">
     <g id="line2d_9">
      <path d="M 39.241875 284.370169 
L 705.6 284.370169 
" clip-path="url(#pef9ef76d85)" style="fill: none; stroke-dasharray: 1.85,0.8; stroke-dashoffset: 0; stroke: #cccccc; stroke-opacity: 0.25; stroke-width: 0.5"/>
     </g>
     <g id="text_10">
      <!-- 0.4 -->
      <g style="fill: #262626" transform="translate(21.121875 287.233294) scale(0.08 -0.08)">
       <defs>
        <path id="ArialMT-34" d="M 2069 0 
L 2069 1097 
L 81 1097 
L 81 1613 
L 2172 4581 
L 2631 4581 
L 2631 1613 
L 3250 1613 
L 3250 1097 
L 2631 1097 
L 2631 0 
L 2069 0 
z
M 2069 1613 
L 2069 3678 
L 634 1613 
L 2069 1613 
z
" transform="scale(0.015625)"/>
       </defs>
       <use xlink:href="#ArialMT-30"/>
       <use xlink:href="#ArialMT-2e" transform="translate(55.615234 0)"/>
       <use xlink:href="#ArialMT-34" transform="translate(83.398438 0)"/>
      </g>
     </g>
    </g>
    <g id="ytick_4">
     <g id="line2d_10">
      <path d="M 39.241875 239.85428 
L 705.6 239.85428 
" clip-path="url(#pef9ef76d85)" style="fill: none; stroke-dasharray: 1.85,0.8; stroke-dashoffset: 0; stroke: #cccccc; stroke-opacity: 0.25; stroke-width: 0.5"/>
     </g>
     <g id="text_11">
      <!-- 0.6 -->
      <g style="fill: #262626" transform="translate(21.121875 242.717405) scale(0.08 -0.08)">
       <defs>
        <path id="ArialMT-36" d="M 3184 3459 
L 2625 3416 
Q 2550 3747 2413 3897 
Q 2184 4138 1850 4138 
Q 1581 4138 1378 3988 
Q 1113 3794 959 3422 
Q 806 3050 800 2363 
Q 1003 2672 1297 2822 
Q 1591 2972 1913 2972 
Q 2475 2972 2870 2558 
Q 3266 2144 3266 1488 
Q 3266 1056 3080 686 
Q 2894 316 2569 119 
Q 2244 -78 1831 -78 
Q 1128 -78 684 439 
Q 241 956 241 2144 
Q 241 3472 731 4075 
Q 1159 4600 1884 4600 
Q 2425 4600 2770 4297 
Q 3116 3994 3184 3459 
z
M 888 1484 
Q 888 1194 1011 928 
Q 1134 663 1356 523 
Q 1578 384 1822 384 
Q 2178 384 2434 671 
Q 2691 959 2691 1453 
Q 2691 1928 2437 2201 
Q 2184 2475 1800 2475 
Q 1419 2475 1153 2201 
Q 888 1928 888 1484 
z
" transform="scale(0.015625)"/>
       </defs>
       <use xlink:href="#ArialMT-30"/>
       <use xlink:href="#ArialMT-2e" transform="translate(55.615234 0)"/>
       <use xlink:href="#ArialMT-36" transform="translate(83.398438 0)"/>
      </g>
     </g>
    </g>
    <g id="ytick_5">
     <g id="line2d_11">
      <path d="M 39.241875 195.338392 
L 705.6 195.338392 
" clip-path="url(#pef9ef76d85)" style="fill: none; stroke-dasharray: 1.85,0.8; stroke-dashoffset: 0; stroke: #cccccc; stroke-opacity: 0.25; stroke-width: 0.5"/>
     </g>
     <g id="text_12">
      <!-- 0.8 -->
      <g style="fill: #262626" transform="translate(21.121875 198.201517) scale(0.08 -0.08)">
       <defs>
        <path id="ArialMT-38" d="M 1131 2484 
Q 781 2613 612 2850 
Q 444 3088 444 3419 
Q 444 3919 803 4259 
Q 1163 4600 1759 4600 
Q 2359 4600 2725 4251 
Q 3091 3903 3091 3403 
Q 3091 3084 2923 2848 
Q 2756 2613 2416 2484 
Q 2838 2347 3058 2040 
Q 3278 1734 3278 1309 
Q 3278 722 2862 322 
Q 2447 -78 1769 -78 
Q 1091 -78 675 323 
Q 259 725 259 1325 
Q 259 1772 486 2073 
Q 713 2375 1131 2484 
z
M 1019 3438 
Q 1019 3113 1228 2906 
Q 1438 2700 1772 2700 
Q 2097 2700 2305 2904 
Q 2513 3109 2513 3406 
Q 2513 3716 2298 3927 
Q 2084 4138 1766 4138 
Q 1444 4138 1231 3931 
Q 1019 3725 1019 3438 
z
M 838 1322 
Q 838 1081 952 856 
Q 1066 631 1291 507 
Q 1516 384 1775 384 
Q 2178 384 2440 643 
Q 2703 903 2703 1303 
Q 2703 1709 2433 1975 
Q 2163 2241 1756 2241 
Q 1359 2241 1098 1978 
Q 838 1716 838 1322 
z
" transform="scale(0.015625)"/>
       </defs>
       <use xlink:href="#ArialMT-30"/>
       <use xlink:href="#ArialMT-2e" transform="translate(55.615234 0)"/>
       <use xlink:href="#ArialMT-38" transform="translate(83.398438 0)"/>
      </g>
     </g>
    </g>
    <g id="ytick_6">
     <g id="line2d_12">
      <path d="M 39.241875 150.822503 
L 705.6 150.822503 
" clip-path="url(#pef9ef76d85)" style="fill: none; stroke-dasharray: 1.85,0.8; stroke-dashoffset: 0; stroke: #cccccc; stroke-opacity: 0.25; stroke-width: 0.5"/>
     </g>
     <g id="text_13">
      <!-- 1.0 -->
      <g style="fill: #262626" transform="translate(21.121875 153.685628) scale(0.08 -0.08)">
       <use xlink:href="#ArialMT-31"/>
       <use xlink:href="#ArialMT-2e" transform="translate(55.615234 0)"/>
       <use xlink:href="#ArialMT-30" transform="translate(83.398438 0)"/>
      </g>
     </g>
    </g>
    <g id="ytick_7">
     <g id="line2d_13">
      <path d="M 39.241875 106.306615 
L 705.6 106.306615 
" clip-path="url(#pef9ef76d85)" style="fill: none; stroke-dasharray: 1.85,0.8; stroke-dashoffset: 0; stroke: #cccccc; stroke-opacity: 0.25; stroke-width: 0.5"/>
     </g>
     <g id="text_14">
      <!-- 1.2 -->
      <g style="fill: #262626" transform="translate(21.121875 109.16974) scale(0.08 -0.08)">
       <use xlink:href="#ArialMT-31"/>
       <use xlink:href="#ArialMT-2e" transform="translate(55.615234 0)"/>
       <use xlink:href="#ArialMT-32" transform="translate(83.398438 0)"/>
      </g>
     </g>
    </g>
    <g id="ytick_8">
     <g id="line2d_14">
      <path d="M 39.241875 61.790726 
L 705.6 61.790726 
" clip-path="url(#pef9ef76d85)" style="fill: none; stroke-dasharray: 1.85,0.8; stroke-dashoffset: 0; stroke: #cccccc; stroke-opacity: 0.25; stroke-width: 0.5"/>
     </g>
     <g id="text_15">
      <!-- 1.4 -->
      <g style="fill: #262626" transform="translate(21.121875 64.653851) scale(0.08 -0.08)">
       <use xlink:href="#ArialMT-31"/>
       <use xlink:href="#ArialMT-2e" transform="translate(55.615234 0)"/>
       <use xlink:href="#ArialMT-34" transform="translate(83.398438 0)"/>
      </g>
     </g>
    </g>
    <g id="text_16">
     <!-- Revenue ($ Millions) -->
     <g style="fill: #262626" transform="translate(15.017188 251.608125) rotate(-90) scale(0.1 -0.1)">
      <defs>
       <path id="ArialMT-52" d="M 503 0 
L 503 4581 
L 2534 4581 
Q 3147 4581 3465 4457 
Q 3784 4334 3975 4021 
Q 4166 3709 4166 3331 
Q 4166 2844 3850 2509 
Q 3534 2175 2875 2084 
Q 3116 1969 3241 1856 
Q 3506 1613 3744 1247 
L 4541 0 
L 3778 0 
L 3172 953 
Q 2906 1366 2734 1584 
Q 2563 1803 2427 1890 
Q 2291 1978 2150 2013 
Q 2047 2034 1813 2034 
L 1109 2034 
L 1109 0 
L 503 0 
z
M 1109 2559 
L 2413 2559 
Q 2828 2559 3062 2645 
Q 3297 2731 3419 2920 
Q 3541 3109 3541 3331 
Q 3541 3656 3305 3865 
Q 3069 4075 2559 4075 
L 1109 4075 
L 1109 2559 
z
" transform="scale(0.015625)"/>
       <path id="ArialMT-65" d="M 2694 1069 
L 3275 997 
Q 3138 488 2766 206 
Q 2394 -75 1816 -75 
Q 1088 -75 661 373 
Q 234 822 234 1631 
Q 234 2469 665 2931 
Q 1097 3394 1784 3394 
Q 2450 3394 2872 2941 
Q 3294 2488 3294 1666 
Q 3294 1616 3291 1516 
L 816 1516 
Q 847 969 1125 678 
Q 1403 388 1819 388 
Q 2128 388 2347 550 
Q 2566 713 2694 1069 
z
M 847 1978 
L 2700 1978 
Q 2663 2397 2488 2606 
Q 2219 2931 1791 2931 
Q 1403 2931 1139 2672 
Q 875 2413 847 1978 
z
" transform="scale(0.015625)"/>
       <path id="ArialMT-76" d="M 1344 0 
L 81 3319 
L 675 3319 
L 1388 1331 
Q 1503 1009 1600 663 
Q 1675 925 1809 1294 
L 2547 3319 
L 3125 3319 
L 1869 0 
L 1344 0 
z
" transform="scale(0.015625)"/>
       <path id="ArialMT-75" d="M 2597 0 
L 2597 488 
Q 2209 -75 1544 -75 
Q 1250 -75 995 37 
Q 741 150 617 320 
Q 494 491 444 738 
Q 409 903 409 1263 
L 409 3319 
L 972 3319 
L 972 1478 
Q 972 1038 1006 884 
Q 1059 663 1231 536 
Q 1403 409 1656 409 
Q 1909 409 2131 539 
Q 2353 669 2445 892 
Q 2538 1116 2538 1541 
L 2538 3319 
L 3100 3319 
L 3100 0 
L 2597 0 
z
" transform="scale(0.015625)"/>
       <path id="ArialMT-20" transform="scale(0.015625)"/>
       <path id="ArialMT-28" d="M 1497 -1347 
Q 1031 -759 709 28 
Q 388 816 388 1659 
Q 388 2403 628 3084 
Q 909 3875 1497 4659 
L 1900 4659 
Q 1522 4009 1400 3731 
Q 1209 3300 1100 2831 
Q 966 2247 966 1656 
Q 966 153 1900 -1347 
L 1497 -1347 
z
" transform="scale(0.015625)"/>
       <path id="ArialMT-24" d="M 1594 -659 
L 1594 -97 
Q 1172 -44 908 92 
Q 644 228 451 531 
Q 259 834 228 1272 
L 794 1378 
Q 859 925 1025 713 
Q 1263 413 1594 378 
L 1594 2169 
Q 1247 2234 884 2438 
Q 616 2588 470 2853 
Q 325 3119 325 3456 
Q 325 4056 750 4428 
Q 1034 4678 1594 4734 
L 1594 5003 
L 1925 5003 
L 1925 4734 
Q 2416 4688 2703 4447 
Q 3072 4141 3147 3606 
L 2566 3519 
Q 2516 3850 2358 4026 
Q 2200 4203 1925 4259 
L 1925 2638 
Q 2350 2531 2488 2472 
Q 2750 2356 2915 2190 
Q 3081 2025 3170 1797 
Q 3259 1569 3259 1303 
Q 3259 719 2887 328 
Q 2516 -63 1925 -91 
L 1925 -659 
L 1594 -659 
z
M 1594 4266 
Q 1266 4216 1077 4003 
Q 888 3791 888 3500 
Q 888 3213 1048 3019 
Q 1209 2825 1594 2709 
L 1594 4266 
z
M 1925 378 
Q 2253 419 2467 662 
Q 2681 906 2681 1266 
Q 2681 1572 2529 1758 
Q 2378 1944 1925 2091 
L 1925 378 
z
" transform="scale(0.015625)"/>
       <path id="ArialMT-69" d="M 425 3934 
L 425 4581 
L 988 4581 
L 988 3934 
L 425 3934 
z
M 425 0 
L 425 3319 
L 988 3319 
L 988 0 
L 425 0 
z
" transform="scale(0.015625)"/>
       <path id="ArialMT-6c" d="M 409 0 
L 409 4581 
L 972 4581 
L 972 0 
L 409 0 
z
" transform="scale(0.015625)"/>
       <path id="ArialMT-73" d="M 197 991 
L 753 1078 
Q 800 744 1014 566 
Q 1228 388 1613 388 
Q 2000 388 2187 545 
Q 2375 703 2375 916 
Q 2375 1106 2209 1216 
Q 2094 1291 1634 1406 
Q 1016 1563 777 1677 
Q 538 1791 414 1992 
Q 291 2194 291 2438 
Q 291 2659 392 2848 
Q 494 3038 669 3163 
Q 800 3259 1026 3326 
Q 1253 3394 1513 3394 
Q 1903 3394 2198 3281 
Q 2494 3169 2634 2976 
Q 2775 2784 2828 2463 
L 2278 2388 
Q 2241 2644 2061 2787 
Q 1881 2931 1553 2931 
Q 1166 2931 1000 2803 
Q 834 2675 834 2503 
Q 834 2394 903 2306 
Q 972 2216 1119 2156 
Q 1203 2125 1616 2013 
Q 2213 1853 2448 1751 
Q 2684 1650 2818 1456 
Q 2953 1263 2953 975 
Q 2953 694 2789 445 
Q 2625 197 2315 61 
Q 2006 -75 1616 -75 
Q 969 -75 630 194 
Q 291 463 197 991 
z
" transform="scale(0.015625)"/>
       <path id="ArialMT-29" d="M 791 -1347 
L 388 -1347 
Q 1322 153 1322 1656 
Q 1322 2244 1188 2822 
Q 1081 3291 891 3722 
Q 769 4003 388 4659 
L 791 4659 
Q 1378 3875 1659 3084 
Q 1900 2403 1900 1659 
Q 1900 816 1576 28 
Q 1253 -759 791 -1347 
z
" transform="scale(0.015625)"/>
      </defs>
      <use xlink:href="#ArialMT-52"/>
      <use xlink:href="#ArialMT-65" transform="translate(72.216797 0)"/>
      <use xlink:href="#ArialMT-76" transform="translate(127.832031 0)"/>
      <use xlink:href="#ArialMT-65" transform="translate(177.832031 0)"/>
      <use xlink:href="#ArialMT-6e" transform="translate(233.447266 0)"/>
      <use xlink:href="#ArialMT-75" transform="translate(289.0625 0)"/>
      <use xlink:href="#ArialMT-65" transform="translate(344.677734 0)"/>
      <use xlink:href="#ArialMT-20" transform="translate(400.292969 0)"/>
      <use xlink:href="#ArialMT-28" transform="translate(428.076172 0)"/>
      <use xlink:href="#ArialMT-24" transform="translate(461.376953 0)"/>
      <use xlink:href="#ArialMT-20" transform="translate(516.992188 0)"/>
      <use xlink:href="#ArialMT-4d" transform="translate(544.775391 0)"/>
      <use xlink:href="#ArialMT-69" transform="translate(628.076172 0)"/>
      <use xlink:href="#ArialMT-6c" transform="translate(650.292969 0)"/>
      <use xlink:href="#ArialMT-6c" transform="translate(672.509766 0)"/>
      <use xlink:href="#ArialMT-69" transform="translate(694.726562 0)"/>
      <use xlink:href="#ArialMT-6f" transform="translate(716.943359 0)"/>
      <use xlink:href="#ArialMT-6e" transform="translate(772.558594 0)"/>
      <use xlink:href="#ArialMT-73" transform="translate(828.173828 0)"/>
      <use xlink:href="#ArialMT-29" transform="translate(878.173828 0)"/>
     </g>
    </g>
   </g>
   <g id="FillBetweenPolyCollection_1">
    <defs>
     <path id="m586b5d9eca" d="M 69.530881 -51.398054 
L 69.530881 -234.236545 
L 120.980699 -204.935938 
L 172.430516 -167.705953 
L 218.90132 -210.812847 
L 270.351138 -170.916201 
L 320.141284 -222.627665 
L 371.591102 -220.680183 
L 421.381248 -211.227036 
L 472.831066 -220.077966 
L 524.280884 -286.53881 
L 574.07103 -307.645693 
L 625.520848 -386.127884 
L 675.310994 -193.35707 
L 675.310994 -51.398054 
L 675.310994 -51.398054 
L 625.520848 -51.398054 
L 574.07103 -51.398054 
L 524.280884 -51.398054 
L 472.831066 -51.398054 
L 421.381248 -51.398054 
L 371.591102 -51.398054 
L 320.141284 -51.398054 
L 270.351138 -51.398054 
L 218.90132 -51.398054 
L 172.430516 -51.398054 
L 120.980699 -51.398054 
L 69.530881 -51.398054 
z
" style="stroke: #3c5488; stroke-opacity: 0.3"/>
    </defs>
    <g clip-path="url(#pef9ef76d85)">
     <use xlink:href="#m586b5d9eca" x="0" y="424.8" style="fill: #3c5488; fill-opacity: 0.3; stroke: #3c5488; stroke-opacity: 0.3"/>
    </g>
   </g>
   <g id="line2d_15">
    <path d="M 69.530881 190.563455 
L 120.980699 219.864062 
L 172.430516 257.094047 
L 218.90132 213.987153 
L 270.351138 253.883799 
L 320.141284 202.172335 
L 371.591102 204.119817 
L 421.381248 213.572964 
L 472.831066 204.722034 
L 524.280884 138.26119 
L 574.07103 117.154307 
L 625.520848 38.672116 
L 675.310994 231.44293 
" clip-path="url(#pef9ef76d85)" style="fill: none; stroke: #3c5488; stroke-width: 2; stroke-linecap: round"/>
    <defs>
     <path id="m6c2fd13c95" d="M 0 3 
C 0.795609 3 1.55874 2.683901 2.12132 2.12132 
C 2.683901 1.55874 3 0.795609 3 0 
C 3 -0.795609 2.683901 -1.55874 2.12132 -2.12132 
C 1.55874 -2.683901 0.795609 -3 0 -3 
C -0.795609 -3 -1.55874 -2.683901 -2.12132 -2.12132 
C -2.683901 -1.55874 -3 -0.795609 -3 0 
C -3 0.795609 -2.683901 1.55874 -2.12132 2.12132 
C -1.55874 2.683901 -0.795609 3 0 3 
z
" style="stroke: #3c5488"/>
    </defs>
    <g clip-path="url(#pef9ef76d85)">
     <use xlink:href="#m6c2fd13c95" x="69.530881" y="190.563455" style="fill: #3c5488; stroke: #3c5488"/>
     <use xlink:href="#m6c2fd13c95" x="120.980699" y="219.864062" style="fill: #3c5488; stroke: #3c5488"/>
     <use xlink:href="#m6c2fd13c95" x="172.430516" y="257.094047" style="fill: #3c5488; stroke: #3c5488"/>
     <use xlink:href="#m6c2fd13c95" x="218.90132" y="213.987153" style="fill: #3c5488; stroke: #3c5488"/>
     <use xlink:href="#m6c2fd13c95" x="270.351138" y="253.883799" style="fill: #3c5488; stroke: #3c5488"/>
     <use xlink:href="#m6c2fd13c95" x="320.141284" y="202.172335" style="fill: #3c5488; stroke: #3c5488"/>
     <use xlink:href="#m6c2fd13c95" x="371.591102" y="204.119817" style="fill: #3c5488; stroke: #3c5488"/>
     <use xlink:href="#m6c2fd13c95" x="421.381248" y="213.572964" style="fill: #3c5488; stroke: #3c5488"/>
     <use xlink:href="#m6c2fd13c95" x="472.831066" y="204.722034" style="fill: #3c5488; stroke: #3c5488"/>
     <use xlink:href="#m6c2fd13c95" x="524.280884" y="138.26119" style="fill: #3c5488; stroke: #3c5488"/>
     <use xlink:href="#m6c2fd13c95" x="574.07103" y="117.154307" style="fill: #3c5488; stroke: #3c5488"/>
     <use xlink:href="#m6c2fd13c95" x="625.520848" y="38.672116" style="fill: #3c5488; stroke: #3c5488"/>
     <use xlink:href="#m6c2fd13c95" x="675.310994" y="231.44293" style="fill: #3c5488; stroke: #3c5488"/>
    </g>
   </g>
   <g id="line2d_16">
    <path d="M 69.530881 241.78241 
L 120.980699 233.350858 
L 172.430516 224.919305 
L 218.90132 216.487752 
L 270.351138 208.056199 
L 320.141284 199.624646 
L 371.591102 191.193093 
L 421.381248 182.76154 
L 472.831066 174.329987 
L 524.280884 165.898434 
L 574.07103 157.466881 
L 625.520848 149.035328 
L 675.310994 140.603776 
" clip-path="url(#pef9ef76d85)" style="fill: none; stroke-dasharray: 5.55,2.4; stroke-dashoffset: 0; stroke: #e64b35; stroke-opacity: 0.7; stroke-width: 1.5"/>
   </g>
   <g id="patch_3">
    <path d="M 39.241875 390.138437 
L 39.241875 21.935625 
" style="fill: none; stroke: #cccccc; stroke-width: 0.6; stroke-linejoin: miter; stroke-linecap: square"/>
   </g>
   <g id="patch_4">
    <path d="M 39.241875 390.138437 
L 705.6 390.138437 
" style="fill: none; stroke: #cccccc; stroke-width: 0.6; stroke-linejoin: miter; stroke-linecap: square"/>
   </g>
   <g id="text_17">
    <!-- Monthly Sales Trend -->
    <g style="fill: #262626" transform="translate(314.079375 15.935625) scale(0.12 -0.12)">
     <defs>
      <path id="Arial-BoldMT-4d" d="M 453 0 
L 453 4581 
L 1838 4581 
L 2669 1456 
L 3491 4581 
L 4878 4581 
L 4878 0 
L 4019 0 
L 4019 3606 
L 3109 0 
L 2219 0 
L 1313 3606 
L 1313 0 
L 453 0 
z
" transform="scale(0.015625)"/>
      <path id="Arial-BoldMT-6f" d="M 256 1706 
Q 256 2144 472 2553 
Q 688 2963 1083 3178 
Q 1478 3394 1966 3394 
Q 2719 3394 3200 2905 
Q 3681 2416 3681 1669 
Q 3681 916 3195 420 
Q 2709 -75 1972 -75 
Q 1516 -75 1102 131 
Q 688 338 472 736 
Q 256 1134 256 1706 
z
M 1156 1659 
Q 1156 1166 1390 903 
Q 1625 641 1969 641 
Q 2313 641 2545 903 
Q 2778 1166 2778 1666 
Q 2778 2153 2545 2415 
Q 2313 2678 1969 2678 
Q 1625 2678 1390 2415 
Q 1156 2153 1156 1659 
z
" transform="scale(0.015625)"/>
      <path id="Arial-BoldMT-6e" d="M 3478 0 
L 2600 0 
L 2600 1694 
Q 2600 2231 2544 2389 
Q 2488 2547 2361 2634 
Q 2234 2722 2056 2722 
Q 1828 2722 1647 2597 
Q 1466 2472 1398 2265 
Q 1331 2059 1331 1503 
L 1331 0 
L 453 0 
L 453 3319 
L 1269 3319 
L 1269 2831 
Q 1703 3394 2363 3394 
Q 2653 3394 2893 3289 
Q 3134 3184 3257 3021 
Q 3381 2859 3429 2653 
Q 3478 2447 3478 2063 
L 3478 0 
z
" transform="scale(0.015625)"/>
      <path id="Arial-BoldMT-74" d="M 1981 3319 
L 1981 2619 
L 1381 2619 
L 1381 1281 
Q 1381 875 1398 808 
Q 1416 741 1477 697 
Q 1538 653 1625 653 
Q 1747 653 1978 738 
L 2053 56 
Q 1747 -75 1359 -75 
Q 1122 -75 931 4 
Q 741 84 652 211 
Q 563 338 528 553 
Q 500 706 500 1172 
L 500 2619 
L 97 2619 
L 97 3319 
L 500 3319 
L 500 3978 
L 1381 4491 
L 1381 3319 
L 1981 3319 
z
" transform="scale(0.015625)"/>
      <path id="Arial-BoldMT-68" d="M 1334 4581 
L 1334 2897 
Q 1759 3394 2350 3394 
Q 2653 3394 2897 3281 
Q 3141 3169 3264 2994 
Q 3388 2819 3433 2606 
Q 3478 2394 3478 1947 
L 3478 0 
L 2600 0 
L 2600 1753 
Q 2600 2275 2550 2415 
Q 2500 2556 2373 2639 
Q 2247 2722 2056 2722 
Q 1838 2722 1666 2615 
Q 1494 2509 1414 2295 
Q 1334 2081 1334 1663 
L 1334 0 
L 456 0 
L 456 4581 
L 1334 4581 
z
" transform="scale(0.015625)"/>
      <path id="Arial-BoldMT-6c" d="M 459 0 
L 459 4581 
L 1338 4581 
L 1338 0 
L 459 0 
z
" transform="scale(0.015625)"/>
      <path id="Arial-BoldMT-79" d="M 44 3319 
L 978 3319 
L 1772 963 
L 2547 3319 
L 3456 3319 
L 2284 125 
L 2075 -453 
Q 1959 -744 1854 -897 
Q 1750 -1050 1614 -1145 
Q 1478 -1241 1279 -1294 
Q 1081 -1347 831 -1347 
Q 578 -1347 334 -1294 
L 256 -606 
Q 463 -647 628 -647 
Q 934 -647 1081 -467 
Q 1228 -288 1306 -9 
L 44 3319 
z
" transform="scale(0.015625)"/>
      <path id="Arial-BoldMT-20" transform="scale(0.015625)"/>
      <path id="Arial-BoldMT-53" d="M 231 1491 
L 1131 1578 
Q 1213 1125 1461 912 
Q 1709 700 2131 700 
Q 2578 700 2804 889 
Q 3031 1078 3031 1331 
Q 3031 1494 2936 1608 
Q 2841 1722 2603 1806 
Q 2441 1863 1863 2006 
Q 1119 2191 819 2459 
Q 397 2838 397 3381 
Q 397 3731 595 4036 
Q 794 4341 1167 4500 
Q 1541 4659 2069 4659 
Q 2931 4659 3367 4281 
Q 3803 3903 3825 3272 
L 2900 3231 
Q 2841 3584 2645 3739 
Q 2450 3894 2059 3894 
Q 1656 3894 1428 3728 
Q 1281 3622 1281 3444 
Q 1281 3281 1419 3166 
Q 1594 3019 2269 2859 
Q 2944 2700 3267 2529 
Q 3591 2359 3773 2064 
Q 3956 1769 3956 1334 
Q 3956 941 3737 597 
Q 3519 253 3119 86 
Q 2719 -81 2122 -81 
Q 1253 -81 787 320 
Q 322 722 231 1491 
z
" transform="scale(0.015625)"/>
      <path id="Arial-BoldMT-61" d="M 1116 2306 
L 319 2450 
Q 453 2931 781 3162 
Q 1109 3394 1756 3394 
Q 2344 3394 2631 3255 
Q 2919 3116 3036 2902 
Q 3153 2688 3153 2116 
L 3144 1091 
Q 3144 653 3186 445 
Q 3228 238 3344 0 
L 2475 0 
Q 2441 88 2391 259 
Q 2369 338 2359 363 
Q 2134 144 1878 34 
Q 1622 -75 1331 -75 
Q 819 -75 523 203 
Q 228 481 228 906 
Q 228 1188 362 1408 
Q 497 1628 739 1745 
Q 981 1863 1438 1950 
Q 2053 2066 2291 2166 
L 2291 2253 
Q 2291 2506 2166 2614 
Q 2041 2722 1694 2722 
Q 1459 2722 1328 2630 
Q 1197 2538 1116 2306 
z
M 2291 1594 
Q 2122 1538 1756 1459 
Q 1391 1381 1278 1306 
Q 1106 1184 1106 997 
Q 1106 813 1243 678 
Q 1381 544 1594 544 
Q 1831 544 2047 700 
Q 2206 819 2256 991 
Q 2291 1103 2291 1419 
L 2291 1594 
z
" transform="scale(0.015625)"/>
      <path id="Arial-BoldMT-65" d="M 2381 1056 
L 3256 909 
Q 3088 428 2723 176 
Q 2359 -75 1813 -75 
Q 947 -75 531 491 
Q 203 944 203 1634 
Q 203 2459 634 2926 
Q 1066 3394 1725 3394 
Q 2466 3394 2894 2905 
Q 3322 2416 3303 1406 
L 1103 1406 
Q 1113 1016 1316 798 
Q 1519 581 1822 581 
Q 2028 581 2168 693 
Q 2309 806 2381 1056 
z
M 2431 1944 
Q 2422 2325 2234 2523 
Q 2047 2722 1778 2722 
Q 1491 2722 1303 2513 
Q 1116 2303 1119 1944 
L 2431 1944 
z
" transform="scale(0.015625)"/>
      <path id="Arial-BoldMT-73" d="M 150 947 
L 1031 1081 
Q 1088 825 1259 692 
Q 1431 559 1741 559 
Q 2081 559 2253 684 
Q 2369 772 2369 919 
Q 2369 1019 2306 1084 
Q 2241 1147 2013 1200 
Q 950 1434 666 1628 
Q 272 1897 272 2375 
Q 272 2806 612 3100 
Q 953 3394 1669 3394 
Q 2350 3394 2681 3172 
Q 3013 2950 3138 2516 
L 2309 2363 
Q 2256 2556 2107 2659 
Q 1959 2763 1684 2763 
Q 1338 2763 1188 2666 
Q 1088 2597 1088 2488 
Q 1088 2394 1175 2328 
Q 1294 2241 1995 2081 
Q 2697 1922 2975 1691 
Q 3250 1456 3250 1038 
Q 3250 581 2869 253 
Q 2488 -75 1741 -75 
Q 1063 -75 667 200 
Q 272 475 150 947 
z
" transform="scale(0.015625)"/>
      <path id="Arial-BoldMT-54" d="M 1497 0 
L 1497 3806 
L 138 3806 
L 138 4581 
L 3778 4581 
L 3778 3806 
L 2422 3806 
L 2422 0 
L 1497 0 
z
" transform="scale(0.015625)"/>
      <path id="Arial-BoldMT-72" d="M 1300 0 
L 422 0 
L 422 3319 
L 1238 3319 
L 1238 2847 
Q 1447 3181 1614 3287 
Q 1781 3394 1994 3394 
Q 2294 3394 2572 3228 
L 2300 2463 
Q 2078 2606 1888 2606 
Q 1703 2606 1575 2504 
Q 1447 2403 1373 2137 
Q 1300 1872 1300 1025 
L 1300 0 
z
" transform="scale(0.015625)"/>
      <path id="Arial-BoldMT-64" d="M 3503 0 
L 2688 0 
L 2688 488 
Q 2484 203 2207 64 
Q 1931 -75 1650 -75 
Q 1078 -75 670 386 
Q 263 847 263 1672 
Q 263 2516 659 2955 
Q 1056 3394 1663 3394 
Q 2219 3394 2625 2931 
L 2625 4581 
L 3503 4581 
L 3503 0 
z
M 1159 1731 
Q 1159 1200 1306 963 
Q 1519 619 1900 619 
Q 2203 619 2415 876 
Q 2628 1134 2628 1647 
Q 2628 2219 2422 2470 
Q 2216 2722 1894 2722 
Q 1581 2722 1370 2473 
Q 1159 2225 1159 1731 
z
" transform="scale(0.015625)"/>
     </defs>
     <use xlink:href="#Arial-BoldMT-4d"/>
     <use xlink:href="#Arial-BoldMT-6f" transform="translate(83.300781 0)"/>
     <use xlink:href="#Arial-BoldMT-6e" transform="translate(144.384766 0)"/>
     <use xlink:href="#Arial-BoldMT-74" transform="translate(205.46875 0)"/>
     <use xlink:href="#Arial-BoldMT-68" transform="translate(238.769531 0)"/>
     <use xlink:href="#Arial-BoldMT-6c" transform="translate(299.853516 0)"/>
     <use xlink:href="#Arial-BoldMT-79" transform="translate(327.636719 0)"/>
     <use xlink:href="#Arial-BoldMT-20" transform="translate(383.251953 0)"/>
     <use xlink:href="#Arial-BoldMT-53" transform="translate(411.035156 0)"/>
     <use xlink:href="#Arial-BoldMT-61" transform="translate(477.734375 0)"/>
     <use xlink:href="#Arial-BoldMT-6c" transform="translate(533.349609 0)"/>
     <use xlink:href="#Arial-BoldMT-65" transform="translate(561.132812 0)"/>
     <use xlink:href="#Arial-BoldMT-73" transform="translate(616.748047 0)"/>
     <use xlink:href="#Arial-BoldMT-20" transform="translate(672.363281 0)"/>
     <use xlink:href="#Arial-BoldMT-54" transform="translate(700.146484 0)"/>
     <use xlink:href="#Arial-BoldMT-72" transform="translate(755.730469 0)"/>
     <use xlink:href="#Arial-BoldMT-65" transform="translate(794.646484 0)"/>
     <use xlink:href="#Arial-BoldMT-6e" transform="translate(850.261719 0)"/>
     <use xlink:href="#Arial-BoldMT-64" transform="translate(911.345703 0)"/>
    </g>
   </g>
   <g id="legend_1">
    <g id="line2d_17">
     <path d="M 46.441875 32.159375 
L 54.441875 32.159375 
L 62.441875 32.159375 
" style="fill: none; stroke-dasharray: 5.55,2.4; stroke-dashoffset: 0; stroke: #e64b35; stroke-opacity: 0.7; stroke-width: 1.5"/>
    </g>
    <g id="text_18">
     <!-- Trend (R²=0.296) -->
     <g style="fill: #262626" transform="translate(68.841875 34.959375) scale(0.08 -0.08)">
      <defs>
       <path id="ArialMT-54" d="M 1659 0 
L 1659 4041 
L 150 4041 
L 150 4581 
L 3781 4581 
L 3781 4041 
L 2266 4041 
L 2266 0 
L 1659 0 
z
" transform="scale(0.015625)"/>
       <path id="ArialMT-72" d="M 416 0 
L 416 3319 
L 922 3319 
L 922 2816 
Q 1116 3169 1280 3281 
Q 1444 3394 1641 3394 
Q 1925 3394 2219 3213 
L 2025 2691 
Q 1819 2813 1613 2813 
Q 1428 2813 1281 2702 
Q 1134 2591 1072 2394 
Q 978 2094 978 1738 
L 978 0 
L 416 0 
z
" transform="scale(0.015625)"/>
       <path id="ArialMT-64" d="M 2575 0 
L 2575 419 
Q 2259 -75 1647 -75 
Q 1250 -75 917 144 
Q 584 363 401 755 
Q 219 1147 219 1656 
Q 219 2153 384 2558 
Q 550 2963 881 3178 
Q 1213 3394 1622 3394 
Q 1922 3394 2156 3267 
Q 2391 3141 2538 2938 
L 2538 4581 
L 3097 4581 
L 3097 0 
L 2575 0 
z
M 797 1656 
Q 797 1019 1065 703 
Q 1334 388 1700 388 
Q 2069 388 2326 689 
Q 2584 991 2584 1609 
Q 2584 2291 2321 2609 
Q 2059 2928 1675 2928 
Q 1300 2928 1048 2622 
Q 797 2316 797 1656 
z
" transform="scale(0.015625)"/>
       <path id="ArialMT-b2" d="M 78 2291 
Q 97 2469 225 2647 
Q 422 2916 872 3242 
Q 1322 3569 1406 3663 
Q 1522 3791 1522 3925 
Q 1522 4075 1412 4172 
Q 1303 4269 1091 4269 
Q 884 4269 782 4195 
Q 681 4122 616 3913 
L 144 3963 
Q 234 4309 457 4473 
Q 681 4638 1100 4638 
Q 1572 4638 1792 4453 
Q 2013 4269 2013 4003 
Q 2013 3741 1828 3506 
Q 1688 3331 1188 2972 
Q 928 2781 819 2669 
L 2025 2669 
L 2025 2291 
L 78 2291 
z
" transform="scale(0.015625)"/>
       <path id="ArialMT-3d" d="M 3381 2694 
L 356 2694 
L 356 3219 
L 3381 3219 
L 3381 2694 
z
M 3381 1303 
L 356 1303 
L 356 1828 
L 3381 1828 
L 3381 1303 
z
" transform="scale(0.015625)"/>
      </defs>
      <use xlink:href="#ArialMT-54"/>
      <use xlink:href="#ArialMT-72" transform="translate(57.333984 0)"/>
      <use xlink:href="#ArialMT-65" transform="translate(90.634766 0)"/>
      <use xlink:href="#ArialMT-6e" transform="translate(146.25 0)"/>
      <use xlink:href="#ArialMT-64" transform="translate(201.865234 0)"/>
      <use xlink:href="#ArialMT-20" transform="translate(257.480469 0)"/>
      <use xlink:href="#ArialMT-28" transform="translate(285.263672 0)"/>
      <use xlink:href="#ArialMT-52" transform="translate(318.564453 0)"/>
      <use xlink:href="#ArialMT-b2" transform="translate(390.78125 0)"/>
      <use xlink:href="#ArialMT-3d" transform="translate(424.082031 0)"/>
      <use xlink:href="#ArialMT-30" transform="translate(482.480469 0)"/>
      <use xlink:href="#ArialMT-2e" transform="translate(538.095703 0)"/>
      <use xlink:href="#ArialMT-32" transform="translate(565.878906 0)"/>
      <use xlink:href="#ArialMT-39" transform="translate(621.494141 0)"/>
      <use xlink:href="#ArialMT-36" transform="translate(677.109375 0)"/>
      <use xlink:href="#ArialMT-29" transform="translate(732.724609 0)"/>
     </g>
    </g>
   </g>
  </g>
 </g>
 <defs>
  <clipPath id="pef9ef76d85">
   <rect x="39.241875" y="21.935625" width="666.358125" height="368.202812"/>
  </clipPath>
 </defs>
</svg>
