<?xml version="1.0" encoding="utf-8" standalone="no"?>
<!DOCTYPE svg PUBLIC "-//W3C//DTD SVG 1.1//EN"
  "http://www.w3.org/Graphics/SVG/1.1/DTD/svg11.dtd">
<svg xmlns:xlink="http://www.w3.org/1999/xlink" width="856.743438pt" height="737.87625pt" viewBox="0 0 856.743438 737.87625" xmlns="http://www.w3.org/2000/svg" version="1.1">
 <metadata>
  <rdf:RDF xmlns:dc="http://purl.org/dc/elements/1.1/" xmlns:cc="http://creativecommons.org/ns#" xmlns:rdf="http://www.w3.org/1999/02/22-rdf-syntax-ns#">
   <cc:Work>
    <dc:type rdf:resource="http://purl.org/dc/dcmitype/StillImage"/>
    <dc:date>2026-03-17T00:11:56.928770</dc:date>
    <dc:format>image/svg+xml</dc:format>
    <dc:creator>
     <cc:Agent>
      <dc:title>Matplotlib v3.10.8, https://matplotlib.org/</dc:title>
     </cc:Agent>
    </dc:creator>
   </cc:Work>
  </rdf:RDF>
 </metadata>
 <defs>
  <style type="text/css">*{stroke-linejoin: round; stroke-linecap: butt}</style>
 </defs>
 <g id="figure_1">
  <g id="patch_1">
   <path d="M 0 737.87625 
L 856.743438 737.87625 
L 856.743438 0 
L 0 0 
z
" style="fill: #ffffff"/>
  </g>
  <g id="axes_1">
   <g id="patch_2">
    <path d="M 49.373438 373.52375 
L 427.428438 373.52375 
L 427.428438 69.6075 
L 49.373438 69.6075 
z
" style="fill: #ffffff"/>
   </g>
   <g id="matplotlib.axis_1">
    <g id="xtick_1">
     <g id="line2d_1">
      <path d="M 102.735268 373.52375 
L 102.735268 69.6075 
" clip-path="url(#p98b72f7942)" style="fill: none; stroke-dasharray: 1.85,0.8; stroke-dashoffset: 0; stroke: #cccccc; stroke-opacity: 0.25; stroke-width: 0.5"/>
     </g>
     <g id="text_1">
      <!-- C0 -->
      <g style="fill: #262626" transform="translate(97.622143 386.25) scale(0.08 -0.08)">
       <defs>
        <path id="ArialMT-43" d="M 3763 1606 
L 4369 1453 
Q 4178 706 3683 314 
Q 3188 -78 2472 -78 
Q 1731 -78 1267 223 
Q 803 525 561 1097 
Q 319 1669 319 2325 
Q 319 3041 592 3573 
Q 866 4106 1370 4382 
Q 1875 4659 2481 4659 
Q 3169 4659 3637 4309 
Q 4106 3959 4291 3325 
L 3694 3184 
Q 3534 3684 3231 3912 
Q 2928 4141 2469 4141 
Q 1941 4141 1586 3887 
Q 1231 3634 1087 3207 
Q 944 2781 944 2328 
Q 944 1744 1114 1308 
Q 1284 872 1643 656 
Q 2003 441 2422 441 
Q 2931 441 3284 734 
Q 3638 1028 3763 1606 
z
" transform="scale(0.015625)"/>
        <path id="ArialMT-30" d="M 266 2259 
Q 266 3072 433 3567 
Q 600 4063 929 4331 
Q 1259 4600 1759 4600 
Q 2128 4600 2406 4451 
Q 2684 4303 2865 4023 
Q 3047 3744 3150 3342 
Q 3253 2941 3253 2259 
Q 3253 1453 3087 958 
Q 2922 463 2592 192 
Q 2263 -78 1759 -78 
Q 1097 -78 719 397 
Q 266 969 266 2259 
z
M 844 2259 
Q 844 1131 1108 757 
Q 1372 384 1759 384 
Q 2147 384 2411 759 
Q 2675 1134 2675 2259 
Q 2675 3391 2411 3762 
Q 2147 4134 1753 4134 
Q 1366 4134 1134 3806 
Q 844 3388 844 2259 
z
" transform="scale(0.015625)"/>
       </defs>
       <use xlink:href="#ArialMT-43"/>
       <use xlink:href="#ArialMT-30" transform="translate(72.216797 0)"/>
      </g>
     </g>
    </g>
    <g id="xtick_2">
     <g id="line2d_2">
      <path d="M 193.179048 373.52375 
L 193.179048 69.6075 
" clip-path="url(#p98b72f7942)" style="fill: none; stroke-dasharray: 1.85,0.8; stroke-dashoffset: 0; stroke: #cccccc; stroke-opacity: 0.25; stroke-width: 0.5"/>
     </g>
     <g id="text_2">
      <!-- C1 -->
      <g style="fill: #262626" transform="translate(188.065923 386.25) scale(0.08 -0.08)">
       <defs>
        <path id="ArialMT-31" d="M 2384 0 
L 1822 0 
L 1822 3584 
Q 1619 3391 1289 3197 
Q 959 3003 697 2906 
L 697 3450 
Q 1169 3672 1522 3987 
Q 1875 4303 2022 4600 
L 2384 4600 
L 2384 0 
z
" transform="scale(0.015625)"/>
       </defs>
       <use xlink:href="#ArialMT-43"/>
       <use xlink:href="#ArialMT-31" transform="translate(72.216797 0)"/>
      </g>
     </g>
    </g>
    <g id="xtick_3">
     <g id="line2d_3">
      <path d="M 283.622827 373.52375 
L 283.622827 69.6075 
" clip-path="url(#p98b72f7942)" style="fill: none; stroke-dasharray: 1.85,0.8; stroke-dashoffset: 0; stroke: #cccccc; stroke-opacity: 0.25; stroke-width: 0.5"/>
     </g>
     <g id="text_3">
      <!-- C2 -->
      <g style="fill: #262626" transform="translate(278.509702 386.25) scale(0.08 -0.08)">
       <defs>
        <path id="ArialMT-32" d="M 3222 541 
L 3222 0 
L 194 0 
Q 188 203 259 391 
Q 375 700 629 1000 
Q 884 1300 1366 1694 
Q 2113 2306 2375 2664 
Q 2638 3022 2638 3341 
Q 2638 3675 2398 3904 
Q 2159 4134 1775 4134 
Q 1369 4134 1125 3890 
Q 881 3647 878 3216 
L 300 3275 
Q 359 3922 746 4261 
Q 1134 4600 1788 4600 
Q 2447 4600 2831 4234 
Q 3216 3869 3216 3328 
Q 3216 3053 3103 2787 
Q 2991 2522 2730 2228 
Q 2469 1934 1863 1422 
Q 1356 997 1212 845 
Q 1069 694 975 541 
L 3222 541 
z
" transform="scale(0.015625)"/>
       </defs>
       <use xlink:href="#ArialMT-43"/>
       <use xlink:href="#ArialMT-32" transform="translate(72.216797 0)"/>
      </g>
     </g>
    </g>
    <g id="xtick_4">
     <g id="line2d_4">
      <path d="M 374.066607 373.52375 
L 374.066607 69.6075 
" clip-path="url(#p98b72f7942)" style="fill: none; stroke-dasharray: 1.85,0.8; stroke-dashoffset: 0; stroke: #cccccc; stroke-opacity: 0.25; stroke-width: 0.5"/>
     </g>
     <g id="text_4">
      <!-- C3 -->
      <g style="fill: #262626" transform="translate(368.953482 386.25) scale(0.08 -0.08)">
       <defs>
        <path id="ArialMT-33" d="M 269 1209 
L 831 1284 
Q 928 806 1161 595 
Q 1394 384 1728 384 
Q 2125 384 2398 659 
Q 2672 934 2672 1341 
Q 2672 1728 2419 1979 
Q 2166 2231 1775 2231 
Q 1616 2231 1378 2169 
L 1441 2663 
Q 1497 2656 1531 2656 
Q 1891 2656 2178 2843 
Q 2466 3031 2466 3422 
Q 2466 3731 2256 3934 
Q 2047 4138 1716 4138 
Q 1388 4138 1169 3931 
Q 950 3725 888 3313 
L 325 3413 
Q 428 3978 793 4289 
Q 1159 4600 1703 4600 
Q 2078 4600 2393 4439 
Q 2709 4278 2876 4000 
Q 3044 3722 3044 3409 
Q 3044 3113 2884 2869 
Q 2725 2625 2413 2481 
Q 2819 2388 3044 2092 
Q 3269 1797 3269 1353 
Q 3269 753 2831 336 
Q 2394 -81 1725 -81 
Q 1122 -81 723 278 
Q 325 638 269 1209 
z
" transform="scale(0.015625)"/>
       </defs>
       <use xlink:href="#ArialMT-43"/>
       <use xlink:href="#ArialMT-33" transform="translate(72.216797 0)"/>
      </g>
     </g>
    </g>
   </g>
   <g id="matplotlib.axis_2">
    <g id="ytick_1">
     <g id="line2d_5">
      <path d="M 49.373438 373.52375 
L 427.428438 373.52375 
" clip-path="url(#p98b72f7942)" style="fill: none; stroke-dasharray: 1.85,0.8; stroke-dashoffset: 0; stroke: #cccccc; stroke-opacity: 0.25; stroke-width: 0.5"/>
     </g>
     <g id="text_5">
      <!-- 0 -->
      <g style="fill: #262626" transform="translate(37.924688 376.386875) scale(0.08 -0.08)">
       <use xlink:href="#ArialMT-30"/>
      </g>
     </g>
    </g>
    <g id="ytick_2">
     <g id="line2d_6">
      <path d="M 49.373438 316.193309 
L 427.428438 316.193309 
" clip-path="url(#p98b72f7942)" style="fill: none; stroke-dasharray: 1.85,0.8; stroke-dashoffset: 0; stroke: #cccccc; stroke-opacity: 0.25; stroke-width: 0.5"/>
     </g>
     <g id="text_6">
      <!-- 50 -->
      <g style="fill: #262626" transform="translate(33.475938 319.056434) scale(0.08 -0.08)">
       <defs>
        <path id="ArialMT-35" d="M 266 1200 
L 856 1250 
Q 922 819 1161 601 
Q 1400 384 1738 384 
Q 2144 384 2425 690 
Q 2706 997 2706 1503 
Q 2706 1984 2436 2262 
Q 2166 2541 1728 2541 
Q 1456 2541 1237 2417 
Q 1019 2294 894 2097 
L 366 2166 
L 809 4519 
L 3088 4519 
L 3088 3981 
L 1259 3981 
L 1013 2750 
Q 1425 3038 1878 3038 
Q 2478 3038 2890 2622 
Q 3303 2206 3303 1553 
Q 3303 931 2941 478 
Q 2500 -78 1738 -78 
Q 1113 -78 717 272 
Q 322 622 266 1200 
z
" transform="scale(0.015625)"/>
       </defs>
       <use xlink:href="#ArialMT-35"/>
       <use xlink:href="#ArialMT-30" transform="translate(55.615234 0)"/>
      </g>
     </g>
    </g>
    <g id="ytick_3">
     <g id="line2d_7">
      <path d="M 49.373438 258.862868 
L 427.428438 258.862868 
" clip-path="url(#p98b72f7942)" style="fill: none; stroke-dasharray: 1.85,0.8; stroke-dashoffset: 0; stroke: #cccccc; stroke-opacity: 0.25; stroke-width: 0.5"/>
     </g>
     <g id="text_7">
      <!-- 100 -->
      <g style="fill: #262626" transform="translate(29.027188 261.725993) scale(0.08 -0.08)">
       <use xlink:href="#ArialMT-31"/>
       <use xlink:href="#ArialMT-30" transform="translate(55.615234 0)"/>
       <use xlink:href="#ArialMT-30" transform="translate(111.230469 0)"/>
      </g>
     </g>
    </g>
    <g id="ytick_4">
     <g id="line2d_8">
      <path d="M 49.373438 201.532427 
L 427.428438 201.532427 
" clip-path="url(#p98b72f7942)" style="fill: none; stroke-dasharray: 1.85,0.8; stroke-dashoffset: 0; stroke: #cccccc; stroke-opacity: 0.25; stroke-width: 0.5"/>
     </g>
     <g id="text_8">
      <!-- 150 -->
      <g style="fill: #262626" transform="translate(29.027188 204.395552) scale(0.08 -0.08)">
       <use xlink:href="#ArialMT-31"/>
       <use xlink:href="#ArialMT-35" transform="translate(55.615234 0)"/>
       <use xlink:href="#ArialMT-30" transform="translate(111.230469 0)"/>
      </g>
     </g>
    </g>
    <g id="ytick_5">
     <g id="line2d_9">
      <path d="M 49.373438 144.201986 
L 427.428438 144.201986 
" clip-path="url(#p98b72f7942)" style="fill: none; stroke-dasharray: 1.85,0.8; stroke-dashoffset: 0; stroke: #cccccc; stroke-opacity: 0.25; stroke-width: 0.5"/>
     </g>
     <g id="text_9">
      <!-- 200 -->
      <g style="fill: #262626" transform="translate(29.027188 147.065111) scale(0.08 -0.08)">
       <use xlink:href="#ArialMT-32"/>
       <use xlink:href="#ArialMT-30" transform="translate(55.615234 0)"/>
       <use xlink:href="#ArialMT-30" transform="translate(111.230469 0)"/>
      </g>
     </g>
    </g>
    <g id="ytick_6">
     <g id="line2d_10">
      <path d="M 49.373438 86.871545 
L 427.428438 86.871545 
" clip-path="url(#p98b72f7942)" style="fill: none; stroke-dasharray: 1.85,0.8; stroke-dashoffset: 0; stroke: #cccccc; stroke-opacity: 0.25; stroke-width: 0.5"/>
     </g>
     <g id="text_10">
      <!-- 250 -->
      <g style="fill: #262626" transform="translate(29.027188 89.73467) scale(0.08 -0.08)">
       <use xlink:href="#ArialMT-32"/>
       <use xlink:href="#ArialMT-35" transform="translate(55.615234 0)"/>
       <use xlink:href="#ArialMT-30" transform="translate(111.230469 0)"/>
      </g>
     </g>
    </g>
    <g id="text_11">
     <!-- Recency (days) -->
     <g style="fill: #262626" transform="translate(23.132969 252.824453) rotate(-90) scale(0.09 -0.09)">
      <defs>
       <path id="ArialMT-52" d="M 503 0 
L 503 4581 
L 2534 4581 
Q 3147 4581 3465 4457 
Q 3784 4334 3975 4021 
Q 4166 3709 4166 3331 
Q 4166 2844 3850 2509 
Q 3534 2175 2875 2084 
Q 3116 1969 3241 1856 
Q 3506 1613 3744 1247 
L 4541 0 
L 3778 0 
L 3172 953 
Q 2906 1366 2734 1584 
Q 2563 1803 2427 1890 
Q 2291 1978 2150 2013 
Q 2047 2034 1813 2034 
L 1109 2034 
L 1109 0 
L 503 0 
z
M 1109 2559 
L 2413 2559 
Q 2828 2559 3062 2645 
Q 3297 2731 3419 2920 
Q 3541 3109 3541 3331 
Q 3541 3656 3305 3865 
Q 3069 4075 2559 4075 
L 1109 4075 
L 1109 2559 
z
" transform="scale(0.015625)"/>
       <path id="ArialMT-65" d="M 2694 1069 
L 3275 997 
Q 3138 488 2766 206 
Q 2394 -75 1816 -75 
Q 1088 -75 661 373 
Q 234 822 234 1631 
Q 234 2469 665 2931 
Q 1097 3394 1784 3394 
Q 2450 3394 2872 2941 
Q 3294 2488 3294 1666 
Q 3294 1616 3291 1516 
L 816 1516 
Q 847 969 1125 678 
Q 1403 388 1819 388 
Q 2128 388 2347 550 
Q 2566 713 2694 1069 
z
M 847 1978 
L 2700 1978 
Q 2663 2397 2488 2606 
Q 2219 2931 1791 2931 
Q 1403 2931 1139 2672 
Q 875 2413 847 1978 
z
" transform="scale(0.015625)"/>
       <path id="ArialMT-63" d="M 2588 1216 
L 3141 1144 
Q 3050 572 2676 248 
Q 2303 -75 1759 -75 
Q 1078 -75 664 370 
Q 250 816 250 1647 
Q 250 2184 428 2587 
Q 606 2991 970 3192 
Q 1334 3394 1763 3394 
Q 2303 3394 2647 3120 
Q 2991 2847 3088 2344 
L 2541 2259 
Q 2463 2594 2264 2762 
Q 2066 2931 1784 2931 
Q 1359 2931 1093 2626 
Q 828 2322 828 1663 
Q 828 994 1084 691 
Q 1341 388 1753 388 
Q 2084 388 2306 591 
Q 2528 794 2588 1216 
z
" transform="scale(0.015625)"/>
       <path id="ArialMT-6e" d="M 422 0 
L 422 3319 
L 928 3319 
L 928 2847 
Q 1294 3394 1984 3394 
Q 2284 3394 2536 3286 
Q 2788 3178 2913 3003 
Q 3038 2828 3088 2588 
Q 3119 2431 3119 2041 
L 3119 0 
L 2556 0 
L 2556 2019 
Q 2556 2363 2490 2533 
Q 2425 2703 2258 2804 
Q 2091 2906 1866 2906 
Q 1506 2906 1245 2678 
Q 984 2450 984 1813 
L 984 0 
L 422 0 
z
" transform="scale(0.015625)"/>
       <path id="ArialMT-79" d="M 397 -1278 
L 334 -750 
Q 519 -800 656 -800 
Q 844 -800 956 -737 
Q 1069 -675 1141 -563 
Q 1194 -478 1313 -144 
Q 1328 -97 1363 -6 
L 103 3319 
L 709 3319 
L 1400 1397 
Q 1534 1031 1641 628 
Q 1738 1016 1872 1384 
L 2581 3319 
L 3144 3319 
L 1881 -56 
Q 1678 -603 1566 -809 
Q 1416 -1088 1222 -1217 
Q 1028 -1347 759 -1347 
Q 597 -1347 397 -1278 
z
" transform="scale(0.015625)"/>
       <path id="ArialMT-20" transform="scale(0.015625)"/>
       <path id="ArialMT-28" d="M 1497 -1347 
Q 1031 -759 709 28 
Q 388 816 388 1659 
Q 388 2403 628 3084 
Q 909 3875 1497 4659 
L 1900 4659 
Q 1522 4009 1400 3731 
Q 1209 3300 1100 2831 
Q 966 2247 966 1656 
Q 966 153 1900 -1347 
L 1497 -1347 
z
" transform="scale(0.015625)"/>
       <path id="ArialMT-64" d="M 2575 0 
L 2575 419 
Q 2259 -75 1647 -75 
Q 1250 -75 917 144 
Q 584 363 401 755 
Q 219 1147 219 1656 
Q 219 2153 384 2558 
Q 550 2963 881 3178 
Q 1213 3394 1622 3394 
Q 1922 3394 2156 3267 
Q 2391 3141 2538 2938 
L 2538 4581 
L 3097 4581 
L 3097 0 
L 2575 0 
z
M 797 1656 
Q 797 1019 1065 703 
Q 1334 388 1700 388 
Q 2069 388 2326 689 
Q 2584 991 2584 1609 
Q 2584 2291 2321 2609 
Q 2059 2928 1675 2928 
Q 1300 2928 1048 2622 
Q 797 2316 797 1656 
z
" transform="scale(0.015625)"/>
       <path id="ArialMT-61" d="M 2588 409 
Q 2275 144 1986 34 
Q 1697 -75 1366 -75 
Q 819 -75 525 192 
Q 231 459 231 875 
Q 231 1119 342 1320 
Q 453 1522 633 1644 
Q 813 1766 1038 1828 
Q 1203 1872 1538 1913 
Q 2219 1994 2541 2106 
Q 2544 2222 2544 2253 
Q 2544 2597 2384 2738 
Q 2169 2928 1744 2928 
Q 1347 2928 1158 2789 
Q 969 2650 878 2297 
L 328 2372 
Q 403 2725 575 2942 
Q 747 3159 1072 3276 
Q 1397 3394 1825 3394 
Q 2250 3394 2515 3294 
Q 2781 3194 2906 3042 
Q 3031 2891 3081 2659 
Q 3109 2516 3109 2141 
L 3109 1391 
Q 3109 606 3145 398 
Q 3181 191 3288 0 
L 2700 0 
Q 2613 175 2588 409 
z
M 2541 1666 
Q 2234 1541 1622 1453 
Q 1275 1403 1131 1340 
Q 988 1278 909 1158 
Q 831 1038 831 891 
Q 831 666 1001 516 
Q 1172 366 1500 366 
Q 1825 366 2078 508 
Q 2331 650 2450 897 
Q 2541 1088 2541 1459 
L 2541 1666 
z
" transform="scale(0.015625)"/>
       <path id="ArialMT-73" d="M 197 991 
L 753 1078 
Q 800 744 1014 566 
Q 1228 388 1613 388 
Q 2000 388 2187 545 
Q 2375 703 2375 916 
Q 2375 1106 2209 1216 
Q 2094 1291 1634 1406 
Q 1016 1563 777 1677 
Q 538 1791 414 1992 
Q 291 2194 291 2438 
Q 291 2659 392 2848 
Q 494 3038 669 3163 
Q 800 3259 1026 3326 
Q 1253 3394 1513 3394 
Q 1903 3394 2198 3281 
Q 2494 3169 2634 2976 
Q 2775 2784 2828 2463 
L 2278 2388 
Q 2241 2644 2061 2787 
Q 1881 2931 1553 2931 
Q 1166 2931 1000 2803 
Q 834 2675 834 2503 
Q 834 2394 903 2306 
Q 972 2216 1119 2156 
Q 1203 2125 1616 2013 
Q 2213 1853 2448 1751 
Q 2684 1650 2818 1456 
Q 2953 1263 2953 975 
Q 2953 694 2789 445 
Q 2625 197 2315 61 
Q 2006 -75 1616 -75 
Q 969 -75 630 194 
Q 291 463 197 991 
z
" transform="scale(0.015625)"/>
       <path id="ArialMT-29" d="M 791 -1347 
L 388 -1347 
Q 1322 153 1322 1656 
Q 1322 2244 1188 2822 
Q 1081 3291 891 3722 
Q 769 4003 388 4659 
L 791 4659 
Q 1378 3875 1659 3084 
Q 1900 2403 1900 1659 
Q 1900 816 1576 28 
Q 1253 -759 791 -1347 
z
" transform="scale(0.015625)"/>
      </defs>
      <use xlink:href="#ArialMT-52"/>
      <use xlink:href="#ArialMT-65" transform="translate(72.216797 0)"/>
      <use xlink:href="#ArialMT-63" transform="translate(127.832031 0)"/>
      <use xlink:href="#ArialMT-65" transform="translate(177.832031 0)"/>
      <use xlink:href="#ArialMT-6e" transform="translate(233.447266 0)"/>
      <use xlink:href="#ArialMT-63" transform="translate(289.0625 0)"/>
      <use xlink:href="#ArialMT-79" transform="translate(339.0625 0)"/>
      <use xlink:href="#ArialMT-20" transform="translate(389.0625 0)"/>
      <use xlink:href="#ArialMT-28" transform="translate(416.845703 0)"/>
      <use xlink:href="#ArialMT-64" transform="translate(450.146484 0)"/>
      <use xlink:href="#ArialMT-61" transform="translate(505.761719 0)"/>
      <use xlink:href="#ArialMT-79" transform="translate(561.376953 0)"/>
      <use xlink:href="#ArialMT-73" transform="translate(611.376953 0)"/>
      <use xlink:href="#ArialMT-29" transform="translate(661.376953 0)"/>
     </g>
    </g>
   </g>
   <g id="patch_3">
    <path d="M 66.557756 373.52375 
L 138.91278 373.52375 
L 138.91278 331.275693 
L 66.557756 331.275693 
z
" clip-path="url(#p98b72f7942)" style="fill: #e64b35; opacity: 0.8; stroke: #ffffff; stroke-linejoin: miter"/>
   </g>
   <g id="patch_4">
    <path d="M 157.001536 373.52375 
L 229.35656 373.52375 
L 229.35656 84.079702 
L 157.001536 84.079702 
z
" clip-path="url(#p98b72f7942)" style="fill: #4dbbd5; opacity: 0.8; stroke: #ffffff; stroke-linejoin: miter"/>
   </g>
   <g id="patch_5">
    <path d="M 247.445315 373.52375 
L 319.800339 373.52375 
L 319.800339 315.825733 
L 247.445315 315.825733 
z
" clip-path="url(#p98b72f7942)" style="fill: #00a087; opacity: 0.8; stroke: #ffffff; stroke-linejoin: miter"/>
   </g>
   <g id="patch_6">
    <path d="M 337.889095 373.52375 
L 410.244119 373.52375 
L 410.244119 366.90469 
L 337.889095 366.90469 
z
" clip-path="url(#p98b72f7942)" style="fill: #3c5488; opacity: 0.8; stroke: #ffffff; stroke-linejoin: miter"/>
   </g>
   <g id="patch_7">
    <path d="M 49.373438 373.52375 
L 49.373438 69.6075 
" style="fill: none; stroke: #cccccc; stroke-width: 0.6; stroke-linejoin: miter; stroke-linecap: square"/>
   </g>
   <g id="patch_8">
    <path d="M 49.373438 373.52375 
L 427.428438 373.52375 
" style="fill: none; stroke: #cccccc; stroke-width: 0.6; stroke-linejoin: miter; stroke-linecap: square"/>
   </g>
   <g id="text_12">
    <!-- 36.8 -->
    <g style="fill: #262626" transform="translate(94.950893 326.685693) scale(0.08 -0.08)">
     <defs>
      <path id="ArialMT-36" d="M 3184 3459 
L 2625 3416 
Q 2550 3747 2413 3897 
Q 2184 4138 1850 4138 
Q 1581 4138 1378 3988 
Q 1113 3794 959 3422 
Q 806 3050 800 2363 
Q 1003 2672 1297 2822 
Q 1591 2972 1913 2972 
Q 2475 2972 2870 2558 
Q 3266 2144 3266 1488 
Q 3266 1056 3080 686 
Q 2894 316 2569 119 
Q 2244 -78 1831 -78 
Q 1128 -78 684 439 
Q 241 956 241 2144 
Q 241 3472 731 4075 
Q 1159 4600 1884 4600 
Q 2425 4600 2770 4297 
Q 3116 3994 3184 3459 
z
M 888 1484 
Q 888 1194 1011 928 
Q 1134 663 1356 523 
Q 1578 384 1822 384 
Q 2178 384 2434 671 
Q 2691 959 2691 1453 
Q 2691 1928 2437 2201 
Q 2184 2475 1800 2475 
Q 1419 2475 1153 2201 
Q 888 1928 888 1484 
z
" transform="scale(0.015625)"/>
      <path id="ArialMT-2e" d="M 581 0 
L 581 641 
L 1222 641 
L 1222 0 
L 581 0 
z
" transform="scale(0.015625)"/>
      <path id="ArialMT-38" d="M 1131 2484 
Q 781 2613 612 2850 
Q 444 3088 444 3419 
Q 444 3919 803 4259 
Q 1163 4600 1759 4600 
Q 2359 4600 2725 4251 
Q 3091 3903 3091 3403 
Q 3091 3084 2923 2848 
Q 2756 2613 2416 2484 
Q 2838 2347 3058 2040 
Q 3278 1734 3278 1309 
Q 3278 722 2862 322 
Q 2447 -78 1769 -78 
Q 1091 -78 675 323 
Q 259 725 259 1325 
Q 259 1772 486 2073 
Q 713 2375 1131 2484 
z
M 1019 3438 
Q 1019 3113 1228 2906 
Q 1438 2700 1772 2700 
Q 2097 2700 2305 2904 
Q 2513 3109 2513 3406 
Q 2513 3716 2298 3927 
Q 2084 4138 1766 4138 
Q 1444 4138 1231 3931 
Q 1019 3725 1019 3438 
z
M 838 1322 
Q 838 1081 952 856 
Q 1066 631 1291 507 
Q 1516 384 1775 384 
Q 2178 384 2440 643 
Q 2703 903 2703 1303 
Q 2703 1709 2433 1975 
Q 2163 2241 1756 2241 
Q 1359 2241 1098 1978 
Q 838 1716 838 1322 
z
" transform="scale(0.015625)"/>
     </defs>
     <use xlink:href="#ArialMT-33"/>
     <use xlink:href="#ArialMT-36" transform="translate(55.615234 0)"/>
     <use xlink:href="#ArialMT-2e" transform="translate(111.230469 0)"/>
     <use xlink:href="#ArialMT-38" transform="translate(139.013672 0)"/>
    </g>
   </g>
   <g id="text_13">
    <!-- 252.4 -->
    <g style="fill: #262626" transform="translate(183.170298 79.489702) scale(0.08 -0.08)">
     <defs>
      <path id="ArialMT-34" d="M 2069 0 
L 2069 1097 
L 81 1097 
L 81 1613 
L 2172 4581 
L 2631 4581 
L 2631 1613 
L 3250 1613 
L 3250 1097 
L 2631 1097 
L 2631 0 
L 2069 0 
z
M 2069 1613 
L 2069 3678 
L 634 1613 
L 2069 1613 
z
" transform="scale(0.015625)"/>
     </defs>
     <use xlink:href="#ArialMT-32"/>
     <use xlink:href="#ArialMT-35" transform="translate(55.615234 0)"/>
     <use xlink:href="#ArialMT-32" transform="translate(111.230469 0)"/>
     <use xlink:href="#ArialMT-2e" transform="translate(166.845703 0)"/>
     <use xlink:href="#ArialMT-34" transform="translate(194.628906 0)"/>
    </g>
   </g>
   <g id="text_14">
    <!-- 50.3 -->
    <g style="fill: #262626" transform="translate(275.838452 311.235733) scale(0.08 -0.08)">
     <use xlink:href="#ArialMT-35"/>
     <use xlink:href="#ArialMT-30" transform="translate(55.615234 0)"/>
     <use xlink:href="#ArialMT-2e" transform="translate(111.230469 0)"/>
     <use xlink:href="#ArialMT-33" transform="translate(139.013672 0)"/>
    </g>
   </g>
   <g id="text_15">
    <!-- 5.8 -->
    <g style="fill: #262626" transform="translate(368.506607 362.31469) scale(0.08 -0.08)">
     <use xlink:href="#ArialMT-35"/>
     <use xlink:href="#ArialMT-2e" transform="translate(55.615234 0)"/>
     <use xlink:href="#ArialMT-38" transform="translate(83.398438 0)"/>
    </g>
   </g>
   <g id="text_16">
    <!-- Recency (days) -->
    <g style="fill: #262626" transform="translate(201.719687 63.6075) scale(0.1 -0.1)">
     <defs>
      <path id="Arial-BoldMT-52" d="M 469 0 
L 469 4581 
L 2416 4581 
Q 3150 4581 3483 4457 
Q 3816 4334 4016 4018 
Q 4216 3703 4216 3297 
Q 4216 2781 3912 2445 
Q 3609 2109 3006 2022 
Q 3306 1847 3501 1637 
Q 3697 1428 4028 894 
L 4588 0 
L 3481 0 
L 2813 997 
Q 2456 1531 2325 1670 
Q 2194 1809 2047 1861 
Q 1900 1913 1581 1913 
L 1394 1913 
L 1394 0 
L 469 0 
z
M 1394 2644 
L 2078 2644 
Q 2744 2644 2909 2700 
Q 3075 2756 3169 2893 
Q 3263 3031 3263 3238 
Q 3263 3469 3139 3611 
Q 3016 3753 2791 3791 
Q 2678 3806 2116 3806 
L 1394 3806 
L 1394 2644 
z
" transform="scale(0.015625)"/>
      <path id="Arial-BoldMT-65" d="M 2381 1056 
L 3256 909 
Q 3088 428 2723 176 
Q 2359 -75 1813 -75 
Q 947 -75 531 491 
Q 203 944 203 1634 
Q 203 2459 634 2926 
Q 1066 3394 1725 3394 
Q 2466 3394 2894 2905 
Q 3322 2416 3303 1406 
L 1103 1406 
Q 1113 1016 1316 798 
Q 1519 581 1822 581 
Q 2028 581 2168 693 
Q 2309 806 2381 1056 
z
M 2431 1944 
Q 2422 2325 2234 2523 
Q 2047 2722 1778 2722 
Q 1491 2722 1303 2513 
Q 1116 2303 1119 1944 
L 2431 1944 
z
" transform="scale(0.015625)"/>
      <path id="Arial-BoldMT-63" d="M 3353 2338 
L 2488 2181 
Q 2444 2441 2289 2572 
Q 2134 2703 1888 2703 
Q 1559 2703 1364 2476 
Q 1169 2250 1169 1719 
Q 1169 1128 1367 884 
Q 1566 641 1900 641 
Q 2150 641 2309 783 
Q 2469 925 2534 1272 
L 3397 1125 
Q 3263 531 2881 228 
Q 2500 -75 1859 -75 
Q 1131 -75 698 384 
Q 266 844 266 1656 
Q 266 2478 700 2936 
Q 1134 3394 1875 3394 
Q 2481 3394 2839 3133 
Q 3197 2872 3353 2338 
z
" transform="scale(0.015625)"/>
      <path id="Arial-BoldMT-6e" d="M 3478 0 
L 2600 0 
L 2600 1694 
Q 2600 2231 2544 2389 
Q 2488 2547 2361 2634 
Q 2234 2722 2056 2722 
Q 1828 2722 1647 2597 
Q 1466 2472 1398 2265 
Q 1331 2059 1331 1503 
L 1331 0 
L 453 0 
L 453 3319 
L 1269 3319 
L 1269 2831 
Q 1703 3394 2363 3394 
Q 2653 3394 2893 3289 
Q 3134 3184 3257 3021 
Q 3381 2859 3429 2653 
Q 3478 2447 3478 2063 
L 3478 0 
z
" transform="scale(0.015625)"/>
      <path id="Arial-BoldMT-79" d="M 44 3319 
L 978 3319 
L 1772 963 
L 2547 3319 
L 3456 3319 
L 2284 125 
L 2075 -453 
Q 1959 -744 1854 -897 
Q 1750 -1050 1614 -1145 
Q 1478 -1241 1279 -1294 
Q 1081 -1347 831 -1347 
Q 578 -1347 334 -1294 
L 256 -606 
Q 463 -647 628 -647 
Q 934 -647 1081 -467 
Q 1228 -288 1306 -9 
L 44 3319 
z
" transform="scale(0.015625)"/>
      <path id="Arial-BoldMT-20" transform="scale(0.015625)"/>
      <path id="Arial-BoldMT-28" d="M 1916 -1347 
L 1313 -1347 
Q 834 -625 584 153 
Q 334 931 334 1659 
Q 334 2563 644 3369 
Q 913 4069 1325 4659 
L 1925 4659 
Q 1497 3713 1336 3048 
Q 1175 2384 1175 1641 
Q 1175 1128 1270 590 
Q 1366 53 1531 -431 
Q 1641 -750 1916 -1347 
z
" transform="scale(0.015625)"/>
      <path id="Arial-BoldMT-64" d="M 3503 0 
L 2688 0 
L 2688 488 
Q 2484 203 2207 64 
Q 1931 -75 1650 -75 
Q 1078 -75 670 386 
Q 263 847 263 1672 
Q 263 2516 659 2955 
Q 1056 3394 1663 3394 
Q 2219 3394 2625 2931 
L 2625 4581 
L 3503 4581 
L 3503 0 
z
M 1159 1731 
Q 1159 1200 1306 963 
Q 1519 619 1900 619 
Q 2203 619 2415 876 
Q 2628 1134 2628 1647 
Q 2628 2219 2422 2470 
Q 2216 2722 1894 2722 
Q 1581 2722 1370 2473 
Q 1159 2225 1159 1731 
z
" transform="scale(0.015625)"/>
      <path id="Arial-BoldMT-61" d="M 1116 2306 
L 319 2450 
Q 453 2931 781 3162 
Q 1109 3394 1756 3394 
Q 2344 3394 2631 3255 
Q 2919 3116 3036 2902 
Q 3153 2688 3153 2116 
L 3144 1091 
Q 3144 653 3186 445 
Q 3228 238 3344 0 
L 2475 0 
Q 2441 88 2391 259 
Q 2369 338 2359 363 
Q 2134 144 1878 34 
Q 1622 -75 1331 -75 
Q 819 -75 523 203 
Q 228 481 228 906 
Q 228 1188 362 1408 
Q 497 1628 739 1745 
Q 981 1863 1438 1950 
Q 2053 2066 2291 2166 
L 2291 2253 
Q 2291 2506 2166 2614 
Q 2041 2722 1694 2722 
Q 1459 2722 1328 2630 
Q 1197 2538 1116 2306 
z
M 2291 1594 
Q 2122 1538 1756 1459 
Q 1391 1381 1278 1306 
Q 1106 1184 1106 997 
Q 1106 813 1243 678 
Q 1381 544 1594 544 
Q 1831 544 2047 700 
Q 2206 819 2256 991 
Q 2291 1103 2291 1419 
L 2291 1594 
z
" transform="scale(0.015625)"/>
      <path id="Arial-BoldMT-73" d="M 150 947 
L 1031 1081 
Q 1088 825 1259 692 
Q 1431 559 1741 559 
Q 2081 559 2253 684 
Q 2369 772 2369 919 
Q 2369 1019 2306 1084 
Q 2241 1147 2013 1200 
Q 950 1434 666 1628 
Q 272 1897 272 2375 
Q 272 2806 612 3100 
Q 953 3394 1669 3394 
Q 2350 3394 2681 3172 
Q 3013 2950 3138 2516 
L 2309 2363 
Q 2256 2556 2107 2659 
Q 1959 2763 1684 2763 
Q 1338 2763 1188 2666 
Q 1088 2597 1088 2488 
Q 1088 2394 1175 2328 
Q 1294 2241 1995 2081 
Q 2697 1922 2975 1691 
Q 3250 1456 3250 1038 
Q 3250 581 2869 253 
Q 2488 -75 1741 -75 
Q 1063 -75 667 200 
Q 272 475 150 947 
z
" transform="scale(0.015625)"/>
      <path id="Arial-BoldMT-29" d="M 216 -1347 
Q 475 -791 581 -494 
Q 688 -197 778 190 
Q 869 578 912 926 
Q 956 1275 956 1641 
Q 956 2384 797 3048 
Q 638 3713 209 4659 
L 806 4659 
Q 1278 3988 1539 3234 
Q 1800 2481 1800 1706 
Q 1800 1053 1594 306 
Q 1359 -531 822 -1347 
L 216 -1347 
z
" transform="scale(0.015625)"/>
     </defs>
     <use xlink:href="#Arial-BoldMT-52"/>
     <use xlink:href="#Arial-BoldMT-65" transform="translate(72.216797 0)"/>
     <use xlink:href="#Arial-BoldMT-63" transform="translate(127.832031 0)"/>
     <use xlink:href="#Arial-BoldMT-65" transform="translate(183.447266 0)"/>
     <use xlink:href="#Arial-BoldMT-6e" transform="translate(239.0625 0)"/>
     <use xlink:href="#Arial-BoldMT-63" transform="translate(300.146484 0)"/>
     <use xlink:href="#Arial-BoldMT-79" transform="translate(355.761719 0)"/>
     <use xlink:href="#Arial-BoldMT-20" transform="translate(411.376953 0)"/>
     <use xlink:href="#Arial-BoldMT-28" transform="translate(439.160156 0)"/>
     <use xlink:href="#Arial-BoldMT-64" transform="translate(472.460938 0)"/>
     <use xlink:href="#Arial-BoldMT-61" transform="translate(533.544922 0)"/>
     <use xlink:href="#Arial-BoldMT-79" transform="translate(589.160156 0)"/>
     <use xlink:href="#Arial-BoldMT-73" transform="translate(644.775391 0)"/>
     <use xlink:href="#Arial-BoldMT-29" transform="translate(700.390625 0)"/>
    </g>
   </g>
  </g>
  <g id="axes_2">
   <g id="patch_9">
    <path d="M 471.488438 373.52375 
L 849.543438 373.52375 
L 849.543438 69.6075 
L 471.488438 69.6075 
z
" style="fill: #ffffff"/>
   </g>
   <g id="matplotlib.axis_3">
    <g id="xtick_5">
     <g id="line2d_11">
      <path d="M 524.850268 373.52375 
L 524.850268 69.6075 
" clip-path="url(#p2fa2c50bd9)" style="fill: none; stroke-dasharray: 1.85,0.8; stroke-dashoffset: 0; stroke: #cccccc; stroke-opacity: 0.25; stroke-width: 0.5"/>
     </g>
     <g id="text_17">
      <!-- C0 -->
      <g style="fill: #262626" transform="translate(519.737143 386.25) scale(0.08 -0.08)">
       <use xlink:href="#ArialMT-43"/>
       <use xlink:href="#ArialMT-30" transform="translate(72.216797 0)"/>
      </g>
     </g>
    </g>
    <g id="xtick_6">
     <g id="line2d_12">
      <path d="M 615.294048 373.52375 
L 615.294048 69.6075 
" clip-path="url(#p2fa2c50bd9)" style="fill: none; stroke-dasharray: 1.85,0.8; stroke-dashoffset: 0; stroke: #cccccc; stroke-opacity: 0.25; stroke-width: 0.5"/>
     </g>
     <g id="text_18">
      <!-- C1 -->
      <g style="fill: #262626" transform="translate(610.180923 386.25) scale(0.08 -0.08)">
       <use xlink:href="#ArialMT-43"/>
       <use xlink:href="#ArialMT-31" transform="translate(72.216797 0)"/>
      </g>
     </g>
    </g>
    <g id="xtick_7">
     <g id="line2d_13">
      <path d="M 705.737827 373.52375 
L 705.737827 69.6075 
" clip-path="url(#p2fa2c50bd9)" style="fill: none; stroke-dasharray: 1.85,0.8; stroke-dashoffset: 0; stroke: #cccccc; stroke-opacity: 0.25; stroke-width: 0.5"/>
     </g>
     <g id="text_19">
      <!-- C2 -->
      <g style="fill: #262626" transform="translate(700.624702 386.25) scale(0.08 -0.08)">
       <use xlink:href="#ArialMT-43"/>
       <use xlink:href="#ArialMT-32" transform="translate(72.216797 0)"/>
      </g>
     </g>
    </g>
    <g id="xtick_8">
     <g id="line2d_14">
      <path d="M 796.181607 373.52375 
L 796.181607 69.6075 
" clip-path="url(#p2fa2c50bd9)" style="fill: none; stroke-dasharray: 1.85,0.8; stroke-dashoffset: 0; stroke: #cccccc; stroke-opacity: 0.25; stroke-width: 0.5"/>
     </g>
     <g id="text_20">
      <!-- C3 -->
      <g style="fill: #262626" transform="translate(791.068482 386.25) scale(0.08 -0.08)">
       <use xlink:href="#ArialMT-43"/>
       <use xlink:href="#ArialMT-33" transform="translate(72.216797 0)"/>
      </g>
     </g>
    </g>
   </g>
   <g id="matplotlib.axis_4">
    <g id="ytick_7">
     <g id="line2d_15">
      <path d="M 471.488438 373.52375 
L 849.543438 373.52375 
" clip-path="url(#p2fa2c50bd9)" style="fill: none; stroke-dasharray: 1.85,0.8; stroke-dashoffset: 0; stroke: #cccccc; stroke-opacity: 0.25; stroke-width: 0.5"/>
     </g>
     <g id="text_21">
      <!-- 0 -->
      <g style="fill: #262626" transform="translate(460.039688 376.386875) scale(0.08 -0.08)">
       <use xlink:href="#ArialMT-30"/>
      </g>
     </g>
    </g>
    <g id="ytick_8">
     <g id="line2d_16">
      <path d="M 471.488438 336.154213 
L 849.543438 336.154213 
" clip-path="url(#p2fa2c50bd9)" style="fill: none; stroke-dasharray: 1.85,0.8; stroke-dashoffset: 0; stroke: #cccccc; stroke-opacity: 0.25; stroke-width: 0.5"/>
     </g>
     <g id="text_22">
      <!-- 10 -->
      <g style="fill: #262626" transform="translate(455.590938 339.017338) scale(0.08 -0.08)">
       <use xlink:href="#ArialMT-31"/>
       <use xlink:href="#ArialMT-30" transform="translate(55.615234 0)"/>
      </g>
     </g>
    </g>
    <g id="ytick_9">
     <g id="line2d_17">
      <path d="M 471.488438 298.784677 
L 849.543438 298.784677 
" clip-path="url(#p2fa2c50bd9)" style="fill: none; stroke-dasharray: 1.85,0.8; stroke-dashoffset: 0; stroke: #cccccc; stroke-opacity: 0.25; stroke-width: 0.5"/>
     </g>
     <g id="text_23">
      <!-- 20 -->
      <g style="fill: #262626" transform="translate(455.590938 301.647802) scale(0.08 -0.08)">
       <use xlink:href="#ArialMT-32"/>
       <use xlink:href="#ArialMT-30" transform="translate(55.615234 0)"/>
      </g>
     </g>
    </g>
    <g id="ytick_10">
     <g id="line2d_18">
      <path d="M 471.488438 261.41514 
L 849.543438 261.41514 
" clip-path="url(#p2fa2c50bd9)" style="fill: none; stroke-dasharray: 1.85,0.8; stroke-dashoffset: 0; stroke: #cccccc; stroke-opacity: 0.25; stroke-width: 0.5"/>
     </g>
     <g id="text_24">
      <!-- 30 -->
      <g style="fill: #262626" transform="translate(455.590938 264.278265) scale(0.08 -0.08)">
       <use xlink:href="#ArialMT-33"/>
       <use xlink:href="#ArialMT-30" transform="translate(55.615234 0)"/>
      </g>
     </g>
    </g>
    <g id="ytick_11">
     <g id="line2d_19">
      <path d="M 471.488438 224.045603 
L 849.543438 224.045603 
" clip-path="url(#p2fa2c50bd9)" style="fill: none; stroke-dasharray: 1.85,0.8; stroke-dashoffset: 0; stroke: #cccccc; stroke-opacity: 0.25; stroke-width: 0.5"/>
     </g>
     <g id="text_25">
      <!-- 40 -->
      <g style="fill: #262626" transform="translate(455.590938 226.908728) scale(0.08 -0.08)">
       <use xlink:href="#ArialMT-34"/>
       <use xlink:href="#ArialMT-30" transform="translate(55.615234 0)"/>
      </g>
     </g>
    </g>
    <g id="ytick_12">
     <g id="line2d_20">
      <path d="M 471.488438 186.676067 
L 849.543438 186.676067 
" clip-path="url(#p2fa2c50bd9)" style="fill: none; stroke-dasharray: 1.85,0.8; stroke-dashoffset: 0; stroke: #cccccc; stroke-opacity: 0.25; stroke-width: 0.5"/>
     </g>
     <g id="text_26">
      <!-- 50 -->
      <g style="fill: #262626" transform="translate(455.590938 189.539192) scale(0.08 -0.08)">
       <use xlink:href="#ArialMT-35"/>
       <use xlink:href="#ArialMT-30" transform="translate(55.615234 0)"/>
      </g>
     </g>
    </g>
    <g id="ytick_13">
     <g id="line2d_21">
      <path d="M 471.488438 149.30653 
L 849.543438 149.30653 
" clip-path="url(#p2fa2c50bd9)" style="fill: none; stroke-dasharray: 1.85,0.8; stroke-dashoffset: 0; stroke: #cccccc; stroke-opacity: 0.25; stroke-width: 0.5"/>
     </g>
     <g id="text_27">
      <!-- 60 -->
      <g style="fill: #262626" transform="translate(455.590938 152.169655) scale(0.08 -0.08)">
       <use xlink:href="#ArialMT-36"/>
       <use xlink:href="#ArialMT-30" transform="translate(55.615234 0)"/>
      </g>
     </g>
    </g>
    <g id="ytick_14">
     <g id="line2d_22">
      <path d="M 471.488438 111.936993 
L 849.543438 111.936993 
" clip-path="url(#p2fa2c50bd9)" style="fill: none; stroke-dasharray: 1.85,0.8; stroke-dashoffset: 0; stroke: #cccccc; stroke-opacity: 0.25; stroke-width: 0.5"/>
     </g>
     <g id="text_28">
      <!-- 70 -->
      <g style="fill: #262626" transform="translate(455.590938 114.800118) scale(0.08 -0.08)">
       <defs>
        <path id="ArialMT-37" d="M 303 3981 
L 303 4522 
L 3269 4522 
L 3269 4084 
Q 2831 3619 2401 2847 
Q 1972 2075 1738 1259 
Q 1569 684 1522 0 
L 944 0 
Q 953 541 1156 1306 
Q 1359 2072 1739 2783 
Q 2119 3494 2547 3981 
L 303 3981 
z
" transform="scale(0.015625)"/>
       </defs>
       <use xlink:href="#ArialMT-37"/>
       <use xlink:href="#ArialMT-30" transform="translate(55.615234 0)"/>
      </g>
     </g>
    </g>
    <g id="ytick_15">
     <g id="line2d_23">
      <path d="M 471.488438 74.567457 
L 849.543438 74.567457 
" clip-path="url(#p2fa2c50bd9)" style="fill: none; stroke-dasharray: 1.85,0.8; stroke-dashoffset: 0; stroke: #cccccc; stroke-opacity: 0.25; stroke-width: 0.5"/>
     </g>
     <g id="text_29">
      <!-- 80 -->
      <g style="fill: #262626" transform="translate(455.590938 77.430582) scale(0.08 -0.08)">
       <use xlink:href="#ArialMT-38"/>
       <use xlink:href="#ArialMT-30" transform="translate(55.615234 0)"/>
      </g>
     </g>
    </g>
    <g id="text_30">
     <!-- Frequency (orders) -->
     <g style="fill: #262626" transform="translate(449.696719 259.825469) rotate(-90) scale(0.09 -0.09)">
      <defs>
       <path id="ArialMT-46" d="M 525 0 
L 525 4581 
L 3616 4581 
L 3616 4041 
L 1131 4041 
L 1131 2622 
L 3281 2622 
L 3281 2081 
L 1131 2081 
L 1131 0 
L 525 0 
z
" transform="scale(0.015625)"/>
       <path id="ArialMT-72" d="M 416 0 
L 416 3319 
L 922 3319 
L 922 2816 
Q 1116 3169 1280 3281 
Q 1444 3394 1641 3394 
Q 1925 3394 2219 3213 
L 2025 2691 
Q 1819 2813 1613 2813 
Q 1428 2813 1281 2702 
Q 1134 2591 1072 2394 
Q 978 2094 978 1738 
L 978 0 
L 416 0 
z
" transform="scale(0.015625)"/>
       <path id="ArialMT-71" d="M 2538 -1272 
L 2538 353 
Q 2406 169 2170 47 
Q 1934 -75 1669 -75 
Q 1078 -75 651 397 
Q 225 869 225 1691 
Q 225 2191 398 2587 
Q 572 2984 901 3189 
Q 1231 3394 1625 3394 
Q 2241 3394 2594 2875 
L 2594 3319 
L 3100 3319 
L 3100 -1272 
L 2538 -1272 
z
M 803 1669 
Q 803 1028 1072 708 
Q 1341 388 1716 388 
Q 2075 388 2334 692 
Q 2594 997 2594 1619 
Q 2594 2281 2320 2615 
Q 2047 2950 1678 2950 
Q 1313 2950 1058 2639 
Q 803 2328 803 1669 
z
" transform="scale(0.015625)"/>
       <path id="ArialMT-75" d="M 2597 0 
L 2597 488 
Q 2209 -75 1544 -75 
Q 1250 -75 995 37 
Q 741 150 617 320 
Q 494 491 444 738 
Q 409 903 409 1263 
L 409 3319 
L 972 3319 
L 972 1478 
Q 972 1038 1006 884 
Q 1059 663 1231 536 
Q 1403 409 1656 409 
Q 1909 409 2131 539 
Q 2353 669 2445 892 
Q 2538 1116 2538 1541 
L 2538 3319 
L 3100 3319 
L 3100 0 
L 2597 0 
z
" transform="scale(0.015625)"/>
       <path id="ArialMT-6f" d="M 213 1659 
Q 213 2581 725 3025 
Q 1153 3394 1769 3394 
Q 2453 3394 2887 2945 
Q 3322 2497 3322 1706 
Q 3322 1066 3130 698 
Q 2938 331 2570 128 
Q 2203 -75 1769 -75 
Q 1072 -75 642 372 
Q 213 819 213 1659 
z
M 791 1659 
Q 791 1022 1069 705 
Q 1347 388 1769 388 
Q 2188 388 2466 706 
Q 2744 1025 2744 1678 
Q 2744 2294 2464 2611 
Q 2184 2928 1769 2928 
Q 1347 2928 1069 2612 
Q 791 2297 791 1659 
z
" transform="scale(0.015625)"/>
      </defs>
      <use xlink:href="#ArialMT-46"/>
      <use xlink:href="#ArialMT-72" transform="translate(61.083984 0)"/>
      <use xlink:href="#ArialMT-65" transform="translate(94.384766 0)"/>
      <use xlink:href="#ArialMT-71" transform="translate(150 0)"/>
      <use xlink:href="#ArialMT-75" transform="translate(205.615234 0)"/>
      <use xlink:href="#ArialMT-65" transform="translate(261.230469 0)"/>
      <use xlink:href="#ArialMT-6e" transform="translate(316.845703 0)"/>
      <use xlink:href="#ArialMT-63" transform="translate(372.460938 0)"/>
      <use xlink:href="#ArialMT-79" transform="translate(422.460938 0)"/>
      <use xlink:href="#ArialMT-20" transform="translate(472.460938 0)"/>
      <use xlink:href="#ArialMT-28" transform="translate(500.244141 0)"/>
      <use xlink:href="#ArialMT-6f" transform="translate(533.544922 0)"/>
      <use xlink:href="#ArialMT-72" transform="translate(589.160156 0)"/>
      <use xlink:href="#ArialMT-64" transform="translate(622.460938 0)"/>
      <use xlink:href="#ArialMT-65" transform="translate(678.076172 0)"/>
      <use xlink:href="#ArialMT-72" transform="translate(733.691406 0)"/>
      <use xlink:href="#ArialMT-73" transform="translate(766.992188 0)"/>
      <use xlink:href="#ArialMT-29" transform="translate(816.992188 0)"/>
     </g>
    </g>
   </g>
   <g id="patch_10">
    <path d="M 488.672756 373.52375 
L 561.02778 373.52375 
L 561.02778 343.568032 
L 488.672756 343.568032 
z
" clip-path="url(#p2fa2c50bd9)" style="fill: #e64b35; opacity: 0.8; stroke: #ffffff; stroke-linejoin: miter"/>
   </g>
   <g id="patch_11">
    <path d="M 579.116536 373.52375 
L 651.47156 373.52375 
L 651.47156 368.236597 
L 579.116536 368.236597 
z
" clip-path="url(#p2fa2c50bd9)" style="fill: #4dbbd5; opacity: 0.8; stroke: #ffffff; stroke-linejoin: miter"/>
   </g>
   <g id="patch_12">
    <path d="M 669.560315 373.52375 
L 741.915339 373.52375 
L 741.915339 364.335524 
L 669.560315 364.335524 
z
" clip-path="url(#p2fa2c50bd9)" style="fill: #00a087; opacity: 0.8; stroke: #ffffff; stroke-linejoin: miter"/>
   </g>
   <g id="patch_13">
    <path d="M 760.004095 373.52375 
L 832.359119 373.52375 
L 832.359119 84.079702 
L 760.004095 84.079702 
z
" clip-path="url(#p2fa2c50bd9)" style="fill: #3c5488; opacity: 0.8; stroke: #ffffff; stroke-linejoin: miter"/>
   </g>
   <g id="patch_14">
    <path d="M 471.488438 373.52375 
L 471.488438 69.6075 
" style="fill: none; stroke: #cccccc; stroke-width: 0.6; stroke-linejoin: miter; stroke-linecap: square"/>
   </g>
   <g id="patch_15">
    <path d="M 471.488438 373.52375 
L 849.543438 373.52375 
" style="fill: none; stroke: #cccccc; stroke-width: 0.6; stroke-linejoin: miter; stroke-linecap: square"/>
   </g>
   <g id="text_31">
    <!-- 8.0 -->
    <g style="fill: #262626" transform="translate(519.290268 338.978032) scale(0.08 -0.08)">
     <use xlink:href="#ArialMT-38"/>
     <use xlink:href="#ArialMT-2e" transform="translate(55.615234 0)"/>
     <use xlink:href="#ArialMT-30" transform="translate(83.398438 0)"/>
    </g>
   </g>
   <g id="text_32">
    <!-- 1.4 -->
    <g style="fill: #262626" transform="translate(609.734048 363.646597) scale(0.08 -0.08)">
     <use xlink:href="#ArialMT-31"/>
     <use xlink:href="#ArialMT-2e" transform="translate(55.615234 0)"/>
     <use xlink:href="#ArialMT-34" transform="translate(83.398438 0)"/>
    </g>
   </g>
   <g id="text_33">
    <!-- 2.5 -->
    <g style="fill: #262626" transform="translate(700.177827 359.745524) scale(0.08 -0.08)">
     <use xlink:href="#ArialMT-32"/>
     <use xlink:href="#ArialMT-2e" transform="translate(55.615234 0)"/>
     <use xlink:href="#ArialMT-35" transform="translate(83.398438 0)"/>
    </g>
   </g>
   <g id="text_34">
    <!-- 77.5 -->
    <g style="fill: #262626" transform="translate(788.397232 79.489702) scale(0.08 -0.08)">
     <use xlink:href="#ArialMT-37"/>
     <use xlink:href="#ArialMT-37" transform="translate(55.615234 0)"/>
     <use xlink:href="#ArialMT-2e" transform="translate(111.230469 0)"/>
     <use xlink:href="#ArialMT-35" transform="translate(139.013672 0)"/>
    </g>
   </g>
   <g id="text_35">
    <!-- Frequency (orders) -->
    <g style="fill: #262626" transform="translate(614.952656 63.6075) scale(0.1 -0.1)">
     <defs>
      <path id="Arial-BoldMT-46" d="M 472 0 
L 472 4581 
L 3613 4581 
L 3613 3806 
L 1397 3806 
L 1397 2722 
L 3309 2722 
L 3309 1947 
L 1397 1947 
L 1397 0 
L 472 0 
z
" transform="scale(0.015625)"/>
      <path id="Arial-BoldMT-72" d="M 1300 0 
L 422 0 
L 422 3319 
L 1238 3319 
L 1238 2847 
Q 1447 3181 1614 3287 
Q 1781 3394 1994 3394 
Q 2294 3394 2572 3228 
L 2300 2463 
Q 2078 2606 1888 2606 
Q 1703 2606 1575 2504 
Q 1447 2403 1373 2137 
Q 1300 1872 1300 1025 
L 1300 0 
z
" transform="scale(0.015625)"/>
      <path id="Arial-BoldMT-71" d="M 2628 -1263 
L 2628 406 
Q 2456 184 2200 54 
Q 1944 -75 1647 -75 
Q 1081 -75 716 350 
Q 284 847 284 1697 
Q 284 2497 689 2945 
Q 1094 3394 1694 3394 
Q 2025 3394 2267 3253 
Q 2509 3113 2697 2828 
L 2697 3319 
L 3506 3319 
L 3506 -1263 
L 2628 -1263 
z
M 2656 1700 
Q 2656 2209 2448 2457 
Q 2241 2706 1928 2706 
Q 1609 2706 1395 2453 
Q 1181 2200 1181 1650 
Q 1181 1103 1387 861 
Q 1594 619 1897 619 
Q 2200 619 2428 891 
Q 2656 1163 2656 1700 
z
" transform="scale(0.015625)"/>
      <path id="Arial-BoldMT-75" d="M 2644 0 
L 2644 497 
Q 2463 231 2167 78 
Q 1872 -75 1544 -75 
Q 1209 -75 943 72 
Q 678 219 559 484 
Q 441 750 441 1219 
L 441 3319 
L 1319 3319 
L 1319 1794 
Q 1319 1094 1367 936 
Q 1416 778 1544 686 
Q 1672 594 1869 594 
Q 2094 594 2272 717 
Q 2450 841 2515 1023 
Q 2581 1206 2581 1919 
L 2581 3319 
L 3459 3319 
L 3459 0 
L 2644 0 
z
" transform="scale(0.015625)"/>
      <path id="Arial-BoldMT-6f" d="M 256 1706 
Q 256 2144 472 2553 
Q 688 2963 1083 3178 
Q 1478 3394 1966 3394 
Q 2719 3394 3200 2905 
Q 3681 2416 3681 1669 
Q 3681 916 3195 420 
Q 2709 -75 1972 -75 
Q 1516 -75 1102 131 
Q 688 338 472 736 
Q 256 1134 256 1706 
z
M 1156 1659 
Q 1156 1166 1390 903 
Q 1625 641 1969 641 
Q 2313 641 2545 903 
Q 2778 1166 2778 1666 
Q 2778 2153 2545 2415 
Q 2313 2678 1969 2678 
Q 1625 2678 1390 2415 
Q 1156 2153 1156 1659 
z
" transform="scale(0.015625)"/>
     </defs>
     <use xlink:href="#Arial-BoldMT-46"/>
     <use xlink:href="#Arial-BoldMT-72" transform="translate(61.083984 0)"/>
     <use xlink:href="#Arial-BoldMT-65" transform="translate(100 0)"/>
     <use xlink:href="#Arial-BoldMT-71" transform="translate(155.615234 0)"/>
     <use xlink:href="#Arial-BoldMT-75" transform="translate(216.699219 0)"/>
     <use xlink:href="#Arial-BoldMT-65" transform="translate(277.783203 0)"/>
     <use xlink:href="#Arial-BoldMT-6e" transform="translate(333.398438 0)"/>
     <use xlink:href="#Arial-BoldMT-63" transform="translate(394.482422 0)"/>
     <use xlink:href="#Arial-BoldMT-79" transform="translate(450.097656 0)"/>
     <use xlink:href="#Arial-BoldMT-20" transform="translate(505.712891 0)"/>
     <use xlink:href="#Arial-BoldMT-28" transform="translate(533.496094 0)"/>
     <use xlink:href="#Arial-BoldMT-6f" transform="translate(566.796875 0)"/>
     <use xlink:href="#Arial-BoldMT-72" transform="translate(627.880859 0)"/>
     <use xlink:href="#Arial-BoldMT-64" transform="translate(666.796875 0)"/>
     <use xlink:href="#Arial-BoldMT-65" transform="translate(727.880859 0)"/>
     <use xlink:href="#Arial-BoldMT-72" transform="translate(783.496094 0)"/>
     <use xlink:href="#Arial-BoldMT-73" transform="translate(822.412109 0)"/>
     <use xlink:href="#Arial-BoldMT-29" transform="translate(878.027344 0)"/>
    </g>
   </g>
  </g>
  <g id="axes_3">
   <g id="patch_16">
    <path d="M 49.373438 716.36 
L 427.428438 716.36 
L 427.428438 412.44375 
L 49.373438 412.44375 
z
" style="fill: #ffffff"/>
   </g>
   <g id="matplotlib.axis_5">
    <g id="xtick_9">
     <g id="line2d_24">
      <path d="M 102.735268 716.36 
L 102.735268 412.44375 
" clip-path="url(#p6f0508a0f5)" style="fill: none; stroke-dasharray: 1.85,0.8; stroke-dashoffset: 0; stroke: #cccccc; stroke-opacity: 0.25; stroke-width: 0.5"/>
     </g>
     <g id="text_36">
      <!-- C0 -->
      <g style="fill: #262626" transform="translate(97.622143 729.08625) scale(0.08 -0.08)">
       <use xlink:href="#ArialMT-43"/>
       <use xlink:href="#ArialMT-30" transform="translate(72.216797 0)"/>
      </g>
     </g>
    </g>
    <g id="xtick_10">
     <g id="line2d_25">
      <path d="M 193.179048 716.36 
L 193.179048 412.44375 
" clip-path="url(#p6f0508a0f5)" style="fill: none; stroke-dasharray: 1.85,0.8; stroke-dashoffset: 0; stroke: #cccccc; stroke-opacity: 0.25; stroke-width: 0.5"/>
     </g>
     <g id="text_37">
      <!-- C1 -->
      <g style="fill: #262626" transform="translate(188.065923 729.08625) scale(0.08 -0.08)">
       <use xlink:href="#ArialMT-43"/>
       <use xlink:href="#ArialMT-31" transform="translate(72.216797 0)"/>
      </g>
     </g>
    </g>
    <g id="xtick_11">
     <g id="line2d_26">
      <path d="M 283.622827 716.36 
L 283.622827 412.44375 
" clip-path="url(#p6f0508a0f5)" style="fill: none; stroke-dasharray: 1.85,0.8; stroke-dashoffset: 0; stroke: #cccccc; stroke-opacity: 0.25; stroke-width: 0.5"/>
     </g>
     <g id="text_38">
      <!-- C2 -->
      <g style="fill: #262626" transform="translate(278.509702 729.08625) scale(0.08 -0.08)">
       <use xlink:href="#ArialMT-43"/>
       <use xlink:href="#ArialMT-32" transform="translate(72.216797 0)"/>
      </g>
     </g>
    </g>
    <g id="xtick_12">
     <g id="line2d_27">
      <path d="M 374.066607 716.36 
L 374.066607 412.44375 
" clip-path="url(#p6f0508a0f5)" style="fill: none; stroke-dasharray: 1.85,0.8; stroke-dashoffset: 0; stroke: #cccccc; stroke-opacity: 0.25; stroke-width: 0.5"/>
     </g>
     <g id="text_39">
      <!-- C3 -->
      <g style="fill: #262626" transform="translate(368.953482 729.08625) scale(0.08 -0.08)">
       <use xlink:href="#ArialMT-43"/>
       <use xlink:href="#ArialMT-33" transform="translate(72.216797 0)"/>
      </g>
     </g>
    </g>
   </g>
   <g id="matplotlib.axis_6">
    <g id="ytick_16">
     <g id="line2d_28">
      <path d="M 49.373438 716.36 
L 427.428438 716.36 
" clip-path="url(#p6f0508a0f5)" style="fill: none; stroke-dasharray: 1.85,0.8; stroke-dashoffset: 0; stroke: #cccccc; stroke-opacity: 0.25; stroke-width: 0.5"/>
     </g>
     <g id="text_40">
      <!-- 0 -->
      <g style="fill: #262626" transform="translate(37.924688 719.223125) scale(0.08 -0.08)">
       <use xlink:href="#ArialMT-30"/>
      </g>
     </g>
    </g>
    <g id="ytick_17">
     <g id="line2d_29">
      <path d="M 49.373438 678.619062 
L 427.428438 678.619062 
" clip-path="url(#p6f0508a0f5)" style="fill: none; stroke-dasharray: 1.85,0.8; stroke-dashoffset: 0; stroke: #cccccc; stroke-opacity: 0.25; stroke-width: 0.5"/>
     </g>
     <g id="text_41">
      <!-- 10000 -->
      <g style="fill: #262626" transform="translate(20.129687 681.482187) scale(0.08 -0.08)">
       <use xlink:href="#ArialMT-31"/>
       <use xlink:href="#ArialMT-30" transform="translate(55.615234 0)"/>
       <use xlink:href="#ArialMT-30" transform="translate(111.230469 0)"/>
       <use xlink:href="#ArialMT-30" transform="translate(166.845703 0)"/>
       <use xlink:href="#ArialMT-30" transform="translate(222.460938 0)"/>
      </g>
     </g>
    </g>
    <g id="ytick_18">
     <g id="line2d_30">
      <path d="M 49.373438 640.878124 
L 427.428438 640.878124 
" clip-path="url(#p6f0508a0f5)" style="fill: none; stroke-dasharray: 1.85,0.8; stroke-dashoffset: 0; stroke: #cccccc; stroke-opacity: 0.25; stroke-width: 0.5"/>
     </g>
     <g id="text_42">
      <!-- 20000 -->
      <g style="fill: #262626" transform="translate(20.129687 643.741249) scale(0.08 -0.08)">
       <use xlink:href="#ArialMT-32"/>
       <use xlink:href="#ArialMT-30" transform="translate(55.615234 0)"/>
       <use xlink:href="#ArialMT-30" transform="translate(111.230469 0)"/>
       <use xlink:href="#ArialMT-30" transform="translate(166.845703 0)"/>
       <use xlink:href="#ArialMT-30" transform="translate(222.460938 0)"/>
      </g>
     </g>
    </g>
    <g id="ytick_19">
     <g id="line2d_31">
      <path d="M 49.373438 603.137186 
L 427.428438 603.137186 
" clip-path="url(#p6f0508a0f5)" style="fill: none; stroke-dasharray: 1.85,0.8; stroke-dashoffset: 0; stroke: #cccccc; stroke-opacity: 0.25; stroke-width: 0.5"/>
     </g>
     <g id="text_43">
      <!-- 30000 -->
      <g style="fill: #262626" transform="translate(20.129687 606.000311) scale(0.08 -0.08)">
       <use xlink:href="#ArialMT-33"/>
       <use xlink:href="#ArialMT-30" transform="translate(55.615234 0)"/>
       <use xlink:href="#ArialMT-30" transform="translate(111.230469 0)"/>
       <use xlink:href="#ArialMT-30" transform="translate(166.845703 0)"/>
       <use xlink:href="#ArialMT-30" transform="translate(222.460938 0)"/>
      </g>
     </g>
    </g>
    <g id="ytick_20">
     <g id="line2d_32">
      <path d="M 49.373438 565.396249 
L 427.428438 565.396249 
" clip-path="url(#p6f0508a0f5)" style="fill: none; stroke-dasharray: 1.85,0.8; stroke-dashoffset: 0; stroke: #cccccc; stroke-opacity: 0.25; stroke-width: 0.5"/>
     </g>
     <g id="text_44">
      <!-- 40000 -->
      <g style="fill: #262626" transform="translate(20.129687 568.259374) scale(0.08 -0.08)">
       <use xlink:href="#ArialMT-34"/>
       <use xlink:href="#ArialMT-30" transform="translate(55.615234 0)"/>
       <use xlink:href="#ArialMT-30" transform="translate(111.230469 0)"/>
       <use xlink:href="#ArialMT-30" transform="translate(166.845703 0)"/>
       <use xlink:href="#ArialMT-30" transform="translate(222.460938 0)"/>
      </g>
     </g>
    </g>
    <g id="ytick_21">
     <g id="line2d_33">
      <path d="M 49.373438 527.655311 
L 427.428438 527.655311 
" clip-path="url(#p6f0508a0f5)" style="fill: none; stroke-dasharray: 1.85,0.8; stroke-dashoffset: 0; stroke: #cccccc; stroke-opacity: 0.25; stroke-width: 0.5"/>
     </g>
     <g id="text_45">
      <!-- 50000 -->
      <g style="fill: #262626" transform="translate(20.129687 530.518436) scale(0.08 -0.08)">
       <use xlink:href="#ArialMT-35"/>
       <use xlink:href="#ArialMT-30" transform="translate(55.615234 0)"/>
       <use xlink:href="#ArialMT-30" transform="translate(111.230469 0)"/>
       <use xlink:href="#ArialMT-30" transform="translate(166.845703 0)"/>
       <use xlink:href="#ArialMT-30" transform="translate(222.460938 0)"/>
      </g>
     </g>
    </g>
    <g id="ytick_22">
     <g id="line2d_34">
      <path d="M 49.373438 489.914373 
L 427.428438 489.914373 
" clip-path="url(#p6f0508a0f5)" style="fill: none; stroke-dasharray: 1.85,0.8; stroke-dashoffset: 0; stroke: #cccccc; stroke-opacity: 0.25; stroke-width: 0.5"/>
     </g>
     <g id="text_46">
      <!-- 60000 -->
      <g style="fill: #262626" transform="translate(20.129687 492.777498) scale(0.08 -0.08)">
       <use xlink:href="#ArialMT-36"/>
       <use xlink:href="#ArialMT-30" transform="translate(55.615234 0)"/>
       <use xlink:href="#ArialMT-30" transform="translate(111.230469 0)"/>
       <use xlink:href="#ArialMT-30" transform="translate(166.845703 0)"/>
       <use xlink:href="#ArialMT-30" transform="translate(222.460938 0)"/>
      </g>
     </g>
    </g>
    <g id="ytick_23">
     <g id="line2d_35">
      <path d="M 49.373438 452.173435 
L 427.428438 452.173435 
" clip-path="url(#p6f0508a0f5)" style="fill: none; stroke-dasharray: 1.85,0.8; stroke-dashoffset: 0; stroke: #cccccc; stroke-opacity: 0.25; stroke-width: 0.5"/>
     </g>
     <g id="text_47">
      <!-- 70000 -->
      <g style="fill: #262626" transform="translate(20.129687 455.03656) scale(0.08 -0.08)">
       <use xlink:href="#ArialMT-37"/>
       <use xlink:href="#ArialMT-30" transform="translate(55.615234 0)"/>
       <use xlink:href="#ArialMT-30" transform="translate(111.230469 0)"/>
       <use xlink:href="#ArialMT-30" transform="translate(166.845703 0)"/>
       <use xlink:href="#ArialMT-30" transform="translate(222.460938 0)"/>
      </g>
     </g>
    </g>
    <g id="ytick_24">
     <g id="line2d_36">
      <path d="M 49.373438 414.432497 
L 427.428438 414.432497 
" clip-path="url(#p6f0508a0f5)" style="fill: none; stroke-dasharray: 1.85,0.8; stroke-dashoffset: 0; stroke: #cccccc; stroke-opacity: 0.25; stroke-width: 0.5"/>
     </g>
     <g id="text_48">
      <!-- 80000 -->
      <g style="fill: #262626" transform="translate(20.129687 417.295622) scale(0.08 -0.08)">
       <use xlink:href="#ArialMT-38"/>
       <use xlink:href="#ArialMT-30" transform="translate(55.615234 0)"/>
       <use xlink:href="#ArialMT-30" transform="translate(111.230469 0)"/>
       <use xlink:href="#ArialMT-30" transform="translate(166.845703 0)"/>
       <use xlink:href="#ArialMT-30" transform="translate(222.460938 0)"/>
      </g>
     </g>
    </g>
    <g id="text_49">
     <!-- Monetary Value ($) -->
     <g style="fill: #262626" transform="translate(14.235469 602.334766) rotate(-90) scale(0.09 -0.09)">
      <defs>
       <path id="ArialMT-4d" d="M 475 0 
L 475 4581 
L 1388 4581 
L 2472 1338 
Q 2622 884 2691 659 
Q 2769 909 2934 1394 
L 4031 4581 
L 4847 4581 
L 4847 0 
L 4263 0 
L 4263 3834 
L 2931 0 
L 2384 0 
L 1059 3900 
L 1059 0 
L 475 0 
z
" transform="scale(0.015625)"/>
       <path id="ArialMT-74" d="M 1650 503 
L 1731 6 
Q 1494 -44 1306 -44 
Q 1000 -44 831 53 
Q 663 150 594 308 
Q 525 466 525 972 
L 525 2881 
L 113 2881 
L 113 3319 
L 525 3319 
L 525 4141 
L 1084 4478 
L 1084 3319 
L 1650 3319 
L 1650 2881 
L 1084 2881 
L 1084 941 
Q 1084 700 1114 631 
Q 1144 563 1211 522 
Q 1278 481 1403 481 
Q 1497 481 1650 503 
z
" transform="scale(0.015625)"/>
       <path id="ArialMT-56" d="M 1803 0 
L 28 4581 
L 684 4581 
L 1875 1253 
Q 2019 853 2116 503 
Q 2222 878 2363 1253 
L 3600 4581 
L 4219 4581 
L 2425 0 
L 1803 0 
z
" transform="scale(0.015625)"/>
       <path id="ArialMT-6c" d="M 409 0 
L 409 4581 
L 972 4581 
L 972 0 
L 409 0 
z
" transform="scale(0.015625)"/>
       <path id="ArialMT-24" d="M 1594 -659 
L 1594 -97 
Q 1172 -44 908 92 
Q 644 228 451 531 
Q 259 834 228 1272 
L 794 1378 
Q 859 925 1025 713 
Q 1263 413 1594 378 
L 1594 2169 
Q 1247 2234 884 2438 
Q 616 2588 470 2853 
Q 325 3119 325 3456 
Q 325 4056 750 4428 
Q 1034 4678 1594 4734 
L 1594 5003 
L 1925 5003 
L 1925 4734 
Q 2416 4688 2703 4447 
Q 3072 4141 3147 3606 
L 2566 3519 
Q 2516 3850 2358 4026 
Q 2200 4203 1925 4259 
L 1925 2638 
Q 2350 2531 2488 2472 
Q 2750 2356 2915 2190 
Q 3081 2025 3170 1797 
Q 3259 1569 3259 1303 
Q 3259 719 2887 328 
Q 2516 -63 1925 -91 
L 1925 -659 
L 1594 -659 
z
M 1594 4266 
Q 1266 4216 1077 4003 
Q 888 3791 888 3500 
Q 888 3213 1048 3019 
Q 1209 2825 1594 2709 
L 1594 4266 
z
M 1925 378 
Q 2253 419 2467 662 
Q 2681 906 2681 1266 
Q 2681 1572 2529 1758 
Q 2378 1944 1925 2091 
L 1925 378 
z
" transform="scale(0.015625)"/>
      </defs>
      <use xlink:href="#ArialMT-4d"/>
      <use xlink:href="#ArialMT-6f" transform="translate(83.300781 0)"/>
      <use xlink:href="#ArialMT-6e" transform="translate(138.916016 0)"/>
      <use xlink:href="#ArialMT-65" transform="translate(194.53125 0)"/>
      <use xlink:href="#ArialMT-74" transform="translate(250.146484 0)"/>
      <use xlink:href="#ArialMT-61" transform="translate(277.929688 0)"/>
      <use xlink:href="#ArialMT-72" transform="translate(333.544922 0)"/>
      <use xlink:href="#ArialMT-79" transform="translate(366.845703 0)"/>
      <use xlink:href="#ArialMT-20" transform="translate(416.845703 0)"/>
      <use xlink:href="#ArialMT-56" transform="translate(444.628906 0)"/>
      <use xlink:href="#ArialMT-61" transform="translate(503.953125 0)"/>
      <use xlink:href="#ArialMT-6c" transform="translate(559.568359 0)"/>
      <use xlink:href="#ArialMT-75" transform="translate(581.785156 0)"/>
      <use xlink:href="#ArialMT-65" transform="translate(637.400391 0)"/>
      <use xlink:href="#ArialMT-20" transform="translate(693.015625 0)"/>
      <use xlink:href="#ArialMT-28" transform="translate(720.798828 0)"/>
      <use xlink:href="#ArialMT-24" transform="translate(754.099609 0)"/>
      <use xlink:href="#ArialMT-29" transform="translate(809.714844 0)"/>
     </g>
    </g>
   </g>
   <g id="patch_17">
    <path d="M 66.557756 716.36 
L 138.91278 716.36 
L 138.91278 700.284743 
L 66.557756 700.284743 
z
" clip-path="url(#p6f0508a0f5)" style="fill: #e64b35; opacity: 0.8; stroke: #ffffff; stroke-linejoin: miter"/>
   </g>
   <g id="patch_18">
    <path d="M 157.001536 716.36 
L 229.35656 716.36 
L 229.35656 714.880581 
L 157.001536 714.880581 
z
" clip-path="url(#p6f0508a0f5)" style="fill: #4dbbd5; opacity: 0.8; stroke: #ffffff; stroke-linejoin: miter"/>
   </g>
   <g id="patch_19">
    <path d="M 247.445315 716.36 
L 319.800339 716.36 
L 319.800339 714.022701 
L 247.445315 714.022701 
z
" clip-path="url(#p6f0508a0f5)" style="fill: #00a087; opacity: 0.8; stroke: #ffffff; stroke-linejoin: miter"/>
   </g>
   <g id="patch_20">
    <path d="M 337.889095 716.36 
L 410.244119 716.36 
L 410.244119 426.915952 
L 337.889095 426.915952 
z
" clip-path="url(#p6f0508a0f5)" style="fill: #3c5488; opacity: 0.8; stroke: #ffffff; stroke-linejoin: miter"/>
   </g>
   <g id="patch_21">
    <path d="M 49.373438 716.36 
L 49.373438 412.44375 
" style="fill: none; stroke: #cccccc; stroke-width: 0.6; stroke-linejoin: miter; stroke-linecap: square"/>
   </g>
   <g id="patch_22">
    <path d="M 49.373438 716.36 
L 427.428438 716.36 
" style="fill: none; stroke: #cccccc; stroke-width: 0.6; stroke-linejoin: miter; stroke-linecap: square"/>
   </g>
   <g id="text_50">
    <!-- 4259.4 -->
    <g style="fill: #262626" transform="translate(90.502143 695.694743) scale(0.08 -0.08)">
     <defs>
      <path id="ArialMT-39" d="M 350 1059 
L 891 1109 
Q 959 728 1153 556 
Q 1347 384 1650 384 
Q 1909 384 2104 503 
Q 2300 622 2425 820 
Q 2550 1019 2634 1356 
Q 2719 1694 2719 2044 
Q 2719 2081 2716 2156 
Q 2547 1888 2255 1720 
Q 1963 1553 1622 1553 
Q 1053 1553 659 1965 
Q 266 2378 266 3053 
Q 266 3750 677 4175 
Q 1088 4600 1706 4600 
Q 2153 4600 2523 4359 
Q 2894 4119 3086 3673 
Q 3278 3228 3278 2384 
Q 3278 1506 3087 986 
Q 2897 466 2520 194 
Q 2144 -78 1638 -78 
Q 1100 -78 759 220 
Q 419 519 350 1059 
z
M 2653 3081 
Q 2653 3566 2395 3850 
Q 2138 4134 1775 4134 
Q 1400 4134 1122 3828 
Q 844 3522 844 3034 
Q 844 2597 1108 2323 
Q 1372 2050 1759 2050 
Q 2150 2050 2401 2323 
Q 2653 2597 2653 3081 
z
" transform="scale(0.015625)"/>
     </defs>
     <use xlink:href="#ArialMT-34"/>
     <use xlink:href="#ArialMT-32" transform="translate(55.615234 0)"/>
     <use xlink:href="#ArialMT-35" transform="translate(111.230469 0)"/>
     <use xlink:href="#ArialMT-39" transform="translate(166.845703 0)"/>
     <use xlink:href="#ArialMT-2e" transform="translate(222.460938 0)"/>
     <use xlink:href="#ArialMT-34" transform="translate(250.244141 0)"/>
    </g>
   </g>
   <g id="text_51">
    <!-- 392.0 -->
    <g style="fill: #262626" transform="translate(183.170298 710.290581) scale(0.08 -0.08)">
     <use xlink:href="#ArialMT-33"/>
     <use xlink:href="#ArialMT-39" transform="translate(55.615234 0)"/>
     <use xlink:href="#ArialMT-32" transform="translate(111.230469 0)"/>
     <use xlink:href="#ArialMT-2e" transform="translate(166.845703 0)"/>
     <use xlink:href="#ArialMT-30" transform="translate(194.628906 0)"/>
    </g>
   </g>
   <g id="text_52">
    <!-- 619.3 -->
    <g style="fill: #262626" transform="translate(273.614077 709.432701) scale(0.08 -0.08)">
     <use xlink:href="#ArialMT-36"/>
     <use xlink:href="#ArialMT-31" transform="translate(55.615234 0)"/>
     <use xlink:href="#ArialMT-39" transform="translate(111.230469 0)"/>
     <use xlink:href="#ArialMT-2e" transform="translate(166.845703 0)"/>
     <use xlink:href="#ArialMT-33" transform="translate(194.628906 0)"/>
    </g>
   </g>
   <g id="text_53">
    <!-- 76692.3 -->
    <g style="fill: #262626" transform="translate(359.609107 422.325952) scale(0.08 -0.08)">
     <use xlink:href="#ArialMT-37"/>
     <use xlink:href="#ArialMT-36" transform="translate(55.615234 0)"/>
     <use xlink:href="#ArialMT-36" transform="translate(111.230469 0)"/>
     <use xlink:href="#ArialMT-39" transform="translate(166.845703 0)"/>
     <use xlink:href="#ArialMT-32" transform="translate(222.460938 0)"/>
     <use xlink:href="#ArialMT-2e" transform="translate(278.076172 0)"/>
     <use xlink:href="#ArialMT-33" transform="translate(305.859375 0)"/>
    </g>
   </g>
   <g id="text_54">
    <!-- Monetary Value ($) -->
    <g style="fill: #262626" transform="translate(194.223594 406.44375) scale(0.1 -0.1)">
     <defs>
      <path id="Arial-BoldMT-4d" d="M 453 0 
L 453 4581 
L 1838 4581 
L 2669 1456 
L 3491 4581 
L 4878 4581 
L 4878 0 
L 4019 0 
L 4019 3606 
L 3109 0 
L 2219 0 
L 1313 3606 
L 1313 0 
L 453 0 
z
" transform="scale(0.015625)"/>
      <path id="Arial-BoldMT-74" d="M 1981 3319 
L 1981 2619 
L 1381 2619 
L 1381 1281 
Q 1381 875 1398 808 
Q 1416 741 1477 697 
Q 1538 653 1625 653 
Q 1747 653 1978 738 
L 2053 56 
Q 1747 -75 1359 -75 
Q 1122 -75 931 4 
Q 741 84 652 211 
Q 563 338 528 553 
Q 500 706 500 1172 
L 500 2619 
L 97 2619 
L 97 3319 
L 500 3319 
L 500 3978 
L 1381 4491 
L 1381 3319 
L 1981 3319 
z
" transform="scale(0.015625)"/>
      <path id="Arial-BoldMT-56" d="M 1634 0 
L -3 4581 
L 1000 4581 
L 2159 1191 
L 3281 4581 
L 4263 4581 
L 2622 0 
L 1634 0 
z
" transform="scale(0.015625)"/>
      <path id="Arial-BoldMT-6c" d="M 459 0 
L 459 4581 
L 1338 4581 
L 1338 0 
L 459 0 
z
" transform="scale(0.015625)"/>
      <path id="Arial-BoldMT-24" d="M 1528 678 
L 1528 1988 
Q 916 2163 630 2517 
Q 344 2872 344 3378 
Q 344 3891 667 4239 
Q 991 4588 1528 4641 
L 1528 4950 
L 1981 4950 
L 1981 4641 
Q 2478 4581 2772 4301 
Q 3066 4022 3147 3553 
L 2356 3450 
Q 2284 3819 1981 3950 
L 1981 2728 
Q 2731 2525 3003 2201 
Q 3275 1878 3275 1372 
Q 3275 806 2933 418 
Q 2591 31 1981 -56 
L 1981 -641 
L 1528 -641 
L 1528 -72 
Q 988 -6 650 331 
Q 313 669 219 1284 
L 1034 1372 
Q 1084 1122 1221 940 
Q 1359 759 1528 678 
z
M 1528 3959 
Q 1344 3897 1234 3747 
Q 1125 3597 1125 3416 
Q 1125 3250 1225 3108 
Q 1325 2966 1528 2878 
L 1528 3959 
z
M 1981 634 
Q 2216 678 2362 851 
Q 2509 1025 2509 1259 
Q 2509 1469 2386 1620 
Q 2263 1772 1981 1853 
L 1981 634 
z
" transform="scale(0.015625)"/>
     </defs>
     <use xlink:href="#Arial-BoldMT-4d"/>
     <use xlink:href="#Arial-BoldMT-6f" transform="translate(83.300781 0)"/>
     <use xlink:href="#Arial-BoldMT-6e" transform="translate(144.384766 0)"/>
     <use xlink:href="#Arial-BoldMT-65" transform="translate(205.46875 0)"/>
     <use xlink:href="#Arial-BoldMT-74" transform="translate(261.083984 0)"/>
     <use xlink:href="#Arial-BoldMT-61" transform="translate(294.384766 0)"/>
     <use xlink:href="#Arial-BoldMT-72" transform="translate(350 0)"/>
     <use xlink:href="#Arial-BoldMT-79" transform="translate(388.916016 0)"/>
     <use xlink:href="#Arial-BoldMT-20" transform="translate(444.53125 0)"/>
     <use xlink:href="#Arial-BoldMT-56" transform="translate(472.314453 0)"/>
     <use xlink:href="#Arial-BoldMT-61" transform="translate(533.513672 0)"/>
     <use xlink:href="#Arial-BoldMT-6c" transform="translate(589.128906 0)"/>
     <use xlink:href="#Arial-BoldMT-75" transform="translate(616.912109 0)"/>
     <use xlink:href="#Arial-BoldMT-65" transform="translate(677.996094 0)"/>
     <use xlink:href="#Arial-BoldMT-20" transform="translate(733.611328 0)"/>
     <use xlink:href="#Arial-BoldMT-28" transform="translate(761.394531 0)"/>
     <use xlink:href="#Arial-BoldMT-24" transform="translate(794.695312 0)"/>
     <use xlink:href="#Arial-BoldMT-29" transform="translate(850.310547 0)"/>
    </g>
   </g>
  </g>
  <g id="axes_4">
   <g id="patch_23">
    <path d="M 471.488438 716.36 
L 849.543438 716.36 
L 849.543438 412.44375 
L 471.488438 412.44375 
z
" style="fill: #ffffff"/>
   </g>
   <g id="matplotlib.axis_7">
    <g id="xtick_13">
     <g id="line2d_37">
      <path d="M 524.850268 716.36 
L 524.850268 412.44375 
" clip-path="url(#pba3670ab58)" style="fill: none; stroke-dasharray: 1.85,0.8; stroke-dashoffset: 0; stroke: #cccccc; stroke-opacity: 0.25; stroke-width: 0.5"/>
     </g>
     <g id="text_55">
      <!-- C0 -->
      <g style="fill: #262626" transform="translate(519.737143 729.08625) scale(0.08 -0.08)">
       <use xlink:href="#ArialMT-43"/>
       <use xlink:href="#ArialMT-30" transform="translate(72.216797 0)"/>
      </g>
     </g>
    </g>
    <g id="xtick_14">
     <g id="line2d_38">
      <path d="M 615.294048 716.36 
L 615.294048 412.44375 
" clip-path="url(#pba3670ab58)" style="fill: none; stroke-dasharray: 1.85,0.8; stroke-dashoffset: 0; stroke: #cccccc; stroke-opacity: 0.25; stroke-width: 0.5"/>
     </g>
     <g id="text_56">
      <!-- C1 -->
      <g style="fill: #262626" transform="translate(610.180923 729.08625) scale(0.08 -0.08)">
       <use xlink:href="#ArialMT-43"/>
       <use xlink:href="#ArialMT-31" transform="translate(72.216797 0)"/>
      </g>
     </g>
    </g>
    <g id="xtick_15">
     <g id="line2d_39">
      <path d="M 705.737827 716.36 
L 705.737827 412.44375 
" clip-path="url(#pba3670ab58)" style="fill: none; stroke-dasharray: 1.85,0.8; stroke-dashoffset: 0; stroke: #cccccc; stroke-opacity: 0.25; stroke-width: 0.5"/>
     </g>
     <g id="text_57">
      <!-- C2 -->
      <g style="fill: #262626" transform="translate(700.624702 729.08625) scale(0.08 -0.08)">
       <use xlink:href="#ArialMT-43"/>
       <use xlink:href="#ArialMT-32" transform="translate(72.216797 0)"/>
      </g>
     </g>
    </g>
    <g id="xtick_16">
     <g id="line2d_40">
      <path d="M 796.181607 716.36 
L 796.181607 412.44375 
" clip-path="url(#pba3670ab58)" style="fill: none; stroke-dasharray: 1.85,0.8; stroke-dashoffset: 0; stroke: #cccccc; stroke-opacity: 0.25; stroke-width: 0.5"/>
     </g>
     <g id="text_58">
      <!-- C3 -->
      <g style="fill: #262626" transform="translate(791.068482 729.08625) scale(0.08 -0.08)">
       <use xlink:href="#ArialMT-43"/>
       <use xlink:href="#ArialMT-33" transform="translate(72.216797 0)"/>
      </g>
     </g>
    </g>
   </g>
   <g id="matplotlib.axis_8">
    <g id="ytick_25">
     <g id="line2d_41">
      <path d="M 471.488438 716.36 
L 849.543438 716.36 
" clip-path="url(#pba3670ab58)" style="fill: none; stroke-dasharray: 1.85,0.8; stroke-dashoffset: 0; stroke: #cccccc; stroke-opacity: 0.25; stroke-width: 0.5"/>
     </g>
     <g id="text_59">
      <!-- 0 -->
      <g style="fill: #262626" transform="translate(460.039688 719.223125) scale(0.08 -0.08)">
       <use xlink:href="#ArialMT-30"/>
      </g>
     </g>
    </g>
    <g id="ytick_26">
     <g id="line2d_42">
      <path d="M 471.488438 675.127743 
L 849.543438 675.127743 
" clip-path="url(#pba3670ab58)" style="fill: none; stroke-dasharray: 1.85,0.8; stroke-dashoffset: 0; stroke: #cccccc; stroke-opacity: 0.25; stroke-width: 0.5"/>
     </g>
     <g id="text_60">
      <!-- 25 -->
      <g style="fill: #262626" transform="translate(455.590938 677.990868) scale(0.08 -0.08)">
       <use xlink:href="#ArialMT-32"/>
       <use xlink:href="#ArialMT-35" transform="translate(55.615234 0)"/>
      </g>
     </g>
    </g>
    <g id="ytick_27">
     <g id="line2d_43">
      <path d="M 471.488438 633.895485 
L 849.543438 633.895485 
" clip-path="url(#pba3670ab58)" style="fill: none; stroke-dasharray: 1.85,0.8; stroke-dashoffset: 0; stroke: #cccccc; stroke-opacity: 0.25; stroke-width: 0.5"/>
     </g>
     <g id="text_61">
      <!-- 50 -->
      <g style="fill: #262626" transform="translate(455.590938 636.75861) scale(0.08 -0.08)">
       <use xlink:href="#ArialMT-35"/>
       <use xlink:href="#ArialMT-30" transform="translate(55.615234 0)"/>
      </g>
     </g>
    </g>
    <g id="ytick_28">
     <g id="line2d_44">
      <path d="M 471.488438 592.663228 
L 849.543438 592.663228 
" clip-path="url(#pba3670ab58)" style="fill: none; stroke-dasharray: 1.85,0.8; stroke-dashoffset: 0; stroke: #cccccc; stroke-opacity: 0.25; stroke-width: 0.5"/>
     </g>
     <g id="text_62">
      <!-- 75 -->
      <g style="fill: #262626" transform="translate(455.590938 595.526353) scale(0.08 -0.08)">
       <use xlink:href="#ArialMT-37"/>
       <use xlink:href="#ArialMT-35" transform="translate(55.615234 0)"/>
      </g>
     </g>
    </g>
    <g id="ytick_29">
     <g id="line2d_45">
      <path d="M 471.488438 551.430971 
L 849.543438 551.430971 
" clip-path="url(#pba3670ab58)" style="fill: none; stroke-dasharray: 1.85,0.8; stroke-dashoffset: 0; stroke: #cccccc; stroke-opacity: 0.25; stroke-width: 0.5"/>
     </g>
     <g id="text_63">
      <!-- 100 -->
      <g style="fill: #262626" transform="translate(451.142188 554.294096) scale(0.08 -0.08)">
       <use xlink:href="#ArialMT-31"/>
       <use xlink:href="#ArialMT-30" transform="translate(55.615234 0)"/>
       <use xlink:href="#ArialMT-30" transform="translate(111.230469 0)"/>
      </g>
     </g>
    </g>
    <g id="ytick_30">
     <g id="line2d_46">
      <path d="M 471.488438 510.198713 
L 849.543438 510.198713 
" clip-path="url(#pba3670ab58)" style="fill: none; stroke-dasharray: 1.85,0.8; stroke-dashoffset: 0; stroke: #cccccc; stroke-opacity: 0.25; stroke-width: 0.5"/>
     </g>
     <g id="text_64">
      <!-- 125 -->
      <g style="fill: #262626" transform="translate(451.142188 513.061838) scale(0.08 -0.08)">
       <use xlink:href="#ArialMT-31"/>
       <use xlink:href="#ArialMT-32" transform="translate(55.615234 0)"/>
       <use xlink:href="#ArialMT-35" transform="translate(111.230469 0)"/>
      </g>
     </g>
    </g>
    <g id="ytick_31">
     <g id="line2d_47">
      <path d="M 471.488438 468.966456 
L 849.543438 468.966456 
" clip-path="url(#pba3670ab58)" style="fill: none; stroke-dasharray: 1.85,0.8; stroke-dashoffset: 0; stroke: #cccccc; stroke-opacity: 0.25; stroke-width: 0.5"/>
     </g>
     <g id="text_65">
      <!-- 150 -->
      <g style="fill: #262626" transform="translate(451.142188 471.829581) scale(0.08 -0.08)">
       <use xlink:href="#ArialMT-31"/>
       <use xlink:href="#ArialMT-35" transform="translate(55.615234 0)"/>
       <use xlink:href="#ArialMT-30" transform="translate(111.230469 0)"/>
      </g>
     </g>
    </g>
    <g id="ytick_32">
     <g id="line2d_48">
      <path d="M 471.488438 427.734198 
L 849.543438 427.734198 
" clip-path="url(#pba3670ab58)" style="fill: none; stroke-dasharray: 1.85,0.8; stroke-dashoffset: 0; stroke: #cccccc; stroke-opacity: 0.25; stroke-width: 0.5"/>
     </g>
     <g id="text_66">
      <!-- 175 -->
      <g style="fill: #262626" transform="translate(451.142188 430.597323) scale(0.08 -0.08)">
       <use xlink:href="#ArialMT-31"/>
       <use xlink:href="#ArialMT-37" transform="translate(55.615234 0)"/>
       <use xlink:href="#ArialMT-35" transform="translate(111.230469 0)"/>
      </g>
     </g>
    </g>
    <g id="text_67">
     <!-- Avg Order Value ($) -->
     <g style="fill: #262626" transform="translate(445.247969 604.005391) rotate(-90) scale(0.09 -0.09)">
      <defs>
       <path id="ArialMT-41" d="M -9 0 
L 1750 4581 
L 2403 4581 
L 4278 0 
L 3588 0 
L 3053 1388 
L 1138 1388 
L 634 0 
L -9 0 
z
M 1313 1881 
L 2866 1881 
L 2388 3150 
Q 2169 3728 2063 4100 
Q 1975 3659 1816 3225 
L 1313 1881 
z
" transform="scale(0.015625)"/>
       <path id="ArialMT-76" d="M 1344 0 
L 81 3319 
L 675 3319 
L 1388 1331 
Q 1503 1009 1600 663 
Q 1675 925 1809 1294 
L 2547 3319 
L 3125 3319 
L 1869 0 
L 1344 0 
z
" transform="scale(0.015625)"/>
       <path id="ArialMT-67" d="M 319 -275 
L 866 -356 
Q 900 -609 1056 -725 
Q 1266 -881 1628 -881 
Q 2019 -881 2231 -725 
Q 2444 -569 2519 -288 
Q 2563 -116 2559 434 
Q 2191 0 1641 0 
Q 956 0 581 494 
Q 206 988 206 1678 
Q 206 2153 378 2554 
Q 550 2956 876 3175 
Q 1203 3394 1644 3394 
Q 2231 3394 2613 2919 
L 2613 3319 
L 3131 3319 
L 3131 450 
Q 3131 -325 2973 -648 
Q 2816 -972 2473 -1159 
Q 2131 -1347 1631 -1347 
Q 1038 -1347 672 -1080 
Q 306 -813 319 -275 
z
M 784 1719 
Q 784 1066 1043 766 
Q 1303 466 1694 466 
Q 2081 466 2343 764 
Q 2606 1063 2606 1700 
Q 2606 2309 2336 2618 
Q 2066 2928 1684 2928 
Q 1309 2928 1046 2623 
Q 784 2319 784 1719 
z
" transform="scale(0.015625)"/>
       <path id="ArialMT-4f" d="M 309 2231 
Q 309 3372 921 4017 
Q 1534 4663 2503 4663 
Q 3138 4663 3647 4359 
Q 4156 4056 4423 3514 
Q 4691 2972 4691 2284 
Q 4691 1588 4409 1038 
Q 4128 488 3612 205 
Q 3097 -78 2500 -78 
Q 1853 -78 1343 234 
Q 834 547 571 1087 
Q 309 1628 309 2231 
z
M 934 2222 
Q 934 1394 1379 917 
Q 1825 441 2497 441 
Q 3181 441 3623 922 
Q 4066 1403 4066 2288 
Q 4066 2847 3877 3264 
Q 3688 3681 3323 3911 
Q 2959 4141 2506 4141 
Q 1863 4141 1398 3698 
Q 934 3256 934 2222 
z
" transform="scale(0.015625)"/>
      </defs>
      <use xlink:href="#ArialMT-41"/>
      <use xlink:href="#ArialMT-76" transform="translate(64.949219 0)"/>
      <use xlink:href="#ArialMT-67" transform="translate(114.949219 0)"/>
      <use xlink:href="#ArialMT-20" transform="translate(170.564453 0)"/>
      <use xlink:href="#ArialMT-4f" transform="translate(198.347656 0)"/>
      <use xlink:href="#ArialMT-72" transform="translate(276.130859 0)"/>
      <use xlink:href="#ArialMT-64" transform="translate(309.431641 0)"/>
      <use xlink:href="#ArialMT-65" transform="translate(365.046875 0)"/>
      <use xlink:href="#ArialMT-72" transform="translate(420.662109 0)"/>
      <use xlink:href="#ArialMT-20" transform="translate(453.962891 0)"/>
      <use xlink:href="#ArialMT-56" transform="translate(481.746094 0)"/>
      <use xlink:href="#ArialMT-61" transform="translate(541.070312 0)"/>
      <use xlink:href="#ArialMT-6c" transform="translate(596.685547 0)"/>
      <use xlink:href="#ArialMT-75" transform="translate(618.902344 0)"/>
      <use xlink:href="#ArialMT-65" transform="translate(674.517578 0)"/>
      <use xlink:href="#ArialMT-20" transform="translate(730.132812 0)"/>
      <use xlink:href="#ArialMT-28" transform="translate(757.916016 0)"/>
      <use xlink:href="#ArialMT-24" transform="translate(791.216797 0)"/>
      <use xlink:href="#ArialMT-29" transform="translate(846.832031 0)"/>
     </g>
    </g>
   </g>
   <g id="patch_24">
    <path d="M 488.672756 716.36 
L 561.02778 716.36 
L 561.02778 426.915952 
L 488.672756 426.915952 
z
" clip-path="url(#pba3670ab58)" style="fill: #e64b35; opacity: 0.8; stroke: #ffffff; stroke-linejoin: miter"/>
   </g>
   <g id="patch_25">
    <path d="M 579.116536 716.36 
L 651.47156 716.36 
L 651.47156 662.006364 
L 579.116536 662.006364 
z
" clip-path="url(#pba3670ab58)" style="fill: #4dbbd5; opacity: 0.8; stroke: #ffffff; stroke-linejoin: miter"/>
   </g>
   <g id="patch_26">
    <path d="M 669.560315 716.36 
L 741.915339 716.36 
L 741.915339 690.935102 
L 669.560315 690.935102 
z
" clip-path="url(#pba3670ab58)" style="fill: #00a087; opacity: 0.8; stroke: #ffffff; stroke-linejoin: miter"/>
   </g>
   <g id="patch_27">
    <path d="M 760.004095 716.36 
L 832.359119 716.36 
L 832.359119 451.084886 
L 760.004095 451.084886 
z
" clip-path="url(#pba3670ab58)" style="fill: #3c5488; opacity: 0.8; stroke: #ffffff; stroke-linejoin: miter"/>
   </g>
   <g id="patch_28">
    <path d="M 471.488438 716.36 
L 471.488438 412.44375 
" style="fill: none; stroke: #cccccc; stroke-width: 0.6; stroke-linejoin: miter; stroke-linecap: square"/>
   </g>
   <g id="patch_29">
    <path d="M 471.488438 716.36 
L 849.543438 716.36 
" style="fill: none; stroke: #cccccc; stroke-width: 0.6; stroke-linejoin: miter; stroke-linecap: square"/>
   </g>
   <g id="text_68">
    <!-- 175.5 -->
    <g style="fill: #262626" transform="translate(514.841518 422.325952) scale(0.08 -0.08)">
     <use xlink:href="#ArialMT-31"/>
     <use xlink:href="#ArialMT-37" transform="translate(55.615234 0)"/>
     <use xlink:href="#ArialMT-35" transform="translate(111.230469 0)"/>
     <use xlink:href="#ArialMT-2e" transform="translate(166.845703 0)"/>
     <use xlink:href="#ArialMT-35" transform="translate(194.628906 0)"/>
    </g>
   </g>
   <g id="text_69">
    <!-- 33.0 -->
    <g style="fill: #262626" transform="translate(607.509673 657.416364) scale(0.08 -0.08)">
     <use xlink:href="#ArialMT-33"/>
     <use xlink:href="#ArialMT-33" transform="translate(55.615234 0)"/>
     <use xlink:href="#ArialMT-2e" transform="translate(111.230469 0)"/>
     <use xlink:href="#ArialMT-30" transform="translate(139.013672 0)"/>
    </g>
   </g>
   <g id="text_70">
    <!-- 15.4 -->
    <g style="fill: #262626" transform="translate(697.953452 686.345102) scale(0.08 -0.08)">
     <use xlink:href="#ArialMT-31"/>
     <use xlink:href="#ArialMT-35" transform="translate(55.615234 0)"/>
     <use xlink:href="#ArialMT-2e" transform="translate(111.230469 0)"/>
     <use xlink:href="#ArialMT-34" transform="translate(139.013672 0)"/>
    </g>
   </g>
   <g id="text_71">
    <!-- 160.8 -->
    <g style="fill: #262626" transform="translate(786.172857 446.494886) scale(0.08 -0.08)">
     <use xlink:href="#ArialMT-31"/>
     <use xlink:href="#ArialMT-36" transform="translate(55.615234 0)"/>
     <use xlink:href="#ArialMT-30" transform="translate(111.230469 0)"/>
     <use xlink:href="#ArialMT-2e" transform="translate(166.845703 0)"/>
     <use xlink:href="#ArialMT-38" transform="translate(194.628906 0)"/>
    </g>
   </g>
   <g id="text_72">
    <!-- Avg Order Value ($) -->
    <g style="fill: #262626" transform="translate(614.301094 406.44375) scale(0.1 -0.1)">
     <defs>
      <path id="Arial-BoldMT-41" d="M 4597 0 
L 3591 0 
L 3191 1041 
L 1359 1041 
L 981 0 
L 0 0 
L 1784 4581 
L 2763 4581 
L 4597 0 
z
M 2894 1813 
L 2263 3513 
L 1644 1813 
L 2894 1813 
z
" transform="scale(0.015625)"/>
      <path id="Arial-BoldMT-76" d="M 1372 0 
L 34 3319 
L 956 3319 
L 1581 1625 
L 1763 1059 
Q 1834 1275 1853 1344 
Q 1897 1484 1947 1625 
L 2578 3319 
L 3481 3319 
L 2163 0 
L 1372 0 
z
" transform="scale(0.015625)"/>
      <path id="Arial-BoldMT-67" d="M 378 -219 
L 1381 -341 
Q 1406 -516 1497 -581 
Q 1622 -675 1891 -675 
Q 2234 -675 2406 -572 
Q 2522 -503 2581 -350 
Q 2622 -241 2622 53 
L 2622 538 
Q 2228 0 1628 0 
Q 959 0 569 566 
Q 263 1013 263 1678 
Q 263 2513 664 2953 
Q 1066 3394 1663 3394 
Q 2278 3394 2678 2853 
L 2678 3319 
L 3500 3319 
L 3500 341 
Q 3500 -247 3403 -537 
Q 3306 -828 3131 -993 
Q 2956 -1159 2664 -1253 
Q 2372 -1347 1925 -1347 
Q 1081 -1347 728 -1058 
Q 375 -769 375 -325 
Q 375 -281 378 -219 
z
M 1163 1728 
Q 1163 1200 1367 954 
Q 1572 709 1872 709 
Q 2194 709 2416 961 
Q 2638 1213 2638 1706 
Q 2638 2222 2425 2472 
Q 2213 2722 1888 2722 
Q 1572 2722 1367 2476 
Q 1163 2231 1163 1728 
z
" transform="scale(0.015625)"/>
      <path id="Arial-BoldMT-4f" d="M 278 2263 
Q 278 2963 488 3438 
Q 644 3788 914 4066 
Q 1184 4344 1506 4478 
Q 1934 4659 2494 4659 
Q 3506 4659 4114 4031 
Q 4722 3403 4722 2284 
Q 4722 1175 4119 548 
Q 3516 -78 2506 -78 
Q 1484 -78 881 545 
Q 278 1169 278 2263 
z
M 1231 2294 
Q 1231 1516 1590 1114 
Q 1950 713 2503 713 
Q 3056 713 3411 1111 
Q 3766 1509 3766 2306 
Q 3766 3094 3420 3481 
Q 3075 3869 2503 3869 
Q 1931 3869 1581 3476 
Q 1231 3084 1231 2294 
z
" transform="scale(0.015625)"/>
     </defs>
     <use xlink:href="#Arial-BoldMT-41"/>
     <use xlink:href="#Arial-BoldMT-76" transform="translate(68.466797 0)"/>
     <use xlink:href="#Arial-BoldMT-67" transform="translate(124.082031 0)"/>
     <use xlink:href="#Arial-BoldMT-20" transform="translate(185.166016 0)"/>
     <use xlink:href="#Arial-BoldMT-4f" transform="translate(212.949219 0)"/>
     <use xlink:href="#Arial-BoldMT-72" transform="translate(290.732422 0)"/>
     <use xlink:href="#Arial-BoldMT-64" transform="translate(329.648438 0)"/>
     <use xlink:href="#Arial-BoldMT-65" transform="translate(390.732422 0)"/>
     <use xlink:href="#Arial-BoldMT-72" transform="translate(446.347656 0)"/>
     <use xlink:href="#Arial-BoldMT-20" transform="translate(485.263672 0)"/>
     <use xlink:href="#Arial-BoldMT-56" transform="translate(513.046875 0)"/>
     <use xlink:href="#Arial-BoldMT-61" transform="translate(574.246094 0)"/>
     <use xlink:href="#Arial-BoldMT-6c" transform="translate(629.861328 0)"/>
     <use xlink:href="#Arial-BoldMT-75" transform="translate(657.644531 0)"/>
     <use xlink:href="#Arial-BoldMT-65" transform="translate(718.728516 0)"/>
     <use xlink:href="#Arial-BoldMT-20" transform="translate(774.34375 0)"/>
     <use xlink:href="#Arial-BoldMT-28" transform="translate(802.126953 0)"/>
     <use xlink:href="#Arial-BoldMT-24" transform="translate(835.427734 0)"/>
     <use xlink:href="#Arial-BoldMT-29" transform="translate(891.042969 0)"/>
    </g>
   </g>
  </g>
  <g id="text_73">
   <!-- Cluster Profiles by Metric -->
   <g style="fill: #262626" transform="translate(343.934375 17.391562) scale(0.14 -0.14)">
    <defs>
     <path id="Arial-BoldMT-43" d="M 3397 1684 
L 4294 1400 
Q 4088 650 3608 286 
Q 3128 -78 2391 -78 
Q 1478 -78 890 545 
Q 303 1169 303 2250 
Q 303 3394 893 4026 
Q 1484 4659 2447 4659 
Q 3288 4659 3813 4163 
Q 4125 3869 4281 3319 
L 3366 3100 
Q 3284 3456 3026 3662 
Q 2769 3869 2400 3869 
Q 1891 3869 1573 3503 
Q 1256 3138 1256 2319 
Q 1256 1450 1568 1081 
Q 1881 713 2381 713 
Q 2750 713 3015 947 
Q 3281 1181 3397 1684 
z
" transform="scale(0.015625)"/>
     <path id="Arial-BoldMT-50" d="M 466 0 
L 466 4581 
L 1950 4581 
Q 2794 4581 3050 4513 
Q 3444 4409 3709 4064 
Q 3975 3719 3975 3172 
Q 3975 2750 3822 2462 
Q 3669 2175 3433 2011 
Q 3197 1847 2953 1794 
Q 2622 1728 1994 1728 
L 1391 1728 
L 1391 0 
L 466 0 
z
M 1391 3806 
L 1391 2506 
L 1897 2506 
Q 2444 2506 2628 2578 
Q 2813 2650 2917 2803 
Q 3022 2956 3022 3159 
Q 3022 3409 2875 3571 
Q 2728 3734 2503 3775 
Q 2338 3806 1838 3806 
L 1391 3806 
z
" transform="scale(0.015625)"/>
     <path id="Arial-BoldMT-66" d="M 75 3319 
L 563 3319 
L 563 3569 
Q 563 3988 652 4194 
Q 741 4400 980 4529 
Q 1219 4659 1584 4659 
Q 1959 4659 2319 4547 
L 2200 3934 
Q 1991 3984 1797 3984 
Q 1606 3984 1523 3895 
Q 1441 3806 1441 3553 
L 1441 3319 
L 2097 3319 
L 2097 2628 
L 1441 2628 
L 1441 0 
L 563 0 
L 563 2628 
L 75 2628 
L 75 3319 
z
" transform="scale(0.015625)"/>
     <path id="Arial-BoldMT-69" d="M 459 3769 
L 459 4581 
L 1338 4581 
L 1338 3769 
L 459 3769 
z
M 459 0 
L 459 3319 
L 1338 3319 
L 1338 0 
L 459 0 
z
" transform="scale(0.015625)"/>
     <path id="Arial-BoldMT-62" d="M 422 0 
L 422 4581 
L 1300 4581 
L 1300 2931 
Q 1706 3394 2263 3394 
Q 2869 3394 3266 2955 
Q 3663 2516 3663 1694 
Q 3663 844 3258 384 
Q 2853 -75 2275 -75 
Q 1991 -75 1714 67 
Q 1438 209 1238 488 
L 1238 0 
L 422 0 
z
M 1294 1731 
Q 1294 1216 1456 969 
Q 1684 619 2063 619 
Q 2353 619 2558 867 
Q 2763 1116 2763 1650 
Q 2763 2219 2556 2470 
Q 2350 2722 2028 2722 
Q 1713 2722 1503 2476 
Q 1294 2231 1294 1731 
z
" transform="scale(0.015625)"/>
    </defs>
    <use xlink:href="#Arial-BoldMT-43"/>
    <use xlink:href="#Arial-BoldMT-6c" transform="translate(72.216797 0)"/>
    <use xlink:href="#Arial-BoldMT-75" transform="translate(100 0)"/>
    <use xlink:href="#Arial-BoldMT-73" transform="translate(161.083984 0)"/>
    <use xlink:href="#Arial-BoldMT-74" transform="translate(216.699219 0)"/>
    <use xlink:href="#Arial-BoldMT-65" transform="translate(250 0)"/>
    <use xlink:href="#Arial-BoldMT-72" transform="translate(305.615234 0)"/>
    <use xlink:href="#Arial-BoldMT-20" transform="translate(344.53125 0)"/>
    <use xlink:href="#Arial-BoldMT-50" transform="translate(372.314453 0)"/>
    <use xlink:href="#Arial-BoldMT-72" transform="translate(439.013672 0)"/>
    <use xlink:href="#Arial-BoldMT-6f" transform="translate(477.929688 0)"/>
    <use xlink:href="#Arial-BoldMT-66" transform="translate(539.013672 0)"/>
    <use xlink:href="#Arial-BoldMT-69" transform="translate(572.314453 0)"/>
    <use xlink:href="#Arial-BoldMT-6c" transform="translate(600.097656 0)"/>
    <use xlink:href="#Arial-BoldMT-65" transform="translate(627.880859 0)"/>
    <use xlink:href="#Arial-BoldMT-73" transform="translate(683.496094 0)"/>
    <use xlink:href="#Arial-BoldMT-20" transform="translate(739.111328 0)"/>
    <use xlink:href="#Arial-BoldMT-62" transform="translate(766.894531 0)"/>
    <use xlink:href="#Arial-BoldMT-79" transform="translate(827.978516 0)"/>
    <use xlink:href="#Arial-BoldMT-20" transform="translate(883.59375 0)"/>
    <use xlink:href="#Arial-BoldMT-4d" transform="translate(911.376953 0)"/>
    <use xlink:href="#Arial-BoldMT-65" transform="translate(994.677734 0)"/>
    <use xlink:href="#Arial-BoldMT-74" transform="translate(1050.292969 0)"/>
    <use xlink:href="#Arial-BoldMT-72" transform="translate(1083.59375 0)"/>
    <use xlink:href="#Arial-BoldMT-69" transform="translate(1122.509766 0)"/>
    <use xlink:href="#Arial-BoldMT-63" transform="translate(1150.292969 0)"/>
   </g>
  </g>
 </g>
 <defs>
  <clipPath id="p98b72f7942">
   <rect x="49.373438" y="69.6075" width="378.055" height="303.91625"/>
  </clipPath>
  <clipPath id="p2fa2c50bd9">
   <rect x="471.488438" y="69.6075" width="378.055" height="303.91625"/>
  </clipPath>
  <clipPath id="p6f0508a0f5">
   <rect x="49.373438" y="412.44375" width="378.055" height="303.91625"/>
  </clipPath>
  <clipPath id="pba3670ab58">
   <rect x="471.488438" y="412.44375" width="378.055" height="303.91625"/>
  </clipPath>
 </defs>
</svg>
