<svg class="main-svg" xmlns="http://www.w3.org/2000/svg" xmlns:xlink="http://www.w3.org/1999/xlink" width="900" height="750" style="" viewBox="0 0 900 750"><rect x="0" y="0" width="900" height="750" style="fill: rgb(255, 255, 255); fill-opacity: 1;"/><defs id="defs-809717"><g class="clips"><clipPath id="clip809717xyplot" class="plotclip"><rect width="740" height="326.04"/></clipPath><clipPath id="clip809717x2y2plot" class="plotclip"><rect width="740" height="175.56"/></clipPath><clipPath class="axesclip" id="clip809717x"><rect x="80" y="0" width="740" height="750"/></clipPath><clipPath class="axesclip" id="clip809717y"><rect x="0" y="100" width="900" height="326.04"/></clipPath><clipPath class="axesclip" id="clip809717xy"><rect x="80" y="100" width="740" height="326.04"/></clipPath><clipPath class="axesclip" id="clip809717y2"><rect x="0" y="494.44" width="900" height="175.56"/></clipPath><clipPath class="axesclip" id="clip809717xy2"><rect x="80" y="494.44" width="740" height="175.56"/></clipPath><clipPath class="axesclip" id="clip809717x2"><rect x="80" y="0" width="740" height="750"/></clipPath><clipPath class="axesclip" id="clip809717x2y"><rect x="80" y="100" width="740" height="326.04"/></clipPath><clipPath class="axesclip" id="clip809717x2y2"><rect x="80" y="494.44" width="740" height="175.56"/></clipPath></g><g class="gradients"/><g class="patterns"/></defs><g class="bglayer"/><g class="layer-below"><g class="imagelayer"/><g class="shapelayer"/></g><g class="cartesianlayer"><g class="subplot xy"><g class="layer-subplot"><g class="shapelayer"/><g class="imagelayer"/></g><g class="minor-gridlayer"><g class="x"/><g class="y"/></g><g class="gridlayer"><g class="x"><path class="xgrid crisp" transform="translate(185.70999999999998,0)" d="M0,100v326.04" style="stroke: rgb(0, 0, 0); stroke-opacity: 0.1; stroke-width: 1px;"/><path class="xgrid crisp" transform="translate(291.43,0)" d="M0,100v326.04" style="stroke: rgb(0, 0, 0); stroke-opacity: 0.1; stroke-width: 1px;"/><path class="xgrid crisp" transform="translate(397.14,0)" d="M0,100v326.04" style="stroke: rgb(0, 0, 0); stroke-opacity: 0.1; stroke-width: 1px;"/><path class="xgrid crisp" transform="translate(502.86,0)" d="M0,100v326.04" style="stroke: rgb(0, 0, 0); stroke-opacity: 0.1; stroke-width: 1px;"/><path class="xgrid crisp" transform="translate(608.57,0)" d="M0,100v326.04" style="stroke: rgb(0, 0, 0); stroke-opacity: 0.1; stroke-width: 1px;"/><path class="xgrid crisp" transform="translate(714.29,0)" d="M0,100v326.04" style="stroke: rgb(0, 0, 0); stroke-opacity: 0.1; stroke-width: 1px;"/></g><g class="y"><path class="ygrid crisp" transform="translate(0,336.16999999999996)" d="M80,0h740" style="stroke: rgb(0, 0, 0); stroke-opacity: 0.1; stroke-width: 1px;"/><path class="ygrid crisp" transform="translate(0,261.89)" d="M80,0h740" style="stroke: rgb(0, 0, 0); stroke-opacity: 0.1; stroke-width: 1px;"/><path class="ygrid crisp" transform="translate(0,187.61)" d="M80,0h740" style="stroke: rgb(0, 0, 0); stroke-opacity: 0.1; stroke-width: 1px;"/><path class="ygrid crisp" transform="translate(0,113.33)" d="M80,0h740" style="stroke: rgb(0, 0, 0); stroke-opacity: 0.1; stroke-width: 1px;"/></g></g><g class="zerolinelayer"><path class="yzl zl crisp" transform="translate(0,410.45)" d="M80,0h740" style="stroke: rgb(235, 240, 248); stroke-opacity: 1; stroke-width: 2px;"/></g><g class="layer-between"><g class="shapelayer"/><g class="imagelayer"/></g><path class="xlines-below"/><path class="ylines-below"/><g class="overlines-below"/><g class="xaxislayer-below"/><g class="yaxislayer-below"/><g class="overaxes-below"/><g class="overplot"><g class="xy" transform="translate(80,100)" clip-path="url(#clip809717xyplot)"><g class="barlayer mlayer"><g class="trace bars" shape-rendering="crispEdges" style="opacity: 0.7;"><g class="points"><g class="point"><path d="M0,310.45V307.48H26.43V310.45Z" style="vector-effect: none; opacity: 1; stroke-width: 0px; fill: rgb(60, 84, 136); fill-opacity: 1;"/></g><g class="point"><path d="M26.43,310.45V301.54H52.86V310.45Z" style="vector-effect: none; opacity: 1; stroke-width: 0px; fill: rgb(60, 84, 136); fill-opacity: 1;"/></g><g class="point"><path d="M52.86,310.45V301.54H79.29V310.45Z" style="vector-effect: none; opacity: 1; stroke-width: 0px; fill: rgb(60, 84, 136); fill-opacity: 1;"/></g><g class="point"><path d="M79.29,310.45V304.51H105.71V310.45Z" style="vector-effect: none; opacity: 1; stroke-width: 0px; fill: rgb(60, 84, 136); fill-opacity: 1;"/></g><g class="point"><path d="M105.71,310.45V283.71H132.14V310.45Z" style="vector-effect: none; opacity: 1; stroke-width: 0px; fill: rgb(60, 84, 136); fill-opacity: 1;"/></g><g class="point"><path d="M132.14,310.45V265.89H158.57V310.45Z" style="vector-effect: none; opacity: 1; stroke-width: 0px; fill: rgb(60, 84, 136); fill-opacity: 1;"/></g><g class="point"><path d="M158.57,310.45V236.17H185V310.45Z" style="vector-effect: none; opacity: 1; stroke-width: 0px; fill: rgb(60, 84, 136); fill-opacity: 1;"/></g><g class="point"><path d="M185,310.45V212.4H211.43V310.45Z" style="vector-effect: none; opacity: 1; stroke-width: 0px; fill: rgb(60, 84, 136); fill-opacity: 1;"/></g><g class="point"><path d="M211.43,310.45V176.75H237.86V310.45Z" style="vector-effect: none; opacity: 1; stroke-width: 0px; fill: rgb(60, 84, 136); fill-opacity: 1;"/></g><g class="point"><path d="M237.86,310.45V108.41H264.29V310.45Z" style="vector-effect: none; opacity: 1; stroke-width: 0px; fill: rgb(60, 84, 136); fill-opacity: 1;"/></g><g class="point"><path d="M264.29,310.45V66.81H290.71V310.45Z" style="vector-effect: none; opacity: 1; stroke-width: 0px; fill: rgb(60, 84, 136); fill-opacity: 1;"/></g><g class="point"><path d="M290.71,310.45V57.9H317.14V310.45Z" style="vector-effect: none; opacity: 1; stroke-width: 0px; fill: rgb(60, 84, 136); fill-opacity: 1;"/></g><g class="point"><path d="M317.14,310.45V25.22H343.57V310.45Z" style="vector-effect: none; opacity: 1; stroke-width: 0px; fill: rgb(60, 84, 136); fill-opacity: 1;"/></g><g class="point"><path d="M343.57,310.45V16.3H370V310.45Z" style="vector-effect: none; opacity: 1; stroke-width: 0px; fill: rgb(60, 84, 136); fill-opacity: 1;"/></g><g class="point"><path d="M370,310.45V19.27H396.43V310.45Z" style="vector-effect: none; opacity: 1; stroke-width: 0px; fill: rgb(60, 84, 136); fill-opacity: 1;"/></g><g class="point"><path d="M396.43,310.45V48.99H422.86V310.45Z" style="vector-effect: none; opacity: 1; stroke-width: 0px; fill: rgb(60, 84, 136); fill-opacity: 1;"/></g><g class="point"><path d="M422.86,310.45V96.53H449.29V310.45Z" style="vector-effect: none; opacity: 1; stroke-width: 0px; fill: rgb(60, 84, 136); fill-opacity: 1;"/></g><g class="point"><path d="M449.29,310.45V147.04H475.71V310.45Z" style="vector-effect: none; opacity: 1; stroke-width: 0px; fill: rgb(60, 84, 136); fill-opacity: 1;"/></g><g class="point"><path d="M475.71,310.45V176.75H502.14V310.45Z" style="vector-effect: none; opacity: 1; stroke-width: 0px; fill: rgb(60, 84, 136); fill-opacity: 1;"/></g><g class="point"><path d="M502.14,310.45V227.26H528.57V310.45Z" style="vector-effect: none; opacity: 1; stroke-width: 0px; fill: rgb(60, 84, 136); fill-opacity: 1;"/></g><g class="point"><path d="M528.57,310.45V256.97H555V310.45Z" style="vector-effect: none; opacity: 1; stroke-width: 0px; fill: rgb(60, 84, 136); fill-opacity: 1;"/></g><g class="point"><path d="M555,310.45V271.83H581.43V310.45Z" style="vector-effect: none; opacity: 1; stroke-width: 0px; fill: rgb(60, 84, 136); fill-opacity: 1;"/></g><g class="point"><path d="M581.43,310.45V286.68H607.86V310.45Z" style="vector-effect: none; opacity: 1; stroke-width: 0px; fill: rgb(60, 84, 136); fill-opacity: 1;"/></g><g class="point"><path d="M607.86,310.45V286.68H634.29V310.45Z" style="vector-effect: none; opacity: 1; stroke-width: 0px; fill: rgb(60, 84, 136); fill-opacity: 1;"/></g><g class="point"><path d="M0,0Z" style="vector-effect: none; opacity: 1; stroke-width: 0px; fill: rgb(60, 84, 136); fill-opacity: 1;"/></g><g class="point"><path d="M0,0Z" style="vector-effect: none; opacity: 1; stroke-width: 0px; fill: rgb(60, 84, 136); fill-opacity: 1;"/></g><g class="point"><path d="M0,0Z" style="vector-effect: none; opacity: 1; stroke-width: 0px; fill: rgb(60, 84, 136); fill-opacity: 1;"/></g><g class="point"><path d="M713.57,310.45V307.48H740V310.45Z" style="vector-effect: none; opacity: 1; stroke-width: 0px; fill: rgb(60, 84, 136); fill-opacity: 1;"/></g></g></g></g><g class="scatterlayer mlayer"><g class="trace scatter trace095f55" style="stroke-miterlimit: 2; opacity: 1;"><g class="fills"/><g class="errorbars"/><g class="lines"><path class="js-line" d="M21.77,306.03L60.87,301.92L64.43,301.52L78.65,299.16L82.2,298.31L92.87,294.97L96.42,293.59L110.64,286.75L114.19,284.75L128.41,275.8L131.97,273.34L146.19,262.57L149.74,259.62L163.96,246.68L167.51,243.15L181.73,227.78L185.29,223.62L199.51,205.4L203.06,200.39L213.73,184L217.28,178.05L231.5,152.05L235.06,145.15L256.38,104.83L259.94,98.91L270.6,83.48L274.16,79.15L284.82,68.32L288.38,65.31L302.6,54.97L306.15,52.61L334.59,34.7L338.14,32.73L348.81,27.68L352.36,26.37L359.47,24.5L363.03,23.99L370.14,23.99L373.69,24.55L380.8,26.94L384.36,28.8L391.46,33.93L395.02,37.19L402.13,45.04L405.68,49.57L416.35,65.13L419.9,70.81L444.79,113.12L448.34,119.15L473.22,159.51L476.78,165.03L501.66,202.11L505.22,207.08L519.44,225.53L522.99,229.73L537.21,244.75L540.76,248.08L554.98,259.82L558.54,262.41L572.76,271.62L576.31,273.67L594.09,282.64L597.64,284.22L629.63,297.16L633.19,298.54L650.96,304.63L654.52,305.59L668.74,308.36L672.29,308.78L686.51,309.66L690.06,309.72L729.17,309.27" style="vector-effect: none; fill: none; stroke: rgb(60, 84, 136); stroke-opacity: 1; stroke-width: 3px; opacity: 1;"/></g><g class="points"/><g class="text"/></g></g></g></g><g class="zerolinelayer-above"/><path class="xlines-above crisp" d="M0,0" style="fill: none;"/><path class="ylines-above crisp" d="M0,0" style="fill: none;"/><g class="overlines-above"/><g class="xaxislayer-above"><g class="xtick"><text text-anchor="middle" x="0" y="439.04" transform="translate(80,0)" style="font-family: 'Open Sans', verdana, arial, sans-serif; font-size: 12px; fill: rgb(42, 63, 95); fill-opacity: 1; white-space: pre;">90</text></g><g class="xtick"><text text-anchor="middle" x="0" y="439.04" style="font-family: 'Open Sans', verdana, arial, sans-serif; font-size: 12px; fill: rgb(42, 63, 95); fill-opacity: 1; white-space: pre;" transform="translate(185.70999999999998,0)">92</text></g><g class="xtick"><text text-anchor="middle" x="0" y="439.04" style="font-family: 'Open Sans', verdana, arial, sans-serif; font-size: 12px; fill: rgb(42, 63, 95); fill-opacity: 1; white-space: pre;" transform="translate(291.43,0)">94</text></g><g class="xtick"><text text-anchor="middle" x="0" y="439.04" style="font-family: 'Open Sans', verdana, arial, sans-serif; font-size: 12px; fill: rgb(42, 63, 95); fill-opacity: 1; white-space: pre;" transform="translate(397.14,0)">96</text></g><g class="xtick"><text text-anchor="middle" x="0" y="439.04" style="font-family: 'Open Sans', verdana, arial, sans-serif; font-size: 12px; fill: rgb(42, 63, 95); fill-opacity: 1; white-space: pre;" transform="translate(502.86,0)">98</text></g><g class="xtick"><text text-anchor="middle" x="0" y="439.04" style="font-family: 'Open Sans', verdana, arial, sans-serif; font-size: 12px; fill: rgb(42, 63, 95); fill-opacity: 1; white-space: pre;" transform="translate(608.57,0)">100</text></g><g class="xtick"><text text-anchor="middle" x="0" y="439.04" style="font-family: 'Open Sans', verdana, arial, sans-serif; font-size: 12px; fill: rgb(42, 63, 95); fill-opacity: 1; white-space: pre;" transform="translate(714.29,0)">102</text></g><g class="xtick"><text text-anchor="middle" x="0" y="439.04" style="font-family: 'Open Sans', verdana, arial, sans-serif; font-size: 12px; fill: rgb(42, 63, 95); fill-opacity: 1; white-space: pre;" transform="translate(820,0)">104</text></g></g><g class="yaxislayer-above"><g class="ytick"><text text-anchor="end" x="79" y="4.199999999999999" transform="translate(0,410.45)" style="font-family: 'Open Sans', verdana, arial, sans-serif; font-size: 12px; fill: rgb(42, 63, 95); fill-opacity: 1; white-space: pre;">0</text></g><g class="ytick"><text text-anchor="end" x="79" y="4.199999999999999" style="font-family: 'Open Sans', verdana, arial, sans-serif; font-size: 12px; fill: rgb(42, 63, 95); fill-opacity: 1; white-space: pre;" transform="translate(0,336.16999999999996)">0.05</text></g><g class="ytick"><text text-anchor="end" x="79" y="4.199999999999999" style="font-family: 'Open Sans', verdana, arial, sans-serif; font-size: 12px; fill: rgb(42, 63, 95); fill-opacity: 1; white-space: pre;" transform="translate(0,261.89)">0.1</text></g><g class="ytick"><text text-anchor="end" x="79" y="4.199999999999999" style="font-family: 'Open Sans', verdana, arial, sans-serif; font-size: 12px; fill: rgb(42, 63, 95); fill-opacity: 1; white-space: pre;" transform="translate(0,187.61)">0.15</text></g><g class="ytick"><text text-anchor="end" x="79" y="4.199999999999999" style="font-family: 'Open Sans', verdana, arial, sans-serif; font-size: 12px; fill: rgb(42, 63, 95); fill-opacity: 1; white-space: pre;" transform="translate(0,113.33)">0.2</text></g></g><g class="overaxes-above"/></g><g class="subplot x2y2"><g class="layer-subplot"><g class="shapelayer"/><g class="imagelayer"/></g><g class="minor-gridlayer"><g class="x2"/><g class="y2"/></g><g class="gridlayer"><g class="x2"><path class="x2grid crisp" transform="translate(277.75,0)" d="M0,494.44v175.56" style="stroke: rgb(0, 0, 0); stroke-opacity: 0.1; stroke-width: 1px;"/><path class="x2grid crisp" transform="translate(403.12,0)" d="M0,494.44v175.56" style="stroke: rgb(0, 0, 0); stroke-opacity: 0.1; stroke-width: 1px;"/><path class="x2grid crisp" transform="translate(528.5,0)" d="M0,494.44v175.56" style="stroke: rgb(0, 0, 0); stroke-opacity: 0.1; stroke-width: 1px;"/><path class="x2grid crisp" transform="translate(653.87,0)" d="M0,494.44v175.56" style="stroke: rgb(0, 0, 0); stroke-opacity: 0.1; stroke-width: 1px;"/><path class="x2grid crisp" transform="translate(779.25,0)" d="M0,494.44v175.56" style="stroke: rgb(0, 0, 0); stroke-opacity: 0.1; stroke-width: 1px;"/></g><g class="y2"><path class="y2grid crisp" transform="translate(0,583.54)" d="M80,0h740" style="stroke: rgb(0, 0, 0); stroke-opacity: 0.1; stroke-width: 1px;"/><path class="y2grid crisp" transform="translate(0,508.56)" d="M80,0h740" style="stroke: rgb(0, 0, 0); stroke-opacity: 0.1; stroke-width: 1px;"/></g></g><g class="zerolinelayer"><path class="x2zl zl crisp" transform="translate(152.37,0)" d="M0,494.44v175.56" style="stroke: rgb(235, 240, 248); stroke-opacity: 1; stroke-width: 2px;"/><path class="y2zl zl crisp" transform="translate(0,658.53)" d="M80,0h740" style="stroke: rgb(235, 240, 248); stroke-opacity: 1; stroke-width: 2px;"/></g><g class="layer-between"><g class="shapelayer"/><g class="imagelayer"/></g><path class="xlines-below"/><path class="ylines-below"/><g class="overlines-below"/><g class="xaxislayer-below"/><g class="yaxislayer-below"/><g class="overaxes-below"/><g class="overplot"><g class="x2y2" transform="translate(80,494.44)" clip-path="url(#clip809717x2y2plot)"><g class="scatterlayer mlayer"><g class="trace scatter tracef997c0" style="stroke-miterlimit: 2; opacity: 1;"><g class="fills"/><g class="errorbars"/><g class="lines"/><g class="points"><path class="point" transform="translate(78.64,14.17)" d="M3,0A3,3 0 1,1 0,-3A3,3 0 0,1 3,0Z" style="opacity: 1; stroke-width: 1px; fill: rgb(0, 160, 135); fill-opacity: 1; stroke: rgb(0, 0, 0); stroke-opacity: 1;"/><path class="point" transform="translate(84.91,14.04)" d="M3,0A3,3 0 1,1 0,-3A3,3 0 0,1 3,0Z" style="opacity: 1; stroke-width: 1px; fill: rgb(0, 160, 135); fill-opacity: 1; stroke: rgb(0, 0, 0); stroke-opacity: 1;"/><path class="point" transform="translate(91.18,13.19)" d="M3,0A3,3 0 1,1 0,-3A3,3 0 0,1 3,0Z" style="opacity: 1; stroke-width: 1px; fill: rgb(0, 160, 135); fill-opacity: 1; stroke: rgb(0, 0, 0); stroke-opacity: 1;"/><path class="point" transform="translate(97.45,15.4)" d="M3,0A3,3 0 1,1 0,-3A3,3 0 0,1 3,0Z" style="opacity: 1; stroke-width: 1px; fill: rgb(0, 160, 135); fill-opacity: 1; stroke: rgb(0, 0, 0); stroke-opacity: 1;"/><path class="point" transform="translate(103.72,15.25)" d="M3,0A3,3 0 1,1 0,-3A3,3 0 0,1 3,0Z" style="opacity: 1; stroke-width: 1px; fill: rgb(0, 160, 135); fill-opacity: 1; stroke: rgb(0, 0, 0); stroke-opacity: 1;"/><path class="point" transform="translate(109.99,14.39)" d="M3,0A3,3 0 1,1 0,-3A3,3 0 0,1 3,0Z" style="opacity: 1; stroke-width: 1px; fill: rgb(0, 160, 135); fill-opacity: 1; stroke: rgb(0, 0, 0); stroke-opacity: 1;"/><path class="point" transform="translate(116.26,14.37)" d="M3,0A3,3 0 1,1 0,-3A3,3 0 0,1 3,0Z" style="opacity: 1; stroke-width: 1px; fill: rgb(0, 160, 135); fill-opacity: 1; stroke: rgb(0, 0, 0); stroke-opacity: 1;"/><path class="point" transform="translate(122.52,13.95)" d="M3,0A3,3 0 1,1 0,-3A3,3 0 0,1 3,0Z" style="opacity: 1; stroke-width: 1px; fill: rgb(0, 160, 135); fill-opacity: 1; stroke: rgb(0, 0, 0); stroke-opacity: 1;"/><path class="point" transform="translate(128.79,15.34)" d="M3,0A3,3 0 1,1 0,-3A3,3 0 0,1 3,0Z" style="opacity: 1; stroke-width: 1px; fill: rgb(0, 160, 135); fill-opacity: 1; stroke: rgb(0, 0, 0); stroke-opacity: 1;"/><path class="point" transform="translate(135.06,13.89)" d="M3,0A3,3 0 1,1 0,-3A3,3 0 0,1 3,0Z" style="opacity: 1; stroke-width: 1px; fill: rgb(0, 160, 135); fill-opacity: 1; stroke: rgb(0, 0, 0); stroke-opacity: 1;"/><path class="point" transform="translate(141.33,14.28)" d="M3,0A3,3 0 1,1 0,-3A3,3 0 0,1 3,0Z" style="opacity: 1; stroke-width: 1px; fill: rgb(0, 160, 135); fill-opacity: 1; stroke: rgb(0, 0, 0); stroke-opacity: 1;"/><path class="point" transform="translate(147.6,15.54)" d="M3,0A3,3 0 1,1 0,-3A3,3 0 0,1 3,0Z" style="opacity: 1; stroke-width: 1px; fill: rgb(0, 160, 135); fill-opacity: 1; stroke: rgb(0, 0, 0); stroke-opacity: 1;"/><path class="point" transform="translate(153.87,15.35)" d="M3,0A3,3 0 1,1 0,-3A3,3 0 0,1 3,0Z" style="opacity: 1; stroke-width: 1px; fill: rgb(0, 160, 135); fill-opacity: 1; stroke: rgb(0, 0, 0); stroke-opacity: 1;"/><path class="point" transform="translate(160.14,15.15)" d="M3,0A3,3 0 1,1 0,-3A3,3 0 0,1 3,0Z" style="opacity: 1; stroke-width: 1px; fill: rgb(0, 160, 135); fill-opacity: 1; stroke: rgb(0, 0, 0); stroke-opacity: 1;"/><path class="point" transform="translate(166.41,14.12)" d="M3,0A3,3 0 1,1 0,-3A3,3 0 0,1 3,0Z" style="opacity: 1; stroke-width: 1px; fill: rgb(0, 160, 135); fill-opacity: 1; stroke: rgb(0, 0, 0); stroke-opacity: 1;"/><path class="point" transform="translate(172.67,12.57)" d="M3,0A3,3 0 1,1 0,-3A3,3 0 0,1 3,0Z" style="opacity: 1; stroke-width: 1px; fill: rgb(0, 160, 135); fill-opacity: 1; stroke: rgb(0, 0, 0); stroke-opacity: 1;"/><path class="point" transform="translate(178.94,15.52)" d="M3,0A3,3 0 1,1 0,-3A3,3 0 0,1 3,0Z" style="opacity: 1; stroke-width: 1px; fill: rgb(0, 160, 135); fill-opacity: 1; stroke: rgb(0, 0, 0); stroke-opacity: 1;"/><path class="point" transform="translate(185.21,13.75)" d="M3,0A3,3 0 1,1 0,-3A3,3 0 0,1 3,0Z" style="opacity: 1; stroke-width: 1px; fill: rgb(0, 160, 135); fill-opacity: 1; stroke: rgb(0, 0, 0); stroke-opacity: 1;"/><path class="point" transform="translate(191.48,12.81)" d="M3,0A3,3 0 1,1 0,-3A3,3 0 0,1 3,0Z" style="opacity: 1; stroke-width: 1px; fill: rgb(0, 160, 135); fill-opacity: 1; stroke: rgb(0, 0, 0); stroke-opacity: 1;"/><path class="point" transform="translate(197.75,13.98)" d="M3,0A3,3 0 1,1 0,-3A3,3 0 0,1 3,0Z" style="opacity: 1; stroke-width: 1px; fill: rgb(0, 160, 135); fill-opacity: 1; stroke: rgb(0, 0, 0); stroke-opacity: 1;"/><path class="point" transform="translate(204.02,12.56)" d="M3,0A3,3 0 1,1 0,-3A3,3 0 0,1 3,0Z" style="opacity: 1; stroke-width: 1px; fill: rgb(230, 75, 53); fill-opacity: 1; stroke: rgb(0, 0, 0); stroke-opacity: 1;"/><path class="point" transform="translate(210.29,13.18)" d="M3,0A3,3 0 1,1 0,-3A3,3 0 0,1 3,0Z" style="opacity: 1; stroke-width: 1px; fill: rgb(230, 75, 53); fill-opacity: 1; stroke: rgb(0, 0, 0); stroke-opacity: 1;"/><path class="point" transform="translate(216.56,13.54)" d="M3,0A3,3 0 1,1 0,-3A3,3 0 0,1 3,0Z" style="opacity: 1; stroke-width: 1px; fill: rgb(0, 160, 135); fill-opacity: 1; stroke: rgb(0, 0, 0); stroke-opacity: 1;"/><path class="point" transform="translate(222.82,14.29)" d="M3,0A3,3 0 1,1 0,-3A3,3 0 0,1 3,0Z" style="opacity: 1; stroke-width: 1px; fill: rgb(0, 160, 135); fill-opacity: 1; stroke: rgb(0, 0, 0); stroke-opacity: 1;"/><path class="point" transform="translate(229.09,15.43)" d="M3,0A3,3 0 1,1 0,-3A3,3 0 0,1 3,0Z" style="opacity: 1; stroke-width: 1px; fill: rgb(0, 160, 135); fill-opacity: 1; stroke: rgb(0, 0, 0); stroke-opacity: 1;"/><path class="point" transform="translate(235.36,15.15)" d="M3,0A3,3 0 1,1 0,-3A3,3 0 0,1 3,0Z" style="opacity: 1; stroke-width: 1px; fill: rgb(0, 160, 135); fill-opacity: 1; stroke: rgb(0, 0, 0); stroke-opacity: 1;"/><path class="point" transform="translate(241.63,15.58)" d="M3,0A3,3 0 1,1 0,-3A3,3 0 0,1 3,0Z" style="opacity: 1; stroke-width: 1px; fill: rgb(0, 160, 135); fill-opacity: 1; stroke: rgb(0, 0, 0); stroke-opacity: 1;"/><path class="point" transform="translate(247.9,14.73)" d="M3,0A3,3 0 1,1 0,-3A3,3 0 0,1 3,0Z" style="opacity: 1; stroke-width: 1px; fill: rgb(0, 160, 135); fill-opacity: 1; stroke: rgb(0, 0, 0); stroke-opacity: 1;"/><path class="point" transform="translate(254.17,14.1)" d="M3,0A3,3 0 1,1 0,-3A3,3 0 0,1 3,0Z" style="opacity: 1; stroke-width: 1px; fill: rgb(0, 160, 135); fill-opacity: 1; stroke: rgb(0, 0, 0); stroke-opacity: 1;"/><path class="point" transform="translate(260.44,15.59)" d="M3,0A3,3 0 1,1 0,-3A3,3 0 0,1 3,0Z" style="opacity: 1; stroke-width: 1px; fill: rgb(0, 160, 135); fill-opacity: 1; stroke: rgb(0, 0, 0); stroke-opacity: 1;"/><path class="point" transform="translate(266.71,13.1)" d="M3,0A3,3 0 1,1 0,-3A3,3 0 0,1 3,0Z" style="opacity: 1; stroke-width: 1px; fill: rgb(0, 160, 135); fill-opacity: 1; stroke: rgb(0, 0, 0); stroke-opacity: 1;"/><path class="point" transform="translate(272.97,12.7)" d="M3,0A3,3 0 1,1 0,-3A3,3 0 0,1 3,0Z" style="opacity: 1; stroke-width: 1px; fill: rgb(0, 160, 135); fill-opacity: 1; stroke: rgb(0, 0, 0); stroke-opacity: 1;"/><path class="point" transform="translate(279.24,15.46)" d="M3,0A3,3 0 1,1 0,-3A3,3 0 0,1 3,0Z" style="opacity: 1; stroke-width: 1px; fill: rgb(0, 160, 135); fill-opacity: 1; stroke: rgb(0, 0, 0); stroke-opacity: 1;"/><path class="point" transform="translate(285.51,12.9)" d="M3,0A3,3 0 1,1 0,-3A3,3 0 0,1 3,0Z" style="opacity: 1; stroke-width: 1px; fill: rgb(0, 160, 135); fill-opacity: 1; stroke: rgb(0, 0, 0); stroke-opacity: 1;"/><path class="point" transform="translate(291.78,14.38)" d="M3,0A3,3 0 1,1 0,-3A3,3 0 0,1 3,0Z" style="opacity: 1; stroke-width: 1px; fill: rgb(0, 160, 135); fill-opacity: 1; stroke: rgb(0, 0, 0); stroke-opacity: 1;"/><path class="point" transform="translate(298.05,13.12)" d="M3,0A3,3 0 1,1 0,-3A3,3 0 0,1 3,0Z" style="opacity: 1; stroke-width: 1px; fill: rgb(0, 160, 135); fill-opacity: 1; stroke: rgb(0, 0, 0); stroke-opacity: 1;"/><path class="point" transform="translate(304.32,14.41)" d="M3,0A3,3 0 1,1 0,-3A3,3 0 0,1 3,0Z" style="opacity: 1; stroke-width: 1px; fill: rgb(0, 160, 135); fill-opacity: 1; stroke: rgb(0, 0, 0); stroke-opacity: 1;"/><path class="point" transform="translate(310.59,13.41)" d="M3,0A3,3 0 1,1 0,-3A3,3 0 0,1 3,0Z" style="opacity: 1; stroke-width: 1px; fill: rgb(0, 160, 135); fill-opacity: 1; stroke: rgb(0, 0, 0); stroke-opacity: 1;"/><path class="point" transform="translate(316.86,15.68)" d="M3,0A3,3 0 1,1 0,-3A3,3 0 0,1 3,0Z" style="opacity: 1; stroke-width: 1px; fill: rgb(0, 160, 135); fill-opacity: 1; stroke: rgb(0, 0, 0); stroke-opacity: 1;"/><path class="point" transform="translate(323.12,15.57)" d="M3,0A3,3 0 1,1 0,-3A3,3 0 0,1 3,0Z" style="opacity: 1; stroke-width: 1px; fill: rgb(0, 160, 135); fill-opacity: 1; stroke: rgb(0, 0, 0); stroke-opacity: 1;"/><path class="point" transform="translate(329.39,15.24)" d="M3,0A3,3 0 1,1 0,-3A3,3 0 0,1 3,0Z" style="opacity: 1; stroke-width: 1px; fill: rgb(0, 160, 135); fill-opacity: 1; stroke: rgb(0, 0, 0); stroke-opacity: 1;"/><path class="point" transform="translate(335.66,15.71)" d="M3,0A3,3 0 1,1 0,-3A3,3 0 0,1 3,0Z" style="opacity: 1; stroke-width: 1px; fill: rgb(0, 160, 135); fill-opacity: 1; stroke: rgb(0, 0, 0); stroke-opacity: 1;"/><path class="point" transform="translate(341.93,12.72)" d="M3,0A3,3 0 1,1 0,-3A3,3 0 0,1 3,0Z" style="opacity: 1; stroke-width: 1px; fill: rgb(0, 160, 135); fill-opacity: 1; stroke: rgb(0, 0, 0); stroke-opacity: 1;"/><path class="point" transform="translate(348.2,15.33)" d="M3,0A3,3 0 1,1 0,-3A3,3 0 0,1 3,0Z" style="opacity: 1; stroke-width: 1px; fill: rgb(0, 160, 135); fill-opacity: 1; stroke: rgb(0, 0, 0); stroke-opacity: 1;"/><path class="point" transform="translate(354.47,14.72)" d="M3,0A3,3 0 1,1 0,-3A3,3 0 0,1 3,0Z" style="opacity: 1; stroke-width: 1px; fill: rgb(0, 160, 135); fill-opacity: 1; stroke: rgb(0, 0, 0); stroke-opacity: 1;"/><path class="point" transform="translate(360.74,14.45)" d="M3,0A3,3 0 1,1 0,-3A3,3 0 0,1 3,0Z" style="opacity: 1; stroke-width: 1px; fill: rgb(0, 160, 135); fill-opacity: 1; stroke: rgb(0, 0, 0); stroke-opacity: 1;"/><path class="point" transform="translate(367.01,12.77)" d="M3,0A3,3 0 1,1 0,-3A3,3 0 0,1 3,0Z" style="opacity: 1; stroke-width: 1px; fill: rgb(0, 160, 135); fill-opacity: 1; stroke: rgb(0, 0, 0); stroke-opacity: 1;"/><path class="point" transform="translate(373.27,14.46)" d="M3,0A3,3 0 1,1 0,-3A3,3 0 0,1 3,0Z" style="opacity: 1; stroke-width: 1px; fill: rgb(0, 160, 135); fill-opacity: 1; stroke: rgb(0, 0, 0); stroke-opacity: 1;"/><path class="point" transform="translate(379.54,12.78)" d="M3,0A3,3 0 1,1 0,-3A3,3 0 0,1 3,0Z" style="opacity: 1; stroke-width: 1px; fill: rgb(0, 160, 135); fill-opacity: 1; stroke: rgb(0, 0, 0); stroke-opacity: 1;"/><path class="point" transform="translate(385.81,15.65)" d="M3,0A3,3 0 1,1 0,-3A3,3 0 0,1 3,0Z" style="opacity: 1; stroke-width: 1px; fill: rgb(0, 160, 135); fill-opacity: 1; stroke: rgb(0, 0, 0); stroke-opacity: 1;"/><path class="point" transform="translate(392.08,14.63)" d="M3,0A3,3 0 1,1 0,-3A3,3 0 0,1 3,0Z" style="opacity: 1; stroke-width: 1px; fill: rgb(0, 160, 135); fill-opacity: 1; stroke: rgb(0, 0, 0); stroke-opacity: 1;"/><path class="point" transform="translate(398.35,14.06)" d="M3,0A3,3 0 1,1 0,-3A3,3 0 0,1 3,0Z" style="opacity: 1; stroke-width: 1px; fill: rgb(0, 160, 135); fill-opacity: 1; stroke: rgb(0, 0, 0); stroke-opacity: 1;"/><path class="point" transform="translate(404.62,12.54)" d="M3,0A3,3 0 1,1 0,-3A3,3 0 0,1 3,0Z" style="opacity: 1; stroke-width: 1px; fill: rgb(0, 160, 135); fill-opacity: 1; stroke: rgb(0, 0, 0); stroke-opacity: 1;"/><path class="point" transform="translate(410.89,13.08)" d="M3,0A3,3 0 1,1 0,-3A3,3 0 0,1 3,0Z" style="opacity: 1; stroke-width: 1px; fill: rgb(0, 160, 135); fill-opacity: 1; stroke: rgb(0, 0, 0); stroke-opacity: 1;"/><path class="point" transform="translate(417.16,13.52)" d="M3,0A3,3 0 1,1 0,-3A3,3 0 0,1 3,0Z" style="opacity: 1; stroke-width: 1px; fill: rgb(0, 160, 135); fill-opacity: 1; stroke: rgb(0, 0, 0); stroke-opacity: 1;"/><path class="point" transform="translate(423.42,14.12)" d="M3,0A3,3 0 1,1 0,-3A3,3 0 0,1 3,0Z" style="opacity: 1; stroke-width: 1px; fill: rgb(0, 160, 135); fill-opacity: 1; stroke: rgb(0, 0, 0); stroke-opacity: 1;"/><path class="point" transform="translate(429.69,12.89)" d="M3,0A3,3 0 1,1 0,-3A3,3 0 0,1 3,0Z" style="opacity: 1; stroke-width: 1px; fill: rgb(0, 160, 135); fill-opacity: 1; stroke: rgb(0, 0, 0); stroke-opacity: 1;"/><path class="point" transform="translate(435.96,14.24)" d="M3,0A3,3 0 1,1 0,-3A3,3 0 0,1 3,0Z" style="opacity: 1; stroke-width: 1px; fill: rgb(0, 160, 135); fill-opacity: 1; stroke: rgb(0, 0, 0); stroke-opacity: 1;"/><path class="point" transform="translate(442.23,12.87)" d="M3,0A3,3 0 1,1 0,-3A3,3 0 0,1 3,0Z" style="opacity: 1; stroke-width: 1px; fill: rgb(0, 160, 135); fill-opacity: 1; stroke: rgb(0, 0, 0); stroke-opacity: 1;"/><path class="point" transform="translate(448.5,15.52)" d="M3,0A3,3 0 1,1 0,-3A3,3 0 0,1 3,0Z" style="opacity: 1; stroke-width: 1px; fill: rgb(0, 160, 135); fill-opacity: 1; stroke: rgb(0, 0, 0); stroke-opacity: 1;"/><path class="point" transform="translate(454.77,13.17)" d="M3,0A3,3 0 1,1 0,-3A3,3 0 0,1 3,0Z" style="opacity: 1; stroke-width: 1px; fill: rgb(0, 160, 135); fill-opacity: 1; stroke: rgb(0, 0, 0); stroke-opacity: 1;"/><path class="point" transform="translate(461.04,13.63)" d="M3,0A3,3 0 1,1 0,-3A3,3 0 0,1 3,0Z" style="opacity: 1; stroke-width: 1px; fill: rgb(230, 75, 53); fill-opacity: 1; stroke: rgb(0, 0, 0); stroke-opacity: 1;"/><path class="point" transform="translate(467.31,14.97)" d="M3,0A3,3 0 1,1 0,-3A3,3 0 0,1 3,0Z" style="opacity: 1; stroke-width: 1px; fill: rgb(0, 160, 135); fill-opacity: 1; stroke: rgb(0, 0, 0); stroke-opacity: 1;"/><path class="point" transform="translate(473.57,13.98)" d="M3,0A3,3 0 1,1 0,-3A3,3 0 0,1 3,0Z" style="opacity: 1; stroke-width: 1px; fill: rgb(0, 160, 135); fill-opacity: 1; stroke: rgb(0, 0, 0); stroke-opacity: 1;"/><path class="point" transform="translate(479.84,14.01)" d="M3,0A3,3 0 1,1 0,-3A3,3 0 0,1 3,0Z" style="opacity: 1; stroke-width: 1px; fill: rgb(230, 75, 53); fill-opacity: 1; stroke: rgb(0, 0, 0); stroke-opacity: 1;"/><path class="point" transform="translate(486.11,15.63)" d="M3,0A3,3 0 1,1 0,-3A3,3 0 0,1 3,0Z" style="opacity: 1; stroke-width: 1px; fill: rgb(0, 160, 135); fill-opacity: 1; stroke: rgb(0, 0, 0); stroke-opacity: 1;"/><path class="point" transform="translate(492.38,12.53)" d="M3,0A3,3 0 1,1 0,-3A3,3 0 0,1 3,0Z" style="opacity: 1; stroke-width: 1px; fill: rgb(0, 160, 135); fill-opacity: 1; stroke: rgb(0, 0, 0); stroke-opacity: 1;"/><path class="point" transform="translate(498.65,12.68)" d="M3,0A3,3 0 1,1 0,-3A3,3 0 0,1 3,0Z" style="opacity: 1; stroke-width: 1px; fill: rgb(0, 160, 135); fill-opacity: 1; stroke: rgb(0, 0, 0); stroke-opacity: 1;"/><path class="point" transform="translate(504.92,15.44)" d="M3,0A3,3 0 1,1 0,-3A3,3 0 0,1 3,0Z" style="opacity: 1; stroke-width: 1px; fill: rgb(0, 160, 135); fill-opacity: 1; stroke: rgb(0, 0, 0); stroke-opacity: 1;"/><path class="point" transform="translate(511.19,14.22)" d="M3,0A3,3 0 1,1 0,-3A3,3 0 0,1 3,0Z" style="opacity: 1; stroke-width: 1px; fill: rgb(230, 75, 53); fill-opacity: 1; stroke: rgb(0, 0, 0); stroke-opacity: 1;"/><path class="point" transform="translate(517.46,14.45)" d="M3,0A3,3 0 1,1 0,-3A3,3 0 0,1 3,0Z" style="opacity: 1; stroke-width: 1px; fill: rgb(0, 160, 135); fill-opacity: 1; stroke: rgb(0, 0, 0); stroke-opacity: 1;"/><path class="point" transform="translate(523.72,14)" d="M3,0A3,3 0 1,1 0,-3A3,3 0 0,1 3,0Z" style="opacity: 1; stroke-width: 1px; fill: rgb(0, 160, 135); fill-opacity: 1; stroke: rgb(0, 0, 0); stroke-opacity: 1;"/><path class="point" transform="translate(529.99,15.63)" d="M3,0A3,3 0 1,1 0,-3A3,3 0 0,1 3,0Z" style="opacity: 1; stroke-width: 1px; fill: rgb(0, 160, 135); fill-opacity: 1; stroke: rgb(0, 0, 0); stroke-opacity: 1;"/><path class="point" transform="translate(536.26,14.13)" d="M3,0A3,3 0 1,1 0,-3A3,3 0 0,1 3,0Z" style="opacity: 1; stroke-width: 1px; fill: rgb(0, 160, 135); fill-opacity: 1; stroke: rgb(0, 0, 0); stroke-opacity: 1;"/><path class="point" transform="translate(542.53,13.87)" d="M3,0A3,3 0 1,1 0,-3A3,3 0 0,1 3,0Z" style="opacity: 1; stroke-width: 1px; fill: rgb(0, 160, 135); fill-opacity: 1; stroke: rgb(0, 0, 0); stroke-opacity: 1;"/><path class="point" transform="translate(548.8,15.47)" d="M3,0A3,3 0 1,1 0,-3A3,3 0 0,1 3,0Z" style="opacity: 1; stroke-width: 1px; fill: rgb(0, 160, 135); fill-opacity: 1; stroke: rgb(0, 0, 0); stroke-opacity: 1;"/><path class="point" transform="translate(555.07,15.47)" d="M3,0A3,3 0 1,1 0,-3A3,3 0 0,1 3,0Z" style="opacity: 1; stroke-width: 1px; fill: rgb(0, 160, 135); fill-opacity: 1; stroke: rgb(0, 0, 0); stroke-opacity: 1;"/><path class="point" transform="translate(561.34,12.57)" d="M3,0A3,3 0 1,1 0,-3A3,3 0 0,1 3,0Z" style="opacity: 1; stroke-width: 1px; fill: rgb(0, 160, 135); fill-opacity: 1; stroke: rgb(0, 0, 0); stroke-opacity: 1;"/><path class="point" transform="translate(567.61,14.58)" d="M3,0A3,3 0 1,1 0,-3A3,3 0 0,1 3,0Z" style="opacity: 1; stroke-width: 1px; fill: rgb(0, 160, 135); fill-opacity: 1; stroke: rgb(0, 0, 0); stroke-opacity: 1;"/><path class="point" transform="translate(573.87,14.03)" d="M3,0A3,3 0 1,1 0,-3A3,3 0 0,1 3,0Z" style="opacity: 1; stroke-width: 1px; fill: rgb(0, 160, 135); fill-opacity: 1; stroke: rgb(0, 0, 0); stroke-opacity: 1;"/><path class="point" transform="translate(580.14,14.07)" d="M3,0A3,3 0 1,1 0,-3A3,3 0 0,1 3,0Z" style="opacity: 1; stroke-width: 1px; fill: rgb(0, 160, 135); fill-opacity: 1; stroke: rgb(0, 0, 0); stroke-opacity: 1;"/><path class="point" transform="translate(586.41,14.27)" d="M3,0A3,3 0 1,1 0,-3A3,3 0 0,1 3,0Z" style="opacity: 1; stroke-width: 1px; fill: rgb(0, 160, 135); fill-opacity: 1; stroke: rgb(0, 0, 0); stroke-opacity: 1;"/><path class="point" transform="translate(592.68,14.74)" d="M3,0A3,3 0 1,1 0,-3A3,3 0 0,1 3,0Z" style="opacity: 1; stroke-width: 1px; fill: rgb(0, 160, 135); fill-opacity: 1; stroke: rgb(0, 0, 0); stroke-opacity: 1;"/><path class="point" transform="translate(598.95,14.03)" d="M3,0A3,3 0 1,1 0,-3A3,3 0 0,1 3,0Z" style="opacity: 1; stroke-width: 1px; fill: rgb(0, 160, 135); fill-opacity: 1; stroke: rgb(0, 0, 0); stroke-opacity: 1;"/><path class="point" transform="translate(605.22,15.52)" d="M3,0A3,3 0 1,1 0,-3A3,3 0 0,1 3,0Z" style="opacity: 1; stroke-width: 1px; fill: rgb(0, 160, 135); fill-opacity: 1; stroke: rgb(0, 0, 0); stroke-opacity: 1;"/><path class="point" transform="translate(611.49,15.32)" d="M3,0A3,3 0 1,1 0,-3A3,3 0 0,1 3,0Z" style="opacity: 1; stroke-width: 1px; fill: rgb(0, 160, 135); fill-opacity: 1; stroke: rgb(0, 0, 0); stroke-opacity: 1;"/><path class="point" transform="translate(617.76,14.36)" d="M3,0A3,3 0 1,1 0,-3A3,3 0 0,1 3,0Z" style="opacity: 1; stroke-width: 1px; fill: rgb(0, 160, 135); fill-opacity: 1; stroke: rgb(0, 0, 0); stroke-opacity: 1;"/><path class="point" transform="translate(624.02,12.65)" d="M3,0A3,3 0 1,1 0,-3A3,3 0 0,1 3,0Z" style="opacity: 1; stroke-width: 1px; fill: rgb(0, 160, 135); fill-opacity: 1; stroke: rgb(0, 0, 0); stroke-opacity: 1;"/><path class="point" transform="translate(630.29,12.76)" d="M3,0A3,3 0 1,1 0,-3A3,3 0 0,1 3,0Z" style="opacity: 1; stroke-width: 1px; fill: rgb(0, 160, 135); fill-opacity: 1; stroke: rgb(0, 0, 0); stroke-opacity: 1;"/><path class="point" transform="translate(636.56,15.24)" d="M3,0A3,3 0 1,1 0,-3A3,3 0 0,1 3,0Z" style="opacity: 1; stroke-width: 1px; fill: rgb(0, 160, 135); fill-opacity: 1; stroke: rgb(0, 0, 0); stroke-opacity: 1;"/><path class="point" transform="translate(642.83,13.87)" d="M3,0A3,3 0 1,1 0,-3A3,3 0 0,1 3,0Z" style="opacity: 1; stroke-width: 1px; fill: rgb(0, 160, 135); fill-opacity: 1; stroke: rgb(0, 0, 0); stroke-opacity: 1;"/><path class="point" transform="translate(649.1,14.48)" d="M3,0A3,3 0 1,1 0,-3A3,3 0 0,1 3,0Z" style="opacity: 1; stroke-width: 1px; fill: rgb(0, 160, 135); fill-opacity: 1; stroke: rgb(0, 0, 0); stroke-opacity: 1;"/><path class="point" transform="translate(655.37,14.18)" d="M3,0A3,3 0 1,1 0,-3A3,3 0 0,1 3,0Z" style="opacity: 1; stroke-width: 1px; fill: rgb(0, 160, 135); fill-opacity: 1; stroke: rgb(0, 0, 0); stroke-opacity: 1;"/><path class="point" transform="translate(661.64,15.57)" d="M3,0A3,3 0 1,1 0,-3A3,3 0 0,1 3,0Z" style="opacity: 1; stroke-width: 1px; fill: rgb(0, 160, 135); fill-opacity: 1; stroke: rgb(0, 0, 0); stroke-opacity: 1;"/><path class="point" transform="translate(667.91,14.35)" d="M3,0A3,3 0 1,1 0,-3A3,3 0 0,1 3,0Z" style="opacity: 1; stroke-width: 1px; fill: rgb(0, 160, 135); fill-opacity: 1; stroke: rgb(0, 0, 0); stroke-opacity: 1;"/><path class="point" transform="translate(674.17,14.7)" d="M3,0A3,3 0 1,1 0,-3A3,3 0 0,1 3,0Z" style="opacity: 1; stroke-width: 1px; fill: rgb(0, 160, 135); fill-opacity: 1; stroke: rgb(0, 0, 0); stroke-opacity: 1;"/><path class="point" transform="translate(680.44,13.39)" d="M3,0A3,3 0 1,1 0,-3A3,3 0 0,1 3,0Z" style="opacity: 1; stroke-width: 1px; fill: rgb(0, 160, 135); fill-opacity: 1; stroke: rgb(0, 0, 0); stroke-opacity: 1;"/><path class="point" transform="translate(686.71,15.6)" d="M3,0A3,3 0 1,1 0,-3A3,3 0 0,1 3,0Z" style="opacity: 1; stroke-width: 1px; fill: rgb(230, 75, 53); fill-opacity: 1; stroke: rgb(0, 0, 0); stroke-opacity: 1;"/><path class="point" transform="translate(692.98,13.9)" d="M3,0A3,3 0 1,1 0,-3A3,3 0 0,1 3,0Z" style="opacity: 1; stroke-width: 1px; fill: rgb(230, 75, 53); fill-opacity: 1; stroke: rgb(0, 0, 0); stroke-opacity: 1;"/><path class="point" transform="translate(699.25,12.73)" d="M3,0A3,3 0 1,1 0,-3A3,3 0 0,1 3,0Z" style="opacity: 1; stroke-width: 1px; fill: rgb(0, 160, 135); fill-opacity: 1; stroke: rgb(0, 0, 0); stroke-opacity: 1;"/></g><g class="text"/></g></g></g></g><g class="zerolinelayer-above"/><path class="xlines-above crisp" d="M0,0" style="fill: none;"/><path class="ylines-above crisp" d="M0,0" style="fill: none;"/><g class="overlines-above"/><g class="xaxislayer-above"><g class="x2tick"><text text-anchor="middle" x="0" y="683" transform="translate(152.37,0)" style="font-family: 'Open Sans', verdana, arial, sans-serif; font-size: 12px; fill: rgb(42, 63, 95); fill-opacity: 1; white-space: pre;">0</text></g><g class="x2tick"><text text-anchor="middle" x="0" y="683" style="font-family: 'Open Sans', verdana, arial, sans-serif; font-size: 12px; fill: rgb(42, 63, 95); fill-opacity: 1; white-space: pre;" transform="translate(277.75,0)">20</text></g><g class="x2tick"><text text-anchor="middle" x="0" y="683" style="font-family: 'Open Sans', verdana, arial, sans-serif; font-size: 12px; fill: rgb(42, 63, 95); fill-opacity: 1; white-space: pre;" transform="translate(403.12,0)">40</text></g><g class="x2tick"><text text-anchor="middle" x="0" y="683" style="font-family: 'Open Sans', verdana, arial, sans-serif; font-size: 12px; fill: rgb(42, 63, 95); fill-opacity: 1; white-space: pre;" transform="translate(528.5,0)">60</text></g><g class="x2tick"><text text-anchor="middle" x="0" y="683" style="font-family: 'Open Sans', verdana, arial, sans-serif; font-size: 12px; fill: rgb(42, 63, 95); fill-opacity: 1; white-space: pre;" transform="translate(653.87,0)">80</text></g><g class="x2tick"><text text-anchor="middle" x="0" y="683" style="font-family: 'Open Sans', verdana, arial, sans-serif; font-size: 12px; fill: rgb(42, 63, 95); fill-opacity: 1; white-space: pre;" transform="translate(779.25,0)">100</text></g></g><g class="yaxislayer-above"><g class="y2tick"><text text-anchor="end" x="79" y="4.199999999999999" transform="translate(0,658.53)" style="font-family: 'Open Sans', verdana, arial, sans-serif; font-size: 12px; fill: rgb(42, 63, 95); fill-opacity: 1; white-space: pre;">0</text></g><g class="y2tick"><text text-anchor="end" x="79" y="4.199999999999999" style="font-family: 'Open Sans', verdana, arial, sans-serif; font-size: 12px; fill: rgb(42, 63, 95); fill-opacity: 1; white-space: pre;" transform="translate(0,583.54)">50</text></g><g class="y2tick"><text text-anchor="end" x="79" y="4.199999999999999" style="font-family: 'Open Sans', verdana, arial, sans-serif; font-size: 12px; fill: rgb(42, 63, 95); fill-opacity: 1; white-space: pre;" transform="translate(0,508.56)">100</text></g></g><g class="overaxes-above"/></g></g><g class="polarlayer"/><g class="smithlayer"/><g class="ternarylayer"/><g class="geolayer"/><g class="funnelarealayer"/><g class="pielayer"/><g class="iciclelayer"/><g class="treemaplayer"/><g class="sunburstlayer"/><g class="glimages"/><defs id="topdefs-809717"><g class="clips"/><clipPath id="legend809717"><rect width="132" height="67" x="0" y="0"/></clipPath></defs><g class="layer-above"><g class="imagelayer"/><g class="shapelayer"><g class="shape-group" data-index="0" clip-path="url(#clip809717x)"><path data-index="0" fill-rule="evenodd" d="M224.35,426.04L224.35,100" style="opacity: 1; stroke: rgb(230, 75, 53); stroke-opacity: 1; fill: rgb(0, 0, 0); fill-opacity: 0; stroke-dasharray: 9px, 9px; stroke-width: 2px;"/></g><g class="shape-group" data-index="1" clip-path="url(#clip809717x)"><path data-index="1" fill-rule="evenodd" d="M644.3,426.04L644.3,100" style="opacity: 1; stroke: rgb(230, 75, 53); stroke-opacity: 1; fill: rgb(0, 0, 0); fill-opacity: 0; stroke-dasharray: 9px, 9px; stroke-width: 2px;"/></g><g class="shape-group" data-index="2" clip-path="url(#clip809717x)"><path data-index="2" fill-rule="evenodd" d="M608.57,426.04L608.57,100" style="opacity: 1; stroke: rgb(0, 160, 135); stroke-opacity: 1; fill: rgb(0, 0, 0); fill-opacity: 0; stroke-width: 3px;"/></g></g></g><g class="infolayer"><g class="legend" pointer-events="all" transform="translate(94.8,111.4)"><rect class="bg" shape-rendering="crispEdges" style="stroke: rgb(68, 68, 68); stroke-opacity: 1; fill: rgb(255, 255, 255); fill-opacity: 1; stroke-width: 0px;" width="132" height="67" x="0" y="0"/><g class="scrollbox" transform="" clip-path="url(#legend809717)"><g class="groups"><g class="traces" transform="translate(0,14.5)" style="opacity: 1;"><text class="legendtext" text-anchor="start" x="40" y="4.680000000000001" style="font-family: 'Open Sans', verdana, arial, sans-serif; font-size: 12px; fill: rgb(42, 63, 95); fill-opacity: 1; white-space: pre;">Bootstrap 分布</text><g class="layers" style="opacity: 0.7;"><g class="legendfill"/><g class="legendlines"/><g class="legendsymbols"><g class="legendpoints"><path class="legendundefined" d="M6,6H-6V-6H6Z" transform="translate(20,0)" style="stroke-width: 0px; fill: rgb(60, 84, 136); fill-opacity: 1;"/></g></g></g><rect class="legendtoggle" x="0" y="-9.5" width="126.328125" height="19" style="fill: rgb(0, 0, 0); fill-opacity: 0;"/></g><g class="traces" transform="translate(0,33.5)" style="opacity: 1;"><text class="legendtext" text-anchor="start" x="40" y="4.680000000000001" style="font-family: 'Open Sans', verdana, arial, sans-serif; font-size: 12px; fill: rgb(42, 63, 95); fill-opacity: 1; white-space: pre;">密度曲线</text><g class="layers" style="opacity: 1;"><g class="legendfill"/><g class="legendlines"><path class="js-line" d="M5,0h30" style="fill: none; stroke: rgb(60, 84, 136); stroke-opacity: 1; stroke-width: 3px;"/></g><g class="legendsymbols"><g class="legendpoints"/></g></g><rect class="legendtoggle" x="0" y="-9.5" width="126.328125" height="19" style="fill: rgb(0, 0, 0); fill-opacity: 0;"/></g><g class="traces" transform="translate(0,52.5)" style="opacity: 1;"><text class="legendtext" text-anchor="start" x="40" y="4.680000000000001" style="font-family: 'Open Sans', verdana, arial, sans-serif; font-size: 12px; fill: rgb(42, 63, 95); fill-opacity: 1; white-space: pre;">置信区间</text><g class="layers" style="opacity: 1;"><g class="legendfill"/><g class="legendlines"/><g class="legendsymbols"><g class="legendpoints"><path class="scatterpts" transform="translate(20,0)" d="M3,0A3,3 0 1,1 0,-3A3,3 0 0,1 3,0Z" style="opacity: 1; stroke-width: 1px; fill: rgb(0, 160, 135); fill-opacity: 1; stroke: rgb(0, 0, 0); stroke-opacity: 1;"/></g></g></g><rect class="legendtoggle" x="0" y="-9.5" width="126.328125" height="19" style="fill: rgb(0, 0, 0); fill-opacity: 0;"/></g></g></g><rect class="scrollbar" rx="20" ry="3" width="0" height="0" style="fill: rgb(128, 139, 164); fill-opacity: 1;" x="0" y="0"/></g><g class="g-gtitle"><text class="gtitle" x="45" y="50" text-anchor="start" dy="0em" style="opacity: 1; font-family: 'Open Sans', verdana, arial, sans-serif; font-size: 14px; fill: rgb(42, 63, 95); fill-opacity: 1; white-space: pre;">Bootstrap 置信区间模拟 (95% CI)</text></g><g class="g-xtitle"><text class="xtitle" x="450" y="466.3400390625" text-anchor="middle" style="opacity: 1; font-family: 'Open Sans', verdana, arial, sans-serif; font-size: 14px; fill: rgb(42, 63, 95); fill-opacity: 1; white-space: pre;">均值</text></g><g class="g-x2title"><text class="x2title" x="450" y="710.3" text-anchor="middle" style="opacity: 1; font-family: 'Open Sans', verdana, arial, sans-serif; font-size: 14px; fill: rgb(42, 63, 95); fill-opacity: 1; white-space: pre;">模拟次数</text></g><g class="g-ytitle"><text class="ytitle" transform="rotate(-90,32.334375,263.02)" x="32.334375" y="263.02" text-anchor="middle" style="opacity: 1; font-family: 'Open Sans', verdana, arial, sans-serif; font-size: 14px; fill: rgb(42, 63, 95); fill-opacity: 1; white-space: pre;">概率密度</text></g><g class="g-y2title"><text class="y2title" transform="rotate(-90,36.709375,582.22)" x="36.709375" y="582.22" text-anchor="middle" style="opacity: 1; font-family: 'Open Sans', verdana, arial, sans-serif; font-size: 14px; fill: rgb(42, 63, 95); fill-opacity: 1; white-space: pre;">参数值</text></g><g class="annotation" data-index="0" style="opacity: 1;"><g class="annotation-text-g" transform="rotate(0,450,88.49999999999999)"><g class="cursor-pointer" transform="translate(282,77)"><rect class="bg" x="0.5" y="0.5" width="336" height="22" style="stroke-width: 1px; stroke: rgb(0, 0, 0); stroke-opacity: 0; fill: rgb(0, 0, 0); fill-opacity: 0;"/><text class="annotation-text" text-anchor="middle" x="168.2890625" y="18" style="font-family: 'Open Sans', verdana, arial, sans-serif; font-size: 16px; fill: rgb(42, 63, 95); fill-opacity: 1; white-space: pre;">Bootstrap 均值分布 (n=50, 1000 次重抽样)</text></g></g></g><g class="annotation" data-index="1" style="opacity: 1;"><g class="annotation-text-g" transform="rotate(0,450,482.94)"><g class="cursor-pointer" transform="translate(324,471)"><rect class="bg" x="0.5" y="0.5" width="251" height="22" style="stroke-width: 1px; stroke: rgb(0, 0, 0); stroke-opacity: 0; fill: rgb(0, 0, 0); fill-opacity: 0;"/><text class="annotation-text" text-anchor="middle" x="126.15625" y="18" style="font-family: 'Open Sans', verdana, arial, sans-serif; font-size: 16px; fill: rgb(42, 63, 95); fill-opacity: 1; white-space: pre;">置信区间覆盖率模拟 (100 次模拟)</text></g></g></g><g class="annotation" data-index="2" style="opacity: 1;"><g class="annotation-text-g" transform="rotate(0,243.85,113.5)"><g class="cursor-pointer" transform="translate(224,100)"><rect class="bg" x="0.5" y="0.5" width="38" height="26" style="stroke-width: 1px; stroke: rgb(0, 0, 0); stroke-opacity: 0; fill: rgb(0, 0, 0); fill-opacity: 0;"/><text class="annotation-text" text-anchor="middle" x="19.6640625" y="11" style="font-family: 'Open Sans', verdana, arial, sans-serif; font-size: 9px; fill: rgb(42, 63, 95); fill-opacity: 1; white-space: pre;"><tspan class="line" dy="0em" x="19.6640625" y="11">CI 下限:</tspan><tspan class="line" dy="1.3em" x="19.6640625" y="11">92.73</tspan></text></g></g></g><g class="annotation" data-index="3" style="opacity: 1;"><g class="annotation-text-g" transform="rotate(0,663.8,113.5)"><g class="cursor-pointer" transform="translate(644,100)"><rect class="bg" x="0.5" y="0.5" width="38" height="26" style="stroke-width: 1px; stroke: rgb(0, 0, 0); stroke-opacity: 0; fill: rgb(0, 0, 0); fill-opacity: 0;"/><text class="annotation-text" text-anchor="middle" x="19.6640625" y="11" style="font-family: 'Open Sans', verdana, arial, sans-serif; font-size: 9px; fill: rgb(42, 63, 95); fill-opacity: 1; white-space: pre;"><tspan class="line" dy="0em" x="19.6640625" y="11">CI 上限:</tspan><tspan class="line" dy="1.3em" x="19.6640625" y="11">100.68</tspan></text></g></g></g><g class="annotation" data-index="4" style="opacity: 1;"><g class="annotation-text-g" transform="rotate(0,623.07,114.5)"><g class="cursor-pointer" transform="translate(609,100)"><rect class="bg" x="0.5" y="0.5" width="28" height="28" style="stroke-width: 1px; stroke: rgb(0, 0, 0); stroke-opacity: 0; fill: rgb(0, 0, 0); fill-opacity: 0;"/><text class="annotation-text" text-anchor="middle" x="14.2734375" y="12" style="font-family: 'Open Sans', verdana, arial, sans-serif; font-size: 10px; fill: rgb(42, 63, 95); fill-opacity: 1; white-space: pre;"><tspan class="line" dy="0em" x="14.2734375" y="12">真值:</tspan><tspan class="line" dy="1.3em" x="14.2734375" y="12">100</tspan></text></g></g></g><g class="annotation" data-index="5" style="opacity: 1;"><g class="annotation-text-g" transform="rotate(0,152.5,658.5)"><g class="cursor-pointer" transform="translate(80,647)"><rect class="bg" x="0.5" y="0.5" width="144" height="22" style="stroke-width: 1px; stroke: rgb(60, 84, 136); stroke-opacity: 1; fill: rgb(255, 255, 255); fill-opacity: 0.8;"/><text class="annotation-text" text-anchor="middle" x="72.3203125" y="16" style="font-family: 'Open Sans', verdana, arial, sans-serif; font-size: 11px; fill: rgb(51, 51, 51); fill-opacity: 1; white-space: pre;">覆盖率：93.0% (93/100)</text></g></g></g></g></svg>